%TF.GenerationSoftware,KiCad,Pcbnew,7.0.7*%
%TF.CreationDate,2025-01-17T09:26:31-05:00*%
%TF.ProjectId,ClockDiv_v2,436c6f63-6b44-4697-965f-76322e6b6963,rev?*%
%TF.SameCoordinates,Original*%
%TF.FileFunction,Legend,Bot*%
%TF.FilePolarity,Positive*%
%FSLAX46Y46*%
G04 Gerber Fmt 4.6, Leading zero omitted, Abs format (unit mm)*
G04 Created by KiCad (PCBNEW 7.0.7) date 2025-01-17 09:26:31*
%MOMM*%
%LPD*%
G01*
G04 APERTURE LIST*
%ADD10C,0.150000*%
%ADD11C,0.120000*%
G04 APERTURE END LIST*
D10*
X160214523Y-151039819D02*
X160214523Y-151754104D01*
X160214523Y-151754104D02*
X160262142Y-151896961D01*
X160262142Y-151896961D02*
X160357380Y-151992200D01*
X160357380Y-151992200D02*
X160500237Y-152039819D01*
X160500237Y-152039819D02*
X160595475Y-152039819D01*
X159214523Y-152039819D02*
X159785951Y-152039819D01*
X159500237Y-152039819D02*
X159500237Y-151039819D01*
X159500237Y-151039819D02*
X159595475Y-151182676D01*
X159595475Y-151182676D02*
X159690713Y-151277914D01*
X159690713Y-151277914D02*
X159785951Y-151325533D01*
X158595475Y-151039819D02*
X158500237Y-151039819D01*
X158500237Y-151039819D02*
X158404999Y-151087438D01*
X158404999Y-151087438D02*
X158357380Y-151135057D01*
X158357380Y-151135057D02*
X158309761Y-151230295D01*
X158309761Y-151230295D02*
X158262142Y-151420771D01*
X158262142Y-151420771D02*
X158262142Y-151658866D01*
X158262142Y-151658866D02*
X158309761Y-151849342D01*
X158309761Y-151849342D02*
X158357380Y-151944580D01*
X158357380Y-151944580D02*
X158404999Y-151992200D01*
X158404999Y-151992200D02*
X158500237Y-152039819D01*
X158500237Y-152039819D02*
X158595475Y-152039819D01*
X158595475Y-152039819D02*
X158690713Y-151992200D01*
X158690713Y-151992200D02*
X158738332Y-151944580D01*
X158738332Y-151944580D02*
X158785951Y-151849342D01*
X158785951Y-151849342D02*
X158833570Y-151658866D01*
X158833570Y-151658866D02*
X158833570Y-151420771D01*
X158833570Y-151420771D02*
X158785951Y-151230295D01*
X158785951Y-151230295D02*
X158738332Y-151135057D01*
X158738332Y-151135057D02*
X158690713Y-151087438D01*
X158690713Y-151087438D02*
X158595475Y-151039819D01*
D11*
%TO.C,J10*%
X156805000Y-130145000D02*
X162005000Y-130145000D01*
X156805000Y-147985000D02*
X156805000Y-130145000D01*
X156805000Y-147985000D02*
X159405000Y-147985000D01*
X156805000Y-149255000D02*
X156805000Y-150585000D01*
X156805000Y-150585000D02*
X158135000Y-150585000D01*
X159405000Y-147985000D02*
X159405000Y-150585000D01*
X159405000Y-150585000D02*
X162005000Y-150585000D01*
X162005000Y-150585000D02*
X162005000Y-130145000D01*
%TD*%
M02*
