M48
; DRILL file {KiCad 7.0.7} date 2025 January 17, Friday 18:36:55
; FORMAT={3:3/ absolute / metric / suppress leading zeros}
; #@! TF.CreationDate,2025-01-17T18:36:55-05:00
; #@! TF.GenerationSoftware,Kicad,Pcbnew,7.0.7
; #@! TF.FileFunction,Plated,1,2,PTH
FMAT,2
METRIC,TZ
; #@! TA.AperFunction,Plated,PTH,ViaDrill
T1C0.400
; #@! TA.AperFunction,Plated,PTH,ComponentDrill
T2C0.750
; #@! TA.AperFunction,Plated,PTH,ComponentDrill
T3C0.800
; #@! TA.AperFunction,Plated,PTH,ComponentDrill
T4C0.900
; #@! TA.AperFunction,Plated,PTH,ComponentDrill
T5C1.000
; #@! TA.AperFunction,Plated,PTH,ComponentDrill
T6C1.220
; #@! TA.AperFunction,Plated,PTH,ComponentDrill
T7C1.420
; #@! TA.AperFunction,Plated,PTH,ComponentDrill
T8C1.430
%
G90
G05
T1
X132600Y-137675
T2
X119760Y-43800
X121030Y-43800
X122300Y-43800
T3
X121995Y-141225
X121995Y-148845
X124015Y-33100
X124140Y-79175
X124140Y-83225
X124190Y-53950
X124535Y-141225
X124535Y-148845
X124750Y-129900
X124775Y-133950
X124815Y-104675
X124815Y-108750
X127075Y-141225
X127075Y-148845
X129615Y-141225
X129615Y-148845
X132155Y-141225
X132155Y-148845
X134175Y-33100
X134300Y-79175
X134300Y-83225
X134350Y-53950
X134695Y-141225
X134695Y-148845
X134910Y-129900
X134935Y-133950
X134975Y-104675
X134975Y-108750
X137235Y-141225
X137235Y-148845
X138175Y-39140
X138175Y-49300
X139775Y-141225
X139775Y-148845
X142975Y-129900
X142975Y-134000
X144960Y-147250
X144960Y-149750
X146750Y-53800
X146850Y-79250
X146875Y-83400
X146975Y-104675
X147000Y-108750
X150160Y-142825
X152660Y-142825
X153135Y-129900
X153135Y-134000
X156910Y-53800
X157010Y-79250
X157035Y-83400
X157135Y-104675
X157160Y-108750
X159750Y-38740
X159750Y-48900
T4
X135835Y-69675
X135835Y-94825
X135835Y-120725
X138375Y-69675
X138375Y-94825
X138375Y-120725
X157450Y-69700
X157450Y-120700
X157460Y-94875
X159990Y-69700
X159990Y-120700
X160000Y-94875
T5
X158135Y-131475
X158135Y-134015
X158135Y-136555
X158135Y-139095
X158135Y-141635
X158135Y-144175
X158135Y-146715
X158135Y-149255
X160675Y-131475
X160675Y-134015
X160675Y-136555
X160675Y-139095
X160675Y-141635
X160675Y-144175
X160675Y-146715
X160675Y-149255
T6
X129325Y-88975
X129325Y-114400
X129368Y-38067
X129375Y-63475
X150925Y-38050
X150925Y-88950
X150925Y-114425
X151000Y-63450
T7
X129325Y-92075
X129325Y-117500
X129368Y-41167
X129375Y-66575
X150925Y-41150
X150925Y-92050
X150925Y-117525
X151000Y-66550
T8
X129325Y-100375
X129325Y-125800
X129368Y-49467
X129375Y-74875
X150925Y-49450
X150925Y-100350
X150925Y-125825
X151000Y-74850
T0
M30
