%TF.GenerationSoftware,KiCad,Pcbnew,7.0.7*%
%TF.CreationDate,2025-01-17T09:26:31-05:00*%
%TF.ProjectId,ClockDiv_v2,436c6f63-6b44-4697-965f-76322e6b6963,rev?*%
%TF.SameCoordinates,Original*%
%TF.FileFunction,Copper,L2,Bot*%
%TF.FilePolarity,Positive*%
%FSLAX46Y46*%
G04 Gerber Fmt 4.6, Leading zero omitted, Abs format (unit mm)*
G04 Created by KiCad (PCBNEW 7.0.7) date 2025-01-17 09:26:31*
%MOMM*%
%LPD*%
G01*
G04 APERTURE LIST*
%TA.AperFunction,ComponentPad*%
%ADD10R,1.800000X1.800000*%
%TD*%
%TA.AperFunction,ComponentPad*%
%ADD11C,1.800000*%
%TD*%
%TA.AperFunction,ComponentPad*%
%ADD12C,1.600000*%
%TD*%
%TA.AperFunction,ComponentPad*%
%ADD13O,1.600000X1.600000*%
%TD*%
%TA.AperFunction,ComponentPad*%
%ADD14R,1.930000X1.830000*%
%TD*%
%TA.AperFunction,ComponentPad*%
%ADD15C,2.130000*%
%TD*%
%TA.AperFunction,ComponentPad*%
%ADD16R,1.600000X1.600000*%
%TD*%
%TA.AperFunction,ComponentPad*%
%ADD17R,1.050000X1.500000*%
%TD*%
%TA.AperFunction,ComponentPad*%
%ADD18O,1.050000X1.500000*%
%TD*%
%TA.AperFunction,ComponentPad*%
%ADD19R,1.700000X1.700000*%
%TD*%
%TA.AperFunction,ComponentPad*%
%ADD20O,1.700000X1.700000*%
%TD*%
%TA.AperFunction,ViaPad*%
%ADD21C,0.800000*%
%TD*%
%TA.AperFunction,Conductor*%
%ADD22C,0.500000*%
%TD*%
G04 APERTURE END LIST*
D10*
%TO.P,D3,1,K*%
%TO.N,GND*%
X135835000Y-94825000D03*
D11*
%TO.P,D3,2,A*%
%TO.N,Net-(D3-A)*%
X138375000Y-94825000D03*
%TD*%
D10*
%TO.P,D4,1,K*%
%TO.N,GND*%
X157460000Y-94875000D03*
D11*
%TO.P,D4,2,A*%
%TO.N,Net-(D4-A)*%
X160000000Y-94875000D03*
%TD*%
D12*
%TO.P,R9,1*%
%TO.N,Net-(J5-PadT)*%
X146850000Y-79250000D03*
D13*
%TO.P,R9,2*%
%TO.N,Net-(U1-Q1)*%
X157010000Y-79250000D03*
%TD*%
D10*
%TO.P,D6,1,K*%
%TO.N,GND*%
X157450000Y-120700000D03*
D11*
%TO.P,D6,2,A*%
%TO.N,Net-(D6-A)*%
X159990000Y-120700000D03*
%TD*%
D12*
%TO.P,R7,1*%
%TO.N,Net-(U1-Q0)*%
X124140000Y-83225000D03*
D13*
%TO.P,R7,2*%
%TO.N,Net-(D1-A)*%
X134300000Y-83225000D03*
%TD*%
D14*
%TO.P,J7,S*%
%TO.N,GND*%
X150925000Y-88950000D03*
D15*
%TO.P,J7,T*%
%TO.N,Net-(J7-PadT)*%
X150925000Y-100350000D03*
%TO.P,J7,TN*%
%TO.N,N/C*%
X150925000Y-92050000D03*
%TD*%
D14*
%TO.P,J9,S*%
%TO.N,GND*%
X150925000Y-114425000D03*
D15*
%TO.P,J9,T*%
%TO.N,Net-(J9-PadT)*%
X150925000Y-125825000D03*
%TO.P,J9,TN*%
%TO.N,N/C*%
X150925000Y-117525000D03*
%TD*%
D12*
%TO.P,R6,1*%
%TO.N,Net-(J4-PadT)*%
X124140000Y-79175000D03*
D13*
%TO.P,R6,2*%
%TO.N,Net-(U1-Q0)*%
X134300000Y-79175000D03*
%TD*%
D10*
%TO.P,D2,1,K*%
%TO.N,GND*%
X157450000Y-69700000D03*
D11*
%TO.P,D2,2,A*%
%TO.N,Net-(D2-A)*%
X159990000Y-69700000D03*
%TD*%
D12*
%TO.P,R5,1*%
%TO.N,Net-(U1-Reset)*%
X159750000Y-48900000D03*
D13*
%TO.P,R5,2*%
%TO.N,Net-(J3-PadT)*%
X159750000Y-38740000D03*
%TD*%
D12*
%TO.P,R11,1*%
%TO.N,Net-(J6-PadT)*%
X124815000Y-104675000D03*
D13*
%TO.P,R11,2*%
%TO.N,Net-(U1-Q2)*%
X134975000Y-104675000D03*
%TD*%
D14*
%TO.P,J6,S*%
%TO.N,GND*%
X129325000Y-88975000D03*
D15*
%TO.P,J6,T*%
%TO.N,Net-(J6-PadT)*%
X129325000Y-100375000D03*
%TO.P,J6,TN*%
%TO.N,N/C*%
X129325000Y-92075000D03*
%TD*%
D16*
%TO.P,U1,1,Q11*%
%TO.N,unconnected-(U1-Q11-Pad1)*%
X139775000Y-141225000D03*
D13*
%TO.P,U1,2,Q5*%
%TO.N,Net-(U1-Q5)*%
X137235000Y-141225000D03*
%TO.P,U1,3,Q4*%
%TO.N,Net-(U1-Q4)*%
X134695000Y-141225000D03*
%TO.P,U1,4,Q6*%
%TO.N,unconnected-(U1-Q6-Pad4)*%
X132155000Y-141225000D03*
%TO.P,U1,5,Q3*%
%TO.N,Net-(U1-Q3)*%
X129615000Y-141225000D03*
%TO.P,U1,6,Q2*%
%TO.N,Net-(U1-Q2)*%
X127075000Y-141225000D03*
%TO.P,U1,7,Q1*%
%TO.N,Net-(U1-Q1)*%
X124535000Y-141225000D03*
%TO.P,U1,8,VSS*%
%TO.N,GND*%
X121995000Y-141225000D03*
%TO.P,U1,9,Q0*%
%TO.N,Net-(U1-Q0)*%
X121995000Y-148845000D03*
%TO.P,U1,10,CLK*%
%TO.N,Net-(Q1-C)*%
X124535000Y-148845000D03*
%TO.P,U1,11,Reset*%
%TO.N,Net-(U1-Reset)*%
X127075000Y-148845000D03*
%TO.P,U1,12,Q8*%
%TO.N,unconnected-(U1-Q8-Pad12)*%
X129615000Y-148845000D03*
%TO.P,U1,13,Q7*%
%TO.N,unconnected-(U1-Q7-Pad13)*%
X132155000Y-148845000D03*
%TO.P,U1,14,Q9*%
%TO.N,unconnected-(U1-Q9-Pad14)*%
X134695000Y-148845000D03*
%TO.P,U1,15,Q10*%
%TO.N,unconnected-(U1-Q10-Pad15)*%
X137235000Y-148845000D03*
%TO.P,U1,16,VDD*%
%TO.N,+5V*%
X139775000Y-148845000D03*
%TD*%
D17*
%TO.P,Q1,1,E*%
%TO.N,GND*%
X119760000Y-43800000D03*
D18*
%TO.P,Q1,2,B*%
%TO.N,Net-(Q1-B)*%
X121030000Y-43800000D03*
%TO.P,Q1,3,C*%
%TO.N,Net-(Q1-C)*%
X122300000Y-43800000D03*
%TD*%
D12*
%TO.P,R3,1*%
%TO.N,Net-(Q1-B)*%
X138175000Y-39140000D03*
D13*
%TO.P,R3,2*%
%TO.N,Net-(J2-PadT)*%
X138175000Y-49300000D03*
%TD*%
D16*
%TO.P,C2,1*%
%TO.N,+5V*%
X150160000Y-142825000D03*
D12*
%TO.P,C2,2*%
%TO.N,GND*%
X152660000Y-142825000D03*
%TD*%
D14*
%TO.P,J8,S*%
%TO.N,GND*%
X129325000Y-114400000D03*
D15*
%TO.P,J8,T*%
%TO.N,Net-(J8-PadT)*%
X129325000Y-125800000D03*
%TO.P,J8,TN*%
%TO.N,N/C*%
X129325000Y-117500000D03*
%TD*%
D14*
%TO.P,J3,S*%
%TO.N,GND*%
X150925000Y-38050000D03*
D15*
%TO.P,J3,T*%
%TO.N,Net-(J3-PadT)*%
X150925000Y-49450000D03*
%TO.P,J3,TN*%
%TO.N,N/C*%
X150925000Y-41150000D03*
%TD*%
D12*
%TO.P,R13,1*%
%TO.N,Net-(J7-PadT)*%
X146975000Y-104675000D03*
D13*
%TO.P,R13,2*%
%TO.N,Net-(U1-Q3)*%
X157135000Y-104675000D03*
%TD*%
D12*
%TO.P,R15,1*%
%TO.N,Net-(J8-PadT)*%
X124750000Y-129900000D03*
D13*
%TO.P,R15,2*%
%TO.N,Net-(U1-Q4)*%
X134910000Y-129900000D03*
%TD*%
D12*
%TO.P,R12,1*%
%TO.N,Net-(U1-Q3)*%
X147000000Y-108750000D03*
D13*
%TO.P,R12,2*%
%TO.N,Net-(D4-A)*%
X157160000Y-108750000D03*
%TD*%
D10*
%TO.P,D5,1,K*%
%TO.N,GND*%
X135835000Y-120725000D03*
D11*
%TO.P,D5,2,A*%
%TO.N,Net-(D5-A)*%
X138375000Y-120725000D03*
%TD*%
D14*
%TO.P,J5,S*%
%TO.N,GND*%
X151000000Y-63450000D03*
D15*
%TO.P,J5,T*%
%TO.N,Net-(J5-PadT)*%
X151000000Y-74850000D03*
%TO.P,J5,TN*%
%TO.N,N/C*%
X151000000Y-66550000D03*
%TD*%
D14*
%TO.P,J2,S*%
%TO.N,GND*%
X129368095Y-38066967D03*
D15*
%TO.P,J2,T*%
%TO.N,Net-(J2-PadT)*%
X129368095Y-49466967D03*
%TO.P,J2,TN*%
%TO.N,N/C*%
X129368095Y-41166967D03*
%TD*%
D12*
%TO.P,R4,1*%
%TO.N,Net-(J3-PadT)*%
X146750000Y-53800000D03*
D13*
%TO.P,R4,2*%
%TO.N,GND*%
X156910000Y-53800000D03*
%TD*%
D14*
%TO.P,J4,S*%
%TO.N,GND*%
X129375000Y-63475000D03*
D15*
%TO.P,J4,T*%
%TO.N,Net-(J4-PadT)*%
X129375000Y-74875000D03*
%TO.P,J4,TN*%
%TO.N,N/C*%
X129375000Y-66575000D03*
%TD*%
D12*
%TO.P,R2,1*%
%TO.N,+5V*%
X124190000Y-53950000D03*
D13*
%TO.P,R2,2*%
%TO.N,Net-(Q1-C)*%
X134350000Y-53950000D03*
%TD*%
D12*
%TO.P,R10,1*%
%TO.N,Net-(U1-Q2)*%
X124815000Y-108750000D03*
D13*
%TO.P,R10,2*%
%TO.N,Net-(D3-A)*%
X134975000Y-108750000D03*
%TD*%
D12*
%TO.P,R8,1*%
%TO.N,Net-(U1-Q1)*%
X146875000Y-83400000D03*
D13*
%TO.P,R8,2*%
%TO.N,Net-(D2-A)*%
X157035000Y-83400000D03*
%TD*%
D12*
%TO.P,R14,1*%
%TO.N,Net-(U1-Q4)*%
X124775000Y-133950000D03*
D13*
%TO.P,R14,2*%
%TO.N,Net-(D5-A)*%
X134935000Y-133950000D03*
%TD*%
D12*
%TO.P,R1,1*%
%TO.N,GND*%
X124015000Y-33100000D03*
D13*
%TO.P,R1,2*%
%TO.N,Net-(Q1-B)*%
X134175000Y-33100000D03*
%TD*%
D12*
%TO.P,C1,1*%
%TO.N,+5V*%
X144960000Y-149750000D03*
%TO.P,C1,2*%
%TO.N,GND*%
X144960000Y-147250000D03*
%TD*%
%TO.P,R17,1*%
%TO.N,Net-(J9-PadT)*%
X142975000Y-129900000D03*
D13*
%TO.P,R17,2*%
%TO.N,Net-(U1-Q5)*%
X153135000Y-129900000D03*
%TD*%
D12*
%TO.P,R16,1*%
%TO.N,Net-(U1-Q5)*%
X142975000Y-134000000D03*
D13*
%TO.P,R16,2*%
%TO.N,Net-(D6-A)*%
X153135000Y-134000000D03*
%TD*%
D10*
%TO.P,D1,1,K*%
%TO.N,GND*%
X135835000Y-69675000D03*
D11*
%TO.P,D1,2,A*%
%TO.N,Net-(D1-A)*%
X138375000Y-69675000D03*
%TD*%
D19*
%TO.P,J10,1,Pin_1*%
%TO.N,-12V*%
X158135000Y-149255000D03*
D20*
%TO.P,J10,2,Pin_2*%
X160675000Y-149255000D03*
%TO.P,J10,3,Pin_3*%
%TO.N,GND*%
X158135000Y-146715000D03*
%TO.P,J10,4,Pin_4*%
X160675000Y-146715000D03*
%TO.P,J10,5,Pin_5*%
X158135000Y-144175000D03*
%TO.P,J10,6,Pin_6*%
X160675000Y-144175000D03*
%TO.P,J10,7,Pin_7*%
X158135000Y-141635000D03*
%TO.P,J10,8,Pin_8*%
X160675000Y-141635000D03*
%TO.P,J10,9,Pin_9*%
%TO.N,+12V*%
X158135000Y-139095000D03*
%TO.P,J10,10,Pin_10*%
X160675000Y-139095000D03*
%TO.P,J10,11,Pin_11*%
%TO.N,+5V*%
X158135000Y-136555000D03*
%TO.P,J10,12,Pin_12*%
X160675000Y-136555000D03*
%TO.P,J10,13,Pin_13*%
%TO.N,unconnected-(J10-Pin_13-Pad13)*%
X158135000Y-134015000D03*
%TO.P,J10,14,Pin_14*%
X160675000Y-134015000D03*
%TO.P,J10,15,Pin_15*%
%TO.N,unconnected-(J10-Pin_15-Pad15)*%
X158135000Y-131475000D03*
%TO.P,J10,16,Pin_16*%
X160675000Y-131475000D03*
%TD*%
D21*
%TO.N,Net-(U1-Q3)*%
X132600000Y-137675000D03*
%TD*%
D22*
%TO.N,Net-(U1-Q3)*%
X143300000Y-112450000D02*
X147000000Y-108750000D01*
X132600000Y-134050000D02*
X143300000Y-123350000D01*
X132600000Y-137675000D02*
X132600000Y-134050000D01*
X143300000Y-123350000D02*
X143300000Y-112450000D01*
%TD*%
%TA.AperFunction,Conductor*%
%TO.N,GND*%
G36*
X160128692Y-146484685D02*
G01*
X160174447Y-146537489D01*
X160184391Y-146606647D01*
X160180631Y-146623933D01*
X160175000Y-146643111D01*
X160175000Y-146786889D01*
X160178856Y-146800022D01*
X160180631Y-146806067D01*
X160180630Y-146875936D01*
X160142855Y-146934714D01*
X160079299Y-146963738D01*
X160061653Y-146965000D01*
X158748347Y-146965000D01*
X158681308Y-146945315D01*
X158635553Y-146892511D01*
X158625609Y-146823353D01*
X158629369Y-146806067D01*
X158631143Y-146800022D01*
X158635000Y-146786889D01*
X158635000Y-146643111D01*
X158629368Y-146623933D01*
X158629370Y-146554064D01*
X158667145Y-146495286D01*
X158730701Y-146466262D01*
X158748347Y-146465000D01*
X160061653Y-146465000D01*
X160128692Y-146484685D01*
G37*
%TD.AperFunction*%
%TA.AperFunction,Conductor*%
G36*
X158312512Y-144674507D02*
G01*
X158365315Y-144720262D01*
X158385000Y-144787301D01*
X158385000Y-146102698D01*
X158365315Y-146169737D01*
X158312511Y-146215492D01*
X158243355Y-146225436D01*
X158170766Y-146215000D01*
X158170763Y-146215000D01*
X158099237Y-146215000D01*
X158099233Y-146215000D01*
X158026645Y-146225436D01*
X157957487Y-146215492D01*
X157904684Y-146169736D01*
X157885000Y-146102698D01*
X157885000Y-144787301D01*
X157904685Y-144720262D01*
X157957489Y-144674507D01*
X158026647Y-144664563D01*
X158099237Y-144675000D01*
X158099238Y-144675000D01*
X158170762Y-144675000D01*
X158170763Y-144675000D01*
X158243353Y-144664563D01*
X158312512Y-144674507D01*
G37*
%TD.AperFunction*%
%TA.AperFunction,Conductor*%
G36*
X160852512Y-144674507D02*
G01*
X160905315Y-144720262D01*
X160925000Y-144787301D01*
X160925000Y-146102698D01*
X160905315Y-146169737D01*
X160852511Y-146215492D01*
X160783355Y-146225436D01*
X160710766Y-146215000D01*
X160710763Y-146215000D01*
X160639237Y-146215000D01*
X160639233Y-146215000D01*
X160566645Y-146225436D01*
X160497487Y-146215492D01*
X160444684Y-146169736D01*
X160425000Y-146102698D01*
X160425000Y-144787301D01*
X160444685Y-144720262D01*
X160497489Y-144674507D01*
X160566647Y-144664563D01*
X160639237Y-144675000D01*
X160639238Y-144675000D01*
X160710762Y-144675000D01*
X160710763Y-144675000D01*
X160783353Y-144664563D01*
X160852512Y-144674507D01*
G37*
%TD.AperFunction*%
%TA.AperFunction,Conductor*%
G36*
X160128692Y-143944685D02*
G01*
X160174447Y-143997489D01*
X160184391Y-144066647D01*
X160180631Y-144083933D01*
X160175000Y-144103111D01*
X160175000Y-144246888D01*
X160180631Y-144266067D01*
X160180630Y-144335936D01*
X160142855Y-144394714D01*
X160079299Y-144423738D01*
X160061653Y-144425000D01*
X158748347Y-144425000D01*
X158681308Y-144405315D01*
X158635553Y-144352511D01*
X158625609Y-144283353D01*
X158629369Y-144266067D01*
X158635000Y-144246888D01*
X158635000Y-144103111D01*
X158629369Y-144083933D01*
X158629370Y-144014064D01*
X158667145Y-143955286D01*
X158730701Y-143926262D01*
X158748347Y-143925000D01*
X160061653Y-143925000D01*
X160128692Y-143944685D01*
G37*
%TD.AperFunction*%
%TA.AperFunction,Conductor*%
G36*
X158312512Y-142134507D02*
G01*
X158365315Y-142180262D01*
X158385000Y-142247301D01*
X158385000Y-143562698D01*
X158365315Y-143629737D01*
X158312511Y-143675492D01*
X158243355Y-143685436D01*
X158170766Y-143675000D01*
X158170763Y-143675000D01*
X158099237Y-143675000D01*
X158099233Y-143675000D01*
X158026645Y-143685436D01*
X157957487Y-143675492D01*
X157904684Y-143629736D01*
X157885000Y-143562698D01*
X157885000Y-142247301D01*
X157904685Y-142180262D01*
X157957489Y-142134507D01*
X158026647Y-142124563D01*
X158099237Y-142135000D01*
X158099238Y-142135000D01*
X158170762Y-142135000D01*
X158170763Y-142135000D01*
X158243353Y-142124563D01*
X158312512Y-142134507D01*
G37*
%TD.AperFunction*%
%TA.AperFunction,Conductor*%
G36*
X160852512Y-142134507D02*
G01*
X160905315Y-142180262D01*
X160925000Y-142247301D01*
X160925000Y-143562698D01*
X160905315Y-143629737D01*
X160852511Y-143675492D01*
X160783355Y-143685436D01*
X160710766Y-143675000D01*
X160710763Y-143675000D01*
X160639237Y-143675000D01*
X160639233Y-143675000D01*
X160566645Y-143685436D01*
X160497487Y-143675492D01*
X160444684Y-143629736D01*
X160425000Y-143562698D01*
X160425000Y-142247301D01*
X160444685Y-142180262D01*
X160497489Y-142134507D01*
X160566647Y-142124563D01*
X160639237Y-142135000D01*
X160639238Y-142135000D01*
X160710762Y-142135000D01*
X160710763Y-142135000D01*
X160783353Y-142124563D01*
X160852512Y-142134507D01*
G37*
%TD.AperFunction*%
%TA.AperFunction,Conductor*%
G36*
X160128692Y-141404685D02*
G01*
X160174447Y-141457489D01*
X160184391Y-141526647D01*
X160180631Y-141543933D01*
X160175000Y-141563111D01*
X160175000Y-141706888D01*
X160180631Y-141726067D01*
X160180630Y-141795936D01*
X160142855Y-141854714D01*
X160079299Y-141883738D01*
X160061653Y-141885000D01*
X158748347Y-141885000D01*
X158681308Y-141865315D01*
X158635553Y-141812511D01*
X158625609Y-141743353D01*
X158629369Y-141726067D01*
X158635000Y-141706888D01*
X158635000Y-141563111D01*
X158629369Y-141543933D01*
X158629370Y-141474064D01*
X158667145Y-141415286D01*
X158730701Y-141386262D01*
X158748347Y-141385000D01*
X160061653Y-141385000D01*
X160128692Y-141404685D01*
G37*
%TD.AperFunction*%
%TA.AperFunction,Conductor*%
G36*
X164217863Y-29489760D02*
G01*
X164263618Y-29542564D01*
X164274824Y-29594075D01*
X164274824Y-154371139D01*
X164255139Y-154438178D01*
X164202335Y-154483933D01*
X164150888Y-154495139D01*
X116173888Y-154520010D01*
X116106839Y-154500360D01*
X116061056Y-154447580D01*
X116049824Y-154396010D01*
X116049824Y-148845001D01*
X120689532Y-148845001D01*
X120709364Y-149071686D01*
X120709366Y-149071697D01*
X120768258Y-149291488D01*
X120768261Y-149291497D01*
X120864431Y-149497732D01*
X120864432Y-149497734D01*
X120994954Y-149684141D01*
X121155858Y-149845045D01*
X121155861Y-149845047D01*
X121342266Y-149975568D01*
X121548504Y-150071739D01*
X121768308Y-150130635D01*
X121930230Y-150144801D01*
X121994998Y-150150468D01*
X121995000Y-150150468D01*
X121995002Y-150150468D01*
X122051672Y-150145509D01*
X122221692Y-150130635D01*
X122441496Y-150071739D01*
X122647734Y-149975568D01*
X122834139Y-149845047D01*
X122995047Y-149684139D01*
X123125568Y-149497734D01*
X123152618Y-149439724D01*
X123198790Y-149387285D01*
X123265983Y-149368133D01*
X123332865Y-149388348D01*
X123377382Y-149439725D01*
X123404429Y-149497728D01*
X123404432Y-149497734D01*
X123534954Y-149684141D01*
X123695858Y-149845045D01*
X123695861Y-149845047D01*
X123882266Y-149975568D01*
X124088504Y-150071739D01*
X124308308Y-150130635D01*
X124470230Y-150144801D01*
X124534998Y-150150468D01*
X124535000Y-150150468D01*
X124535002Y-150150468D01*
X124591673Y-150145509D01*
X124761692Y-150130635D01*
X124981496Y-150071739D01*
X125187734Y-149975568D01*
X125374139Y-149845047D01*
X125535047Y-149684139D01*
X125665568Y-149497734D01*
X125692618Y-149439724D01*
X125738790Y-149387285D01*
X125805983Y-149368133D01*
X125872865Y-149388348D01*
X125917382Y-149439725D01*
X125944429Y-149497728D01*
X125944432Y-149497734D01*
X126074954Y-149684141D01*
X126235858Y-149845045D01*
X126235861Y-149845047D01*
X126422266Y-149975568D01*
X126628504Y-150071739D01*
X126848308Y-150130635D01*
X127010230Y-150144801D01*
X127074998Y-150150468D01*
X127075000Y-150150468D01*
X127075002Y-150150468D01*
X127131673Y-150145509D01*
X127301692Y-150130635D01*
X127521496Y-150071739D01*
X127727734Y-149975568D01*
X127914139Y-149845047D01*
X128075047Y-149684139D01*
X128205568Y-149497734D01*
X128232619Y-149439721D01*
X128278788Y-149387286D01*
X128345981Y-149368133D01*
X128412862Y-149388348D01*
X128457380Y-149439722D01*
X128484432Y-149497734D01*
X128540316Y-149577546D01*
X128614954Y-149684141D01*
X128775858Y-149845045D01*
X128775861Y-149845047D01*
X128962266Y-149975568D01*
X129168504Y-150071739D01*
X129388308Y-150130635D01*
X129550230Y-150144801D01*
X129614998Y-150150468D01*
X129615000Y-150150468D01*
X129615002Y-150150468D01*
X129671672Y-150145509D01*
X129841692Y-150130635D01*
X130061496Y-150071739D01*
X130267734Y-149975568D01*
X130454139Y-149845047D01*
X130615047Y-149684139D01*
X130745568Y-149497734D01*
X130772619Y-149439721D01*
X130818788Y-149387286D01*
X130885981Y-149368133D01*
X130952862Y-149388348D01*
X130997380Y-149439722D01*
X131024432Y-149497734D01*
X131080316Y-149577546D01*
X131154954Y-149684141D01*
X131315858Y-149845045D01*
X131315861Y-149845047D01*
X131502266Y-149975568D01*
X131708504Y-150071739D01*
X131928308Y-150130635D01*
X132090230Y-150144801D01*
X132154998Y-150150468D01*
X132155000Y-150150468D01*
X132155002Y-150150468D01*
X132211672Y-150145509D01*
X132381692Y-150130635D01*
X132601496Y-150071739D01*
X132807734Y-149975568D01*
X132994139Y-149845047D01*
X133155047Y-149684139D01*
X133285568Y-149497734D01*
X133312619Y-149439721D01*
X133358788Y-149387286D01*
X133425981Y-149368133D01*
X133492862Y-149388348D01*
X133537380Y-149439722D01*
X133564432Y-149497734D01*
X133620317Y-149577546D01*
X133694954Y-149684141D01*
X133855858Y-149845045D01*
X133855861Y-149845047D01*
X134042266Y-149975568D01*
X134248504Y-150071739D01*
X134468308Y-150130635D01*
X134630230Y-150144801D01*
X134694998Y-150150468D01*
X134695000Y-150150468D01*
X134695002Y-150150468D01*
X134751673Y-150145509D01*
X134921692Y-150130635D01*
X135141496Y-150071739D01*
X135347734Y-149975568D01*
X135534139Y-149845047D01*
X135695047Y-149684139D01*
X135825568Y-149497734D01*
X135852618Y-149439724D01*
X135898790Y-149387285D01*
X135965983Y-149368133D01*
X136032865Y-149388348D01*
X136077382Y-149439725D01*
X136104429Y-149497728D01*
X136104432Y-149497734D01*
X136234954Y-149684141D01*
X136395858Y-149845045D01*
X136395861Y-149845047D01*
X136582266Y-149975568D01*
X136788504Y-150071739D01*
X137008308Y-150130635D01*
X137170230Y-150144801D01*
X137234998Y-150150468D01*
X137235000Y-150150468D01*
X137235002Y-150150468D01*
X137291673Y-150145509D01*
X137461692Y-150130635D01*
X137681496Y-150071739D01*
X137887734Y-149975568D01*
X138074139Y-149845047D01*
X138235047Y-149684139D01*
X138365568Y-149497734D01*
X138392618Y-149439724D01*
X138438790Y-149387285D01*
X138505983Y-149368133D01*
X138572865Y-149388348D01*
X138617382Y-149439725D01*
X138644429Y-149497728D01*
X138644432Y-149497734D01*
X138774954Y-149684141D01*
X138935858Y-149845045D01*
X138935861Y-149845047D01*
X139122266Y-149975568D01*
X139328504Y-150071739D01*
X139548308Y-150130635D01*
X139710230Y-150144801D01*
X139774998Y-150150468D01*
X139775000Y-150150468D01*
X139775002Y-150150468D01*
X139831672Y-150145509D01*
X140001692Y-150130635D01*
X140221496Y-150071739D01*
X140427734Y-149975568D01*
X140614139Y-149845047D01*
X140709185Y-149750001D01*
X143654532Y-149750001D01*
X143674364Y-149976686D01*
X143674366Y-149976697D01*
X143733258Y-150196488D01*
X143733261Y-150196497D01*
X143829431Y-150402732D01*
X143829432Y-150402734D01*
X143959954Y-150589141D01*
X144120858Y-150750045D01*
X144120861Y-150750047D01*
X144307266Y-150880568D01*
X144513504Y-150976739D01*
X144733308Y-151035635D01*
X144895230Y-151049801D01*
X144959998Y-151055468D01*
X144960000Y-151055468D01*
X144960002Y-151055468D01*
X145016673Y-151050509D01*
X145186692Y-151035635D01*
X145406496Y-150976739D01*
X145612734Y-150880568D01*
X145799139Y-150750047D01*
X145960047Y-150589139D01*
X146090568Y-150402734D01*
X146186739Y-150196496D01*
X146245635Y-149976692D01*
X146265468Y-149750000D01*
X146262726Y-149718664D01*
X146245635Y-149523313D01*
X146245635Y-149523308D01*
X146186739Y-149303504D01*
X146090568Y-149097266D01*
X145960047Y-148910861D01*
X145960045Y-148910858D01*
X145799141Y-148749954D01*
X145612734Y-148619432D01*
X145612730Y-148619430D01*
X145597022Y-148612105D01*
X145544583Y-148565931D01*
X145525433Y-148498737D01*
X145545650Y-148431857D01*
X145597028Y-148387340D01*
X145612481Y-148380134D01*
X145685472Y-148329025D01*
X145143866Y-147787419D01*
X145110381Y-147726096D01*
X145115365Y-147656404D01*
X145157237Y-147600471D01*
X145175245Y-147589258D01*
X145198045Y-147577641D01*
X145287641Y-147488045D01*
X145299254Y-147465252D01*
X145347225Y-147414458D01*
X145415046Y-147397661D01*
X145481181Y-147420197D01*
X145497419Y-147433866D01*
X146039025Y-147975472D01*
X146090136Y-147902478D01*
X146186264Y-147696331D01*
X146186269Y-147696317D01*
X146245139Y-147476610D01*
X146245141Y-147476599D01*
X146264966Y-147250002D01*
X146264966Y-147249997D01*
X146245141Y-147023400D01*
X146245139Y-147023389D01*
X146186269Y-146803682D01*
X146186265Y-146803673D01*
X146090133Y-146597516D01*
X146090131Y-146597512D01*
X146039026Y-146524526D01*
X146039025Y-146524526D01*
X145497419Y-147066132D01*
X145436096Y-147099617D01*
X145366404Y-147094633D01*
X145310471Y-147052761D01*
X145299256Y-147034751D01*
X145287641Y-147011955D01*
X145287637Y-147011951D01*
X145287636Y-147011949D01*
X145198050Y-146922363D01*
X145198044Y-146922358D01*
X145188109Y-146917296D01*
X145175250Y-146910744D01*
X145124456Y-146862773D01*
X145107660Y-146794952D01*
X145130197Y-146728817D01*
X145143865Y-146712580D01*
X145685472Y-146170973D01*
X145612483Y-146119866D01*
X145612481Y-146119865D01*
X145406326Y-146023734D01*
X145406317Y-146023730D01*
X145186610Y-145964860D01*
X145186599Y-145964858D01*
X144960002Y-145945034D01*
X144959998Y-145945034D01*
X144733400Y-145964858D01*
X144733389Y-145964860D01*
X144513682Y-146023730D01*
X144513673Y-146023734D01*
X144307513Y-146119868D01*
X144234526Y-146170973D01*
X144776133Y-146712580D01*
X144809618Y-146773903D01*
X144804634Y-146843595D01*
X144762762Y-146899528D01*
X144744748Y-146910745D01*
X144721956Y-146922358D01*
X144721949Y-146922363D01*
X144632363Y-147011949D01*
X144632358Y-147011956D01*
X144620745Y-147034748D01*
X144572770Y-147085544D01*
X144504949Y-147102338D01*
X144438814Y-147079800D01*
X144422580Y-147066133D01*
X143880973Y-146524526D01*
X143829868Y-146597513D01*
X143733734Y-146803673D01*
X143733730Y-146803682D01*
X143674860Y-147023389D01*
X143674858Y-147023400D01*
X143655034Y-147249997D01*
X143655034Y-147250002D01*
X143674858Y-147476599D01*
X143674860Y-147476610D01*
X143733730Y-147696317D01*
X143733734Y-147696326D01*
X143829865Y-147902481D01*
X143829866Y-147902483D01*
X143880973Y-147975471D01*
X143880973Y-147975472D01*
X144422580Y-147433865D01*
X144483903Y-147400380D01*
X144553594Y-147405364D01*
X144609528Y-147447235D01*
X144620742Y-147465246D01*
X144626527Y-147476599D01*
X144632358Y-147488044D01*
X144632363Y-147488050D01*
X144721949Y-147577636D01*
X144721951Y-147577637D01*
X144721955Y-147577641D01*
X144744747Y-147589254D01*
X144795542Y-147637228D01*
X144812337Y-147705049D01*
X144789799Y-147771184D01*
X144776132Y-147787419D01*
X144234526Y-148329025D01*
X144234526Y-148329026D01*
X144307512Y-148380131D01*
X144307515Y-148380132D01*
X144322974Y-148387341D01*
X144375414Y-148433513D01*
X144394567Y-148500706D01*
X144374352Y-148567587D01*
X144322978Y-148612105D01*
X144307269Y-148619430D01*
X144307265Y-148619432D01*
X144120858Y-148749954D01*
X143959954Y-148910858D01*
X143829432Y-149097265D01*
X143829431Y-149097267D01*
X143733261Y-149303502D01*
X143733258Y-149303511D01*
X143674366Y-149523302D01*
X143674364Y-149523313D01*
X143654532Y-149749998D01*
X143654532Y-149750001D01*
X140709185Y-149750001D01*
X140775047Y-149684139D01*
X140905568Y-149497734D01*
X141001739Y-149291496D01*
X141060635Y-149071692D01*
X141080468Y-148845000D01*
X141060635Y-148618308D01*
X141001739Y-148398504D01*
X140905568Y-148192266D01*
X140775047Y-148005861D01*
X140775045Y-148005858D01*
X140614141Y-147844954D01*
X140427734Y-147714432D01*
X140427732Y-147714431D01*
X140221497Y-147618261D01*
X140221488Y-147618258D01*
X140001697Y-147559366D01*
X140001693Y-147559365D01*
X140001692Y-147559365D01*
X140001691Y-147559364D01*
X140001686Y-147559364D01*
X139775002Y-147539532D01*
X139774998Y-147539532D01*
X139548313Y-147559364D01*
X139548302Y-147559366D01*
X139328511Y-147618258D01*
X139328502Y-147618261D01*
X139122267Y-147714431D01*
X139122265Y-147714432D01*
X138935858Y-147844954D01*
X138774954Y-148005858D01*
X138644432Y-148192265D01*
X138644431Y-148192267D01*
X138617382Y-148250275D01*
X138571209Y-148302714D01*
X138504016Y-148321866D01*
X138437135Y-148301650D01*
X138392618Y-148250275D01*
X138365568Y-148192267D01*
X138365567Y-148192265D01*
X138344845Y-148162671D01*
X138235047Y-148005861D01*
X138235045Y-148005858D01*
X138074141Y-147844954D01*
X137887734Y-147714432D01*
X137887732Y-147714431D01*
X137681497Y-147618261D01*
X137681488Y-147618258D01*
X137461697Y-147559366D01*
X137461693Y-147559365D01*
X137461692Y-147559365D01*
X137461691Y-147559364D01*
X137461686Y-147559364D01*
X137235002Y-147539532D01*
X137234998Y-147539532D01*
X137008313Y-147559364D01*
X137008302Y-147559366D01*
X136788511Y-147618258D01*
X136788502Y-147618261D01*
X136582267Y-147714431D01*
X136582265Y-147714432D01*
X136395858Y-147844954D01*
X136234954Y-148005858D01*
X136104432Y-148192265D01*
X136104431Y-148192267D01*
X136077382Y-148250275D01*
X136031209Y-148302714D01*
X135964016Y-148321866D01*
X135897135Y-148301650D01*
X135852618Y-148250275D01*
X135825568Y-148192267D01*
X135825567Y-148192265D01*
X135804845Y-148162671D01*
X135695047Y-148005861D01*
X135695045Y-148005858D01*
X135534141Y-147844954D01*
X135347734Y-147714432D01*
X135347732Y-147714431D01*
X135141497Y-147618261D01*
X135141488Y-147618258D01*
X134921697Y-147559366D01*
X134921693Y-147559365D01*
X134921692Y-147559365D01*
X134921691Y-147559364D01*
X134921686Y-147559364D01*
X134695002Y-147539532D01*
X134694998Y-147539532D01*
X134468313Y-147559364D01*
X134468302Y-147559366D01*
X134248511Y-147618258D01*
X134248502Y-147618261D01*
X134042267Y-147714431D01*
X134042265Y-147714432D01*
X133855858Y-147844954D01*
X133694954Y-148005858D01*
X133564432Y-148192265D01*
X133564431Y-148192267D01*
X133537382Y-148250275D01*
X133491209Y-148302714D01*
X133424016Y-148321866D01*
X133357135Y-148301650D01*
X133312618Y-148250275D01*
X133285568Y-148192267D01*
X133285567Y-148192265D01*
X133264845Y-148162671D01*
X133155047Y-148005861D01*
X133155045Y-148005858D01*
X132994141Y-147844954D01*
X132807734Y-147714432D01*
X132807732Y-147714431D01*
X132601497Y-147618261D01*
X132601488Y-147618258D01*
X132381697Y-147559366D01*
X132381693Y-147559365D01*
X132381692Y-147559365D01*
X132381691Y-147559364D01*
X132381686Y-147559364D01*
X132155002Y-147539532D01*
X132154998Y-147539532D01*
X131928313Y-147559364D01*
X131928302Y-147559366D01*
X131708511Y-147618258D01*
X131708502Y-147618261D01*
X131502267Y-147714431D01*
X131502265Y-147714432D01*
X131315858Y-147844954D01*
X131154954Y-148005858D01*
X131024432Y-148192265D01*
X131024431Y-148192267D01*
X130997382Y-148250275D01*
X130951209Y-148302714D01*
X130884016Y-148321866D01*
X130817135Y-148301650D01*
X130772618Y-148250275D01*
X130745568Y-148192267D01*
X130745567Y-148192265D01*
X130724845Y-148162671D01*
X130615047Y-148005861D01*
X130615045Y-148005858D01*
X130454141Y-147844954D01*
X130267734Y-147714432D01*
X130267732Y-147714431D01*
X130061497Y-147618261D01*
X130061488Y-147618258D01*
X129841697Y-147559366D01*
X129841693Y-147559365D01*
X129841692Y-147559365D01*
X129841691Y-147559364D01*
X129841686Y-147559364D01*
X129615002Y-147539532D01*
X129614998Y-147539532D01*
X129388313Y-147559364D01*
X129388302Y-147559366D01*
X129168511Y-147618258D01*
X129168502Y-147618261D01*
X128962267Y-147714431D01*
X128962265Y-147714432D01*
X128775858Y-147844954D01*
X128614954Y-148005858D01*
X128484432Y-148192265D01*
X128484431Y-148192267D01*
X128457382Y-148250275D01*
X128411209Y-148302714D01*
X128344016Y-148321866D01*
X128277135Y-148301650D01*
X128232618Y-148250275D01*
X128205568Y-148192267D01*
X128205567Y-148192265D01*
X128184845Y-148162671D01*
X128075047Y-148005861D01*
X128075045Y-148005858D01*
X127914141Y-147844954D01*
X127727734Y-147714432D01*
X127727732Y-147714431D01*
X127521497Y-147618261D01*
X127521488Y-147618258D01*
X127301697Y-147559366D01*
X127301693Y-147559365D01*
X127301692Y-147559365D01*
X127301691Y-147559364D01*
X127301686Y-147559364D01*
X127075002Y-147539532D01*
X127074998Y-147539532D01*
X126848313Y-147559364D01*
X126848302Y-147559366D01*
X126628511Y-147618258D01*
X126628502Y-147618261D01*
X126422267Y-147714431D01*
X126422265Y-147714432D01*
X126235858Y-147844954D01*
X126074954Y-148005858D01*
X125944432Y-148192265D01*
X125944431Y-148192267D01*
X125917382Y-148250275D01*
X125871209Y-148302714D01*
X125804016Y-148321866D01*
X125737135Y-148301650D01*
X125692618Y-148250275D01*
X125665568Y-148192267D01*
X125665567Y-148192265D01*
X125644845Y-148162671D01*
X125535047Y-148005861D01*
X125535045Y-148005858D01*
X125374141Y-147844954D01*
X125187734Y-147714432D01*
X125187732Y-147714431D01*
X124981497Y-147618261D01*
X124981488Y-147618258D01*
X124761697Y-147559366D01*
X124761693Y-147559365D01*
X124761692Y-147559365D01*
X124761691Y-147559364D01*
X124761686Y-147559364D01*
X124535002Y-147539532D01*
X124534998Y-147539532D01*
X124308313Y-147559364D01*
X124308302Y-147559366D01*
X124088511Y-147618258D01*
X124088502Y-147618261D01*
X123882267Y-147714431D01*
X123882265Y-147714432D01*
X123695858Y-147844954D01*
X123534954Y-148005858D01*
X123404432Y-148192265D01*
X123404431Y-148192267D01*
X123377382Y-148250275D01*
X123331209Y-148302714D01*
X123264016Y-148321866D01*
X123197135Y-148301650D01*
X123152618Y-148250275D01*
X123125568Y-148192267D01*
X123125567Y-148192265D01*
X123104845Y-148162671D01*
X122995047Y-148005861D01*
X122995045Y-148005858D01*
X122834141Y-147844954D01*
X122647734Y-147714432D01*
X122647732Y-147714431D01*
X122441497Y-147618261D01*
X122441488Y-147618258D01*
X122221697Y-147559366D01*
X122221693Y-147559365D01*
X122221692Y-147559365D01*
X122221691Y-147559364D01*
X122221686Y-147559364D01*
X121995002Y-147539532D01*
X121994998Y-147539532D01*
X121768313Y-147559364D01*
X121768302Y-147559366D01*
X121548511Y-147618258D01*
X121548502Y-147618261D01*
X121342267Y-147714431D01*
X121342265Y-147714432D01*
X121155858Y-147844954D01*
X120994954Y-148005858D01*
X120864432Y-148192265D01*
X120864431Y-148192267D01*
X120768261Y-148398502D01*
X120768258Y-148398511D01*
X120709366Y-148618302D01*
X120709364Y-148618313D01*
X120689532Y-148844998D01*
X120689532Y-148845001D01*
X116049824Y-148845001D01*
X116049824Y-143672870D01*
X148859500Y-143672870D01*
X148859501Y-143672876D01*
X148865908Y-143732483D01*
X148916202Y-143867328D01*
X148916206Y-143867335D01*
X149002452Y-143982544D01*
X149002455Y-143982547D01*
X149117664Y-144068793D01*
X149117671Y-144068797D01*
X149252517Y-144119091D01*
X149252516Y-144119091D01*
X149259444Y-144119835D01*
X149312127Y-144125500D01*
X151007872Y-144125499D01*
X151067483Y-144119091D01*
X151202331Y-144068796D01*
X151317546Y-143982546D01*
X151403796Y-143867331D01*
X151454091Y-143732483D01*
X151460500Y-143672873D01*
X151460499Y-143672845D01*
X151460678Y-143669547D01*
X151462183Y-143669627D01*
X151480112Y-143608326D01*
X151532868Y-143562514D01*
X151576464Y-143554981D01*
X152122580Y-143008865D01*
X152183903Y-142975380D01*
X152253594Y-142980364D01*
X152309528Y-143022235D01*
X152320742Y-143040246D01*
X152326527Y-143051599D01*
X152332358Y-143063044D01*
X152332363Y-143063050D01*
X152421949Y-143152636D01*
X152421951Y-143152637D01*
X152421955Y-143152641D01*
X152444747Y-143164254D01*
X152495542Y-143212228D01*
X152512337Y-143280049D01*
X152489799Y-143346184D01*
X152476132Y-143362419D01*
X151934526Y-143904025D01*
X151934526Y-143904026D01*
X152007512Y-143955131D01*
X152007516Y-143955133D01*
X152213673Y-144051265D01*
X152213682Y-144051269D01*
X152433389Y-144110139D01*
X152433400Y-144110141D01*
X152659998Y-144129966D01*
X152660002Y-144129966D01*
X152886599Y-144110141D01*
X152886610Y-144110139D01*
X153106317Y-144051269D01*
X153106331Y-144051264D01*
X153312478Y-143955136D01*
X153385472Y-143904025D01*
X152843866Y-143362419D01*
X152810381Y-143301096D01*
X152815365Y-143231404D01*
X152857237Y-143175471D01*
X152875245Y-143164258D01*
X152898045Y-143152641D01*
X152987641Y-143063045D01*
X152999254Y-143040252D01*
X153047225Y-142989458D01*
X153115046Y-142972661D01*
X153181181Y-142995197D01*
X153197419Y-143008866D01*
X153739025Y-143550472D01*
X153790136Y-143477478D01*
X153886264Y-143271331D01*
X153886269Y-143271317D01*
X153945139Y-143051610D01*
X153945141Y-143051599D01*
X153964966Y-142825002D01*
X153964966Y-142824997D01*
X153945141Y-142598400D01*
X153945139Y-142598389D01*
X153886269Y-142378682D01*
X153886265Y-142378673D01*
X153790133Y-142172516D01*
X153790131Y-142172512D01*
X153739026Y-142099526D01*
X153739025Y-142099526D01*
X153197419Y-142641132D01*
X153136096Y-142674617D01*
X153066404Y-142669633D01*
X153010471Y-142627761D01*
X152999256Y-142609751D01*
X152987641Y-142586955D01*
X152987637Y-142586951D01*
X152987636Y-142586949D01*
X152898050Y-142497363D01*
X152898044Y-142497358D01*
X152888109Y-142492296D01*
X152875250Y-142485744D01*
X152824456Y-142437773D01*
X152807660Y-142369952D01*
X152830197Y-142303817D01*
X152843865Y-142287580D01*
X153385472Y-141745973D01*
X153312483Y-141694866D01*
X153312481Y-141694865D01*
X153106326Y-141598734D01*
X153106317Y-141598730D01*
X152886610Y-141539860D01*
X152886599Y-141539858D01*
X152660002Y-141520034D01*
X152659998Y-141520034D01*
X152433400Y-141539858D01*
X152433389Y-141539860D01*
X152213682Y-141598730D01*
X152213673Y-141598734D01*
X152007513Y-141694868D01*
X151934526Y-141745973D01*
X152476133Y-142287580D01*
X152509618Y-142348903D01*
X152504634Y-142418595D01*
X152462762Y-142474528D01*
X152444748Y-142485745D01*
X152421956Y-142497358D01*
X152421949Y-142497363D01*
X152332363Y-142586949D01*
X152332358Y-142586956D01*
X152320745Y-142609748D01*
X152272770Y-142660544D01*
X152204949Y-142677338D01*
X152138814Y-142654800D01*
X152122580Y-142641133D01*
X151575797Y-142094351D01*
X151526805Y-142084505D01*
X151476623Y-142035889D01*
X151461981Y-141980366D01*
X151460900Y-141980423D01*
X151460854Y-141980429D01*
X151460853Y-141980426D01*
X151460676Y-141980436D01*
X151460499Y-141977135D01*
X151460499Y-141977128D01*
X151454091Y-141917517D01*
X151441492Y-141883738D01*
X151403797Y-141782671D01*
X151403793Y-141782664D01*
X151317547Y-141667455D01*
X151317544Y-141667452D01*
X151202335Y-141581206D01*
X151202328Y-141581202D01*
X151067482Y-141530908D01*
X151067483Y-141530908D01*
X151007883Y-141524501D01*
X151007881Y-141524500D01*
X151007873Y-141524500D01*
X151007864Y-141524500D01*
X149312129Y-141524500D01*
X149312123Y-141524501D01*
X149252516Y-141530908D01*
X149117671Y-141581202D01*
X149117664Y-141581206D01*
X149002455Y-141667452D01*
X149002452Y-141667455D01*
X148916206Y-141782664D01*
X148916202Y-141782671D01*
X148865908Y-141917517D01*
X148860718Y-141965798D01*
X148859501Y-141977123D01*
X148859500Y-141977135D01*
X148859500Y-143672870D01*
X116049824Y-143672870D01*
X116049824Y-140974999D01*
X120716127Y-140974999D01*
X120716128Y-140975000D01*
X121484424Y-140975000D01*
X121551463Y-140994685D01*
X121597218Y-141047489D01*
X121607162Y-141116647D01*
X121606897Y-141118397D01*
X121590014Y-141224996D01*
X121590014Y-141225003D01*
X121606897Y-141331603D01*
X121597942Y-141400896D01*
X121552946Y-141454348D01*
X121486194Y-141474987D01*
X121484424Y-141475000D01*
X120716128Y-141475000D01*
X120768730Y-141671317D01*
X120768734Y-141671326D01*
X120864865Y-141877482D01*
X120995342Y-142063820D01*
X121156179Y-142224657D01*
X121342517Y-142355134D01*
X121548673Y-142451265D01*
X121548679Y-142451268D01*
X121744998Y-142503871D01*
X121744999Y-142503871D01*
X121744999Y-141735575D01*
X121764684Y-141668536D01*
X121817488Y-141622781D01*
X121886646Y-141612837D01*
X121888353Y-141613095D01*
X121913583Y-141617091D01*
X121963515Y-141625000D01*
X121963519Y-141625000D01*
X122026485Y-141625000D01*
X122069300Y-141618218D01*
X122101602Y-141613102D01*
X122170894Y-141622056D01*
X122224347Y-141667052D01*
X122244987Y-141733803D01*
X122245000Y-141735575D01*
X122245000Y-142503872D01*
X122441317Y-142451269D01*
X122441326Y-142451265D01*
X122647482Y-142355134D01*
X122833820Y-142224657D01*
X122994657Y-142063820D01*
X123125132Y-141877484D01*
X123152341Y-141819134D01*
X123198513Y-141766695D01*
X123265707Y-141747542D01*
X123332588Y-141767757D01*
X123377106Y-141819133D01*
X123404431Y-141877732D01*
X123404432Y-141877734D01*
X123534954Y-142064141D01*
X123695858Y-142225045D01*
X123695861Y-142225047D01*
X123882266Y-142355568D01*
X124088504Y-142451739D01*
X124308308Y-142510635D01*
X124470230Y-142524801D01*
X124534998Y-142530468D01*
X124535000Y-142530468D01*
X124535002Y-142530468D01*
X124591807Y-142525498D01*
X124761692Y-142510635D01*
X124981496Y-142451739D01*
X125187734Y-142355568D01*
X125374139Y-142225047D01*
X125535047Y-142064139D01*
X125665568Y-141877734D01*
X125692618Y-141819724D01*
X125738790Y-141767285D01*
X125805983Y-141748133D01*
X125872865Y-141768348D01*
X125917382Y-141819725D01*
X125944429Y-141877728D01*
X125944432Y-141877734D01*
X126074954Y-142064141D01*
X126235858Y-142225045D01*
X126235861Y-142225047D01*
X126422266Y-142355568D01*
X126628504Y-142451739D01*
X126848308Y-142510635D01*
X127010230Y-142524801D01*
X127074998Y-142530468D01*
X127075000Y-142530468D01*
X127075002Y-142530468D01*
X127131807Y-142525498D01*
X127301692Y-142510635D01*
X127521496Y-142451739D01*
X127727734Y-142355568D01*
X127914139Y-142225047D01*
X128075047Y-142064139D01*
X128205568Y-141877734D01*
X128232618Y-141819724D01*
X128278790Y-141767285D01*
X128345983Y-141748133D01*
X128412865Y-141768348D01*
X128457382Y-141819725D01*
X128484429Y-141877728D01*
X128484432Y-141877734D01*
X128614954Y-142064141D01*
X128775858Y-142225045D01*
X128775861Y-142225047D01*
X128962266Y-142355568D01*
X129168504Y-142451739D01*
X129388308Y-142510635D01*
X129550230Y-142524801D01*
X129614998Y-142530468D01*
X129615000Y-142530468D01*
X129615002Y-142530468D01*
X129671807Y-142525498D01*
X129841692Y-142510635D01*
X130061496Y-142451739D01*
X130267734Y-142355568D01*
X130454139Y-142225047D01*
X130615047Y-142064139D01*
X130745568Y-141877734D01*
X130772618Y-141819724D01*
X130818790Y-141767285D01*
X130885983Y-141748133D01*
X130952865Y-141768348D01*
X130997382Y-141819725D01*
X131024429Y-141877728D01*
X131024432Y-141877734D01*
X131154954Y-142064141D01*
X131315858Y-142225045D01*
X131315861Y-142225047D01*
X131502266Y-142355568D01*
X131708504Y-142451739D01*
X131928308Y-142510635D01*
X132090230Y-142524801D01*
X132154998Y-142530468D01*
X132155000Y-142530468D01*
X132155002Y-142530468D01*
X132211807Y-142525498D01*
X132381692Y-142510635D01*
X132601496Y-142451739D01*
X132807734Y-142355568D01*
X132994139Y-142225047D01*
X133155047Y-142064139D01*
X133285568Y-141877734D01*
X133312618Y-141819724D01*
X133358790Y-141767285D01*
X133425983Y-141748133D01*
X133492865Y-141768348D01*
X133537382Y-141819725D01*
X133564429Y-141877728D01*
X133564432Y-141877734D01*
X133694954Y-142064141D01*
X133855858Y-142225045D01*
X133855861Y-142225047D01*
X134042266Y-142355568D01*
X134248504Y-142451739D01*
X134468308Y-142510635D01*
X134630230Y-142524801D01*
X134694998Y-142530468D01*
X134695000Y-142530468D01*
X134695002Y-142530468D01*
X134751807Y-142525498D01*
X134921692Y-142510635D01*
X135141496Y-142451739D01*
X135347734Y-142355568D01*
X135534139Y-142225047D01*
X135695047Y-142064139D01*
X135825568Y-141877734D01*
X135852618Y-141819724D01*
X135898790Y-141767285D01*
X135965983Y-141748133D01*
X136032865Y-141768348D01*
X136077382Y-141819725D01*
X136104429Y-141877728D01*
X136104432Y-141877734D01*
X136234954Y-142064141D01*
X136395858Y-142225045D01*
X136395861Y-142225047D01*
X136582266Y-142355568D01*
X136788504Y-142451739D01*
X137008308Y-142510635D01*
X137170230Y-142524801D01*
X137234998Y-142530468D01*
X137235000Y-142530468D01*
X137235002Y-142530468D01*
X137291807Y-142525498D01*
X137461692Y-142510635D01*
X137681496Y-142451739D01*
X137887734Y-142355568D01*
X138074139Y-142225047D01*
X138235047Y-142064139D01*
X138252271Y-142039539D01*
X138306848Y-141995913D01*
X138376346Y-141988718D01*
X138438701Y-142020239D01*
X138474116Y-142080468D01*
X138477138Y-142097406D01*
X138480908Y-142132483D01*
X138531202Y-142267328D01*
X138531206Y-142267335D01*
X138617452Y-142382544D01*
X138617455Y-142382547D01*
X138732664Y-142468793D01*
X138732671Y-142468797D01*
X138867517Y-142519091D01*
X138867516Y-142519091D01*
X138874444Y-142519835D01*
X138927127Y-142525500D01*
X140622872Y-142525499D01*
X140682483Y-142519091D01*
X140817331Y-142468796D01*
X140932546Y-142382546D01*
X141018796Y-142267331D01*
X141069091Y-142132483D01*
X141075500Y-142072873D01*
X141075499Y-140377128D01*
X141069091Y-140317517D01*
X141051008Y-140269035D01*
X141018797Y-140182671D01*
X141018793Y-140182664D01*
X140932547Y-140067455D01*
X140932544Y-140067452D01*
X140817335Y-139981206D01*
X140817328Y-139981202D01*
X140682482Y-139930908D01*
X140682483Y-139930908D01*
X140622883Y-139924501D01*
X140622881Y-139924500D01*
X140622873Y-139924500D01*
X140622864Y-139924500D01*
X138927129Y-139924500D01*
X138927123Y-139924501D01*
X138867516Y-139930908D01*
X138732671Y-139981202D01*
X138732664Y-139981206D01*
X138617455Y-140067452D01*
X138617452Y-140067455D01*
X138531206Y-140182664D01*
X138531202Y-140182671D01*
X138480908Y-140317516D01*
X138477137Y-140352596D01*
X138450398Y-140417146D01*
X138393006Y-140456994D01*
X138323180Y-140459487D01*
X138263092Y-140423834D01*
X138252273Y-140410462D01*
X138235045Y-140385858D01*
X138074141Y-140224954D01*
X137887734Y-140094432D01*
X137887732Y-140094431D01*
X137681497Y-139998261D01*
X137681488Y-139998258D01*
X137461697Y-139939366D01*
X137461693Y-139939365D01*
X137461692Y-139939365D01*
X137461691Y-139939364D01*
X137461686Y-139939364D01*
X137235002Y-139919532D01*
X137234998Y-139919532D01*
X137008313Y-139939364D01*
X137008302Y-139939366D01*
X136788511Y-139998258D01*
X136788502Y-139998261D01*
X136582267Y-140094431D01*
X136582265Y-140094432D01*
X136395858Y-140224954D01*
X136234954Y-140385858D01*
X136104432Y-140572265D01*
X136104431Y-140572267D01*
X136077382Y-140630275D01*
X136031209Y-140682714D01*
X135964016Y-140701866D01*
X135897135Y-140681650D01*
X135852618Y-140630275D01*
X135825686Y-140572520D01*
X135825568Y-140572266D01*
X135695047Y-140385861D01*
X135695045Y-140385858D01*
X135534141Y-140224954D01*
X135347734Y-140094432D01*
X135347732Y-140094431D01*
X135141497Y-139998261D01*
X135141488Y-139998258D01*
X134921697Y-139939366D01*
X134921693Y-139939365D01*
X134921692Y-139939365D01*
X134921691Y-139939364D01*
X134921686Y-139939364D01*
X134695002Y-139919532D01*
X134694998Y-139919532D01*
X134468313Y-139939364D01*
X134468302Y-139939366D01*
X134248511Y-139998258D01*
X134248502Y-139998261D01*
X134042267Y-140094431D01*
X134042265Y-140094432D01*
X133855858Y-140224954D01*
X133694954Y-140385858D01*
X133564432Y-140572265D01*
X133564430Y-140572268D01*
X133537380Y-140630277D01*
X133491207Y-140682715D01*
X133424013Y-140701866D01*
X133357132Y-140681649D01*
X133312619Y-140630277D01*
X133285568Y-140572266D01*
X133204855Y-140456994D01*
X133155045Y-140385858D01*
X132994141Y-140224954D01*
X132807734Y-140094432D01*
X132807732Y-140094431D01*
X132601497Y-139998261D01*
X132601488Y-139998258D01*
X132381697Y-139939366D01*
X132381693Y-139939365D01*
X132381692Y-139939365D01*
X132381691Y-139939364D01*
X132381686Y-139939364D01*
X132155002Y-139919532D01*
X132154998Y-139919532D01*
X131928313Y-139939364D01*
X131928302Y-139939366D01*
X131708511Y-139998258D01*
X131708502Y-139998261D01*
X131502267Y-140094431D01*
X131502265Y-140094432D01*
X131315858Y-140224954D01*
X131154954Y-140385858D01*
X131024432Y-140572265D01*
X131024430Y-140572268D01*
X130997380Y-140630277D01*
X130951207Y-140682715D01*
X130884013Y-140701866D01*
X130817132Y-140681649D01*
X130772619Y-140630277D01*
X130745568Y-140572266D01*
X130664855Y-140456994D01*
X130615045Y-140385858D01*
X130454141Y-140224954D01*
X130267734Y-140094432D01*
X130267732Y-140094431D01*
X130061497Y-139998261D01*
X130061488Y-139998258D01*
X129841697Y-139939366D01*
X129841693Y-139939365D01*
X129841692Y-139939365D01*
X129841691Y-139939364D01*
X129841686Y-139939364D01*
X129615002Y-139919532D01*
X129614998Y-139919532D01*
X129388313Y-139939364D01*
X129388302Y-139939366D01*
X129168511Y-139998258D01*
X129168502Y-139998261D01*
X128962267Y-140094431D01*
X128962265Y-140094432D01*
X128775858Y-140224954D01*
X128614954Y-140385858D01*
X128484432Y-140572265D01*
X128484430Y-140572268D01*
X128457380Y-140630277D01*
X128411207Y-140682715D01*
X128344013Y-140701866D01*
X128277132Y-140681649D01*
X128232619Y-140630277D01*
X128205568Y-140572266D01*
X128124855Y-140456994D01*
X128075045Y-140385858D01*
X127914141Y-140224954D01*
X127727734Y-140094432D01*
X127727732Y-140094431D01*
X127521497Y-139998261D01*
X127521488Y-139998258D01*
X127301697Y-139939366D01*
X127301693Y-139939365D01*
X127301692Y-139939365D01*
X127301691Y-139939364D01*
X127301686Y-139939364D01*
X127075002Y-139919532D01*
X127074998Y-139919532D01*
X126848313Y-139939364D01*
X126848302Y-139939366D01*
X126628511Y-139998258D01*
X126628502Y-139998261D01*
X126422267Y-140094431D01*
X126422265Y-140094432D01*
X126235858Y-140224954D01*
X126074954Y-140385858D01*
X125944432Y-140572265D01*
X125944430Y-140572268D01*
X125917380Y-140630277D01*
X125871207Y-140682715D01*
X125804013Y-140701866D01*
X125737132Y-140681649D01*
X125692619Y-140630277D01*
X125665568Y-140572266D01*
X125584855Y-140456994D01*
X125535045Y-140385858D01*
X125374141Y-140224954D01*
X125187734Y-140094432D01*
X125187732Y-140094431D01*
X124981497Y-139998261D01*
X124981488Y-139998258D01*
X124761697Y-139939366D01*
X124761693Y-139939365D01*
X124761692Y-139939365D01*
X124761691Y-139939364D01*
X124761686Y-139939364D01*
X124535002Y-139919532D01*
X124534998Y-139919532D01*
X124308313Y-139939364D01*
X124308302Y-139939366D01*
X124088511Y-139998258D01*
X124088502Y-139998261D01*
X123882267Y-140094431D01*
X123882265Y-140094432D01*
X123695858Y-140224954D01*
X123534954Y-140385858D01*
X123478223Y-140466880D01*
X123404432Y-140572266D01*
X123377383Y-140630274D01*
X123377106Y-140630867D01*
X123330933Y-140683306D01*
X123263739Y-140702457D01*
X123196858Y-140682241D01*
X123152342Y-140630865D01*
X123125135Y-140572520D01*
X123125134Y-140572518D01*
X122994657Y-140386179D01*
X122833820Y-140225342D01*
X122647482Y-140094865D01*
X122441328Y-139998734D01*
X122244999Y-139946127D01*
X122245000Y-140714424D01*
X122225315Y-140781463D01*
X122172511Y-140827218D01*
X122103353Y-140837162D01*
X122101602Y-140836897D01*
X122026486Y-140825000D01*
X122026481Y-140825000D01*
X121963519Y-140825000D01*
X121963512Y-140825000D01*
X121888396Y-140836897D01*
X121819103Y-140827942D01*
X121765651Y-140782946D01*
X121745012Y-140716194D01*
X121744999Y-140714424D01*
X121744999Y-139946127D01*
X121548672Y-139998734D01*
X121342517Y-140094865D01*
X121156179Y-140225342D01*
X120995342Y-140386179D01*
X120864865Y-140572517D01*
X120768734Y-140778673D01*
X120768730Y-140778682D01*
X120716127Y-140974999D01*
X116049824Y-140974999D01*
X116049824Y-139095000D01*
X156779341Y-139095000D01*
X156799936Y-139330403D01*
X156799938Y-139330413D01*
X156861094Y-139558655D01*
X156861096Y-139558659D01*
X156861097Y-139558663D01*
X156865000Y-139567032D01*
X156960965Y-139772830D01*
X156960967Y-139772834D01*
X157063687Y-139919532D01*
X157096501Y-139966396D01*
X157096506Y-139966402D01*
X157263597Y-140133493D01*
X157263603Y-140133498D01*
X157351403Y-140194976D01*
X157394214Y-140224953D01*
X157449594Y-140263730D01*
X157493219Y-140318307D01*
X157500413Y-140387805D01*
X157468890Y-140450160D01*
X157449595Y-140466880D01*
X157263922Y-140596890D01*
X157263920Y-140596891D01*
X157096891Y-140763920D01*
X157096886Y-140763926D01*
X156961400Y-140957420D01*
X156961399Y-140957422D01*
X156861570Y-141171507D01*
X156861567Y-141171513D01*
X156804364Y-141384999D01*
X156804364Y-141385000D01*
X157521653Y-141385000D01*
X157588692Y-141404685D01*
X157634447Y-141457489D01*
X157644391Y-141526647D01*
X157640631Y-141543933D01*
X157635000Y-141563111D01*
X157635000Y-141706888D01*
X157640631Y-141726067D01*
X157640630Y-141795936D01*
X157602855Y-141854714D01*
X157539299Y-141883738D01*
X157521653Y-141885000D01*
X156804364Y-141885000D01*
X156861567Y-142098486D01*
X156861570Y-142098492D01*
X156961399Y-142312578D01*
X157096894Y-142506082D01*
X157263917Y-142673105D01*
X157450031Y-142803425D01*
X157493656Y-142858003D01*
X157500848Y-142927501D01*
X157469326Y-142989856D01*
X157450031Y-143006575D01*
X157263922Y-143136890D01*
X157263920Y-143136891D01*
X157096891Y-143303920D01*
X157096886Y-143303926D01*
X156961400Y-143497420D01*
X156961399Y-143497422D01*
X156861570Y-143711507D01*
X156861567Y-143711513D01*
X156804364Y-143924999D01*
X156804364Y-143925000D01*
X157521653Y-143925000D01*
X157588692Y-143944685D01*
X157634447Y-143997489D01*
X157644391Y-144066647D01*
X157640631Y-144083933D01*
X157635000Y-144103111D01*
X157635000Y-144246888D01*
X157640631Y-144266067D01*
X157640630Y-144335936D01*
X157602855Y-144394714D01*
X157539299Y-144423738D01*
X157521653Y-144425000D01*
X156804364Y-144425000D01*
X156861567Y-144638486D01*
X156861570Y-144638492D01*
X156961399Y-144852578D01*
X157096894Y-145046082D01*
X157263917Y-145213105D01*
X157450031Y-145343425D01*
X157493656Y-145398003D01*
X157500848Y-145467501D01*
X157469326Y-145529856D01*
X157450031Y-145546575D01*
X157263922Y-145676890D01*
X157263920Y-145676891D01*
X157096891Y-145843920D01*
X157096886Y-145843926D01*
X156961400Y-146037420D01*
X156961399Y-146037422D01*
X156861570Y-146251507D01*
X156861567Y-146251513D01*
X156804364Y-146464999D01*
X156804364Y-146465000D01*
X157521653Y-146465000D01*
X157588692Y-146484685D01*
X157634447Y-146537489D01*
X157644391Y-146606647D01*
X157640631Y-146623933D01*
X157635000Y-146643111D01*
X157635000Y-146786889D01*
X157638856Y-146800022D01*
X157640631Y-146806067D01*
X157640630Y-146875936D01*
X157602855Y-146934714D01*
X157539299Y-146963738D01*
X157521653Y-146965000D01*
X156804364Y-146965000D01*
X156861567Y-147178486D01*
X156861570Y-147178492D01*
X156961399Y-147392578D01*
X157096894Y-147586082D01*
X157218946Y-147708134D01*
X157252431Y-147769457D01*
X157247447Y-147839149D01*
X157205575Y-147895082D01*
X157174598Y-147911997D01*
X157042671Y-147961202D01*
X157042664Y-147961206D01*
X156927455Y-148047452D01*
X156927452Y-148047455D01*
X156841206Y-148162664D01*
X156841202Y-148162671D01*
X156790908Y-148297517D01*
X156784501Y-148357116D01*
X156784500Y-148357135D01*
X156784500Y-150152870D01*
X156784501Y-150152876D01*
X156790908Y-150212483D01*
X156841202Y-150347328D01*
X156841206Y-150347335D01*
X156927452Y-150462544D01*
X156927455Y-150462547D01*
X157042664Y-150548793D01*
X157042671Y-150548797D01*
X157177517Y-150599091D01*
X157177516Y-150599091D01*
X157184444Y-150599835D01*
X157237127Y-150605500D01*
X159032872Y-150605499D01*
X159092483Y-150599091D01*
X159227331Y-150548796D01*
X159342546Y-150462546D01*
X159428796Y-150347331D01*
X159477810Y-150215916D01*
X159519681Y-150159984D01*
X159585145Y-150135566D01*
X159653418Y-150150417D01*
X159681672Y-150171569D01*
X159803599Y-150293495D01*
X159900384Y-150361265D01*
X159997165Y-150429032D01*
X159997167Y-150429033D01*
X159997170Y-150429035D01*
X160211337Y-150528903D01*
X160439592Y-150590063D01*
X160616034Y-150605500D01*
X160674999Y-150610659D01*
X160675000Y-150610659D01*
X160675001Y-150610659D01*
X160733966Y-150605500D01*
X160910408Y-150590063D01*
X161138663Y-150528903D01*
X161352830Y-150429035D01*
X161546401Y-150293495D01*
X161713495Y-150126401D01*
X161849035Y-149932830D01*
X161948903Y-149718663D01*
X162010063Y-149490408D01*
X162030659Y-149255000D01*
X162010063Y-149019592D01*
X161948903Y-148791337D01*
X161849035Y-148577171D01*
X161842325Y-148567587D01*
X161713494Y-148383597D01*
X161546402Y-148216506D01*
X161546401Y-148216505D01*
X161360405Y-148086269D01*
X161316781Y-148031692D01*
X161309588Y-147962193D01*
X161341110Y-147899839D01*
X161360405Y-147883119D01*
X161546082Y-147753105D01*
X161713105Y-147586082D01*
X161848600Y-147392578D01*
X161948429Y-147178492D01*
X161948432Y-147178486D01*
X162005636Y-146965000D01*
X161288347Y-146965000D01*
X161221308Y-146945315D01*
X161175553Y-146892511D01*
X161165609Y-146823353D01*
X161169369Y-146806067D01*
X161171143Y-146800022D01*
X161175000Y-146786889D01*
X161175000Y-146643111D01*
X161169368Y-146623933D01*
X161169370Y-146554064D01*
X161207145Y-146495286D01*
X161270701Y-146466262D01*
X161288347Y-146465000D01*
X162005636Y-146465000D01*
X162005635Y-146464999D01*
X161948432Y-146251513D01*
X161948429Y-146251507D01*
X161848600Y-146037422D01*
X161848599Y-146037420D01*
X161713113Y-145843926D01*
X161713108Y-145843920D01*
X161546082Y-145676894D01*
X161359968Y-145546575D01*
X161316344Y-145491998D01*
X161309151Y-145422499D01*
X161340673Y-145360145D01*
X161359968Y-145343425D01*
X161546082Y-145213105D01*
X161713105Y-145046082D01*
X161848600Y-144852578D01*
X161948429Y-144638492D01*
X161948432Y-144638486D01*
X162005636Y-144425000D01*
X161288347Y-144425000D01*
X161221308Y-144405315D01*
X161175553Y-144352511D01*
X161165609Y-144283353D01*
X161169369Y-144266067D01*
X161175000Y-144246888D01*
X161175000Y-144103111D01*
X161169369Y-144083933D01*
X161169370Y-144014064D01*
X161207145Y-143955286D01*
X161270701Y-143926262D01*
X161288347Y-143925000D01*
X162005636Y-143925000D01*
X162005635Y-143924999D01*
X161948432Y-143711513D01*
X161948429Y-143711507D01*
X161848600Y-143497422D01*
X161848599Y-143497420D01*
X161713113Y-143303926D01*
X161713108Y-143303920D01*
X161546082Y-143136894D01*
X161359968Y-143006575D01*
X161316344Y-142951998D01*
X161309151Y-142882499D01*
X161340673Y-142820145D01*
X161359968Y-142803425D01*
X161546082Y-142673105D01*
X161713105Y-142506082D01*
X161848600Y-142312578D01*
X161948429Y-142098492D01*
X161948432Y-142098486D01*
X162005636Y-141885000D01*
X161288347Y-141885000D01*
X161221308Y-141865315D01*
X161175553Y-141812511D01*
X161165609Y-141743353D01*
X161169369Y-141726067D01*
X161175000Y-141706888D01*
X161175000Y-141563111D01*
X161169369Y-141543933D01*
X161169370Y-141474064D01*
X161207145Y-141415286D01*
X161270701Y-141386262D01*
X161288347Y-141385000D01*
X162005636Y-141385000D01*
X162005635Y-141384999D01*
X161948432Y-141171513D01*
X161948429Y-141171507D01*
X161848600Y-140957422D01*
X161848599Y-140957420D01*
X161713113Y-140763926D01*
X161713108Y-140763920D01*
X161546078Y-140596890D01*
X161360405Y-140466879D01*
X161316780Y-140412302D01*
X161309588Y-140342804D01*
X161341110Y-140280449D01*
X161360406Y-140263730D01*
X161415784Y-140224954D01*
X161546401Y-140133495D01*
X161713495Y-139966401D01*
X161849035Y-139772830D01*
X161948903Y-139558663D01*
X162010063Y-139330408D01*
X162030659Y-139095000D01*
X162010063Y-138859592D01*
X161948903Y-138631337D01*
X161849035Y-138417171D01*
X161713495Y-138223599D01*
X161713494Y-138223597D01*
X161546402Y-138056506D01*
X161546396Y-138056501D01*
X161360842Y-137926575D01*
X161317217Y-137871998D01*
X161310023Y-137802500D01*
X161341546Y-137740145D01*
X161360842Y-137723425D01*
X161430001Y-137674999D01*
X161546401Y-137593495D01*
X161713495Y-137426401D01*
X161849035Y-137232830D01*
X161948903Y-137018663D01*
X162010063Y-136790408D01*
X162030659Y-136555000D01*
X162010063Y-136319592D01*
X161948903Y-136091337D01*
X161849035Y-135877171D01*
X161843425Y-135869158D01*
X161713494Y-135683597D01*
X161546402Y-135516506D01*
X161546396Y-135516501D01*
X161360842Y-135386575D01*
X161317217Y-135331998D01*
X161310023Y-135262500D01*
X161341546Y-135200145D01*
X161360842Y-135183425D01*
X161436331Y-135130567D01*
X161546401Y-135053495D01*
X161713495Y-134886401D01*
X161849035Y-134692830D01*
X161948903Y-134478663D01*
X162010063Y-134250408D01*
X162030659Y-134015000D01*
X162029346Y-133999998D01*
X162024972Y-133949998D01*
X162010063Y-133779592D01*
X161948903Y-133551337D01*
X161849035Y-133337171D01*
X161821094Y-133297266D01*
X161713494Y-133143597D01*
X161546402Y-132976506D01*
X161546396Y-132976501D01*
X161360842Y-132846575D01*
X161317217Y-132791998D01*
X161310023Y-132722500D01*
X161341546Y-132660145D01*
X161360842Y-132643425D01*
X161427853Y-132596503D01*
X161546401Y-132513495D01*
X161713495Y-132346401D01*
X161849035Y-132152830D01*
X161948903Y-131938663D01*
X162010063Y-131710408D01*
X162030659Y-131475000D01*
X162010063Y-131239592D01*
X161948903Y-131011337D01*
X161849035Y-130797171D01*
X161843425Y-130789158D01*
X161713494Y-130603597D01*
X161546402Y-130436506D01*
X161546395Y-130436501D01*
X161352834Y-130300967D01*
X161352830Y-130300965D01*
X161352828Y-130300964D01*
X161138663Y-130201097D01*
X161138659Y-130201096D01*
X161138655Y-130201094D01*
X160910413Y-130139938D01*
X160910403Y-130139936D01*
X160675001Y-130119341D01*
X160674999Y-130119341D01*
X160439596Y-130139936D01*
X160439586Y-130139938D01*
X160211344Y-130201094D01*
X160211335Y-130201098D01*
X159997171Y-130300964D01*
X159997169Y-130300965D01*
X159803597Y-130436505D01*
X159636505Y-130603597D01*
X159506575Y-130789158D01*
X159451998Y-130832783D01*
X159382500Y-130839977D01*
X159320145Y-130808454D01*
X159303425Y-130789158D01*
X159173494Y-130603597D01*
X159006402Y-130436506D01*
X159006395Y-130436501D01*
X158812834Y-130300967D01*
X158812830Y-130300965D01*
X158812830Y-130300964D01*
X158598663Y-130201097D01*
X158598659Y-130201096D01*
X158598655Y-130201094D01*
X158370413Y-130139938D01*
X158370403Y-130139936D01*
X158135001Y-130119341D01*
X158134999Y-130119341D01*
X157899596Y-130139936D01*
X157899586Y-130139938D01*
X157671344Y-130201094D01*
X157671335Y-130201098D01*
X157457171Y-130300964D01*
X157457169Y-130300965D01*
X157263597Y-130436505D01*
X157096505Y-130603597D01*
X156960965Y-130797169D01*
X156960964Y-130797171D01*
X156861098Y-131011335D01*
X156861094Y-131011344D01*
X156799938Y-131239586D01*
X156799936Y-131239596D01*
X156779341Y-131474999D01*
X156779341Y-131475000D01*
X156799936Y-131710403D01*
X156799938Y-131710413D01*
X156861094Y-131938655D01*
X156861096Y-131938659D01*
X156861097Y-131938663D01*
X156865000Y-131947032D01*
X156960965Y-132152830D01*
X156960967Y-132152834D01*
X157069281Y-132307521D01*
X157096501Y-132346396D01*
X157096506Y-132346402D01*
X157263597Y-132513493D01*
X157263603Y-132513498D01*
X157449158Y-132643425D01*
X157492783Y-132698002D01*
X157499977Y-132767500D01*
X157468454Y-132829855D01*
X157449158Y-132846575D01*
X157263597Y-132976505D01*
X157096505Y-133143597D01*
X156960965Y-133337169D01*
X156960964Y-133337171D01*
X156884854Y-133500390D01*
X156861617Y-133550223D01*
X156861098Y-133551335D01*
X156861094Y-133551344D01*
X156799938Y-133779586D01*
X156799936Y-133779596D01*
X156779341Y-134014999D01*
X156779341Y-134015000D01*
X156799936Y-134250403D01*
X156799938Y-134250413D01*
X156861094Y-134478655D01*
X156861096Y-134478659D01*
X156861097Y-134478663D01*
X156941004Y-134650023D01*
X156960965Y-134692830D01*
X156960967Y-134692834D01*
X157063412Y-134839139D01*
X157096501Y-134886396D01*
X157096506Y-134886402D01*
X157263597Y-135053493D01*
X157263603Y-135053498D01*
X157449158Y-135183425D01*
X157492783Y-135238002D01*
X157499977Y-135307500D01*
X157468454Y-135369855D01*
X157449158Y-135386575D01*
X157263597Y-135516505D01*
X157096505Y-135683597D01*
X156960965Y-135877169D01*
X156960964Y-135877171D01*
X156861098Y-136091335D01*
X156861094Y-136091344D01*
X156799938Y-136319586D01*
X156799936Y-136319596D01*
X156779341Y-136554999D01*
X156779341Y-136555000D01*
X156799936Y-136790403D01*
X156799938Y-136790413D01*
X156861094Y-137018655D01*
X156861096Y-137018659D01*
X156861097Y-137018663D01*
X156865000Y-137027032D01*
X156960965Y-137232830D01*
X156960967Y-137232834D01*
X157069281Y-137387521D01*
X157096501Y-137426396D01*
X157096506Y-137426402D01*
X157263597Y-137593493D01*
X157263603Y-137593498D01*
X157449158Y-137723425D01*
X157492783Y-137778002D01*
X157499977Y-137847500D01*
X157468454Y-137909855D01*
X157449158Y-137926575D01*
X157263597Y-138056505D01*
X157096505Y-138223597D01*
X156960965Y-138417169D01*
X156960964Y-138417171D01*
X156861098Y-138631335D01*
X156861094Y-138631344D01*
X156799938Y-138859586D01*
X156799936Y-138859596D01*
X156779341Y-139094999D01*
X156779341Y-139095000D01*
X116049824Y-139095000D01*
X116049824Y-137675000D01*
X131694540Y-137675000D01*
X131714326Y-137863256D01*
X131714327Y-137863259D01*
X131772818Y-138043277D01*
X131772821Y-138043284D01*
X131867467Y-138207216D01*
X131994129Y-138347888D01*
X132147265Y-138459148D01*
X132147270Y-138459151D01*
X132320192Y-138536142D01*
X132320197Y-138536144D01*
X132505354Y-138575500D01*
X132505355Y-138575500D01*
X132694644Y-138575500D01*
X132694646Y-138575500D01*
X132879803Y-138536144D01*
X133052730Y-138459151D01*
X133205871Y-138347888D01*
X133332533Y-138207216D01*
X133427179Y-138043284D01*
X133485674Y-137863256D01*
X133505460Y-137675000D01*
X133485674Y-137486744D01*
X133427179Y-137306716D01*
X133367112Y-137202677D01*
X133350499Y-137140677D01*
X133350499Y-135869158D01*
X133350499Y-134412225D01*
X133370184Y-134345190D01*
X133386813Y-134324553D01*
X133473261Y-134238105D01*
X133534582Y-134204622D01*
X133604274Y-134209606D01*
X133660207Y-134251478D01*
X133680715Y-134293694D01*
X133708259Y-134396490D01*
X133708261Y-134396497D01*
X133804431Y-134602732D01*
X133804432Y-134602734D01*
X133934954Y-134789141D01*
X134095858Y-134950045D01*
X134095861Y-134950047D01*
X134282266Y-135080568D01*
X134488504Y-135176739D01*
X134488509Y-135176740D01*
X134488511Y-135176741D01*
X134541415Y-135190916D01*
X134708308Y-135235635D01*
X134870230Y-135249801D01*
X134934998Y-135255468D01*
X134935000Y-135255468D01*
X134935002Y-135255468D01*
X134991673Y-135250509D01*
X135161692Y-135235635D01*
X135381496Y-135176739D01*
X135587734Y-135080568D01*
X135774139Y-134950047D01*
X135935047Y-134789139D01*
X136065568Y-134602734D01*
X136161739Y-134396496D01*
X136220635Y-134176692D01*
X136236093Y-134000001D01*
X141669532Y-134000001D01*
X141689364Y-134226686D01*
X141689366Y-134226697D01*
X141748258Y-134446488D01*
X141748261Y-134446497D01*
X141844431Y-134652732D01*
X141844432Y-134652734D01*
X141974954Y-134839141D01*
X142135858Y-135000045D01*
X142135861Y-135000047D01*
X142322266Y-135130568D01*
X142528504Y-135226739D01*
X142748308Y-135285635D01*
X142910230Y-135299801D01*
X142974998Y-135305468D01*
X142975000Y-135305468D01*
X142975002Y-135305468D01*
X143031672Y-135300509D01*
X143201692Y-135285635D01*
X143421496Y-135226739D01*
X143627734Y-135130568D01*
X143814139Y-135000047D01*
X143975047Y-134839139D01*
X144105568Y-134652734D01*
X144201739Y-134446496D01*
X144260635Y-134226692D01*
X144280468Y-134000001D01*
X151829532Y-134000001D01*
X151849364Y-134226686D01*
X151849366Y-134226697D01*
X151908258Y-134446488D01*
X151908261Y-134446497D01*
X152004431Y-134652732D01*
X152004432Y-134652734D01*
X152134954Y-134839141D01*
X152295858Y-135000045D01*
X152295861Y-135000047D01*
X152482266Y-135130568D01*
X152688504Y-135226739D01*
X152908308Y-135285635D01*
X153070230Y-135299801D01*
X153134998Y-135305468D01*
X153135000Y-135305468D01*
X153135002Y-135305468D01*
X153191673Y-135300509D01*
X153361692Y-135285635D01*
X153581496Y-135226739D01*
X153787734Y-135130568D01*
X153974139Y-135000047D01*
X154135047Y-134839139D01*
X154265568Y-134652734D01*
X154361739Y-134446496D01*
X154420635Y-134226692D01*
X154440468Y-134000000D01*
X154439080Y-133984140D01*
X154430631Y-133887565D01*
X154420635Y-133773308D01*
X154361739Y-133553504D01*
X154265568Y-133347266D01*
X154135047Y-133160861D01*
X154135045Y-133160858D01*
X153974141Y-132999954D01*
X153787734Y-132869432D01*
X153787732Y-132869431D01*
X153581497Y-132773261D01*
X153581488Y-132773258D01*
X153361697Y-132714366D01*
X153361693Y-132714365D01*
X153361692Y-132714365D01*
X153361691Y-132714364D01*
X153361686Y-132714364D01*
X153135002Y-132694532D01*
X153134998Y-132694532D01*
X152908313Y-132714364D01*
X152908302Y-132714366D01*
X152688511Y-132773258D01*
X152688502Y-132773261D01*
X152482267Y-132869431D01*
X152482265Y-132869432D01*
X152295858Y-132999954D01*
X152134954Y-133160858D01*
X152004432Y-133347265D01*
X152004431Y-133347267D01*
X151908261Y-133553502D01*
X151908258Y-133553511D01*
X151849366Y-133773302D01*
X151849364Y-133773313D01*
X151829532Y-133999998D01*
X151829532Y-134000001D01*
X144280468Y-134000001D01*
X144280468Y-134000000D01*
X144279080Y-133984140D01*
X144270631Y-133887565D01*
X144260635Y-133773308D01*
X144201739Y-133553504D01*
X144105568Y-133347266D01*
X143975047Y-133160861D01*
X143975045Y-133160858D01*
X143814141Y-132999954D01*
X143627734Y-132869432D01*
X143627732Y-132869431D01*
X143421497Y-132773261D01*
X143421488Y-132773258D01*
X143201697Y-132714366D01*
X143201693Y-132714365D01*
X143201692Y-132714365D01*
X143201691Y-132714364D01*
X143201686Y-132714364D01*
X142975002Y-132694532D01*
X142974998Y-132694532D01*
X142748313Y-132714364D01*
X142748302Y-132714366D01*
X142528511Y-132773258D01*
X142528502Y-132773261D01*
X142322267Y-132869431D01*
X142322265Y-132869432D01*
X142135858Y-132999954D01*
X141974954Y-133160858D01*
X141844432Y-133347265D01*
X141844431Y-133347267D01*
X141748261Y-133553502D01*
X141748258Y-133553511D01*
X141689366Y-133773302D01*
X141689364Y-133773313D01*
X141669532Y-133999998D01*
X141669532Y-134000001D01*
X136236093Y-134000001D01*
X136240468Y-133950000D01*
X136220635Y-133723308D01*
X136161739Y-133503504D01*
X136065568Y-133297266D01*
X135935047Y-133110861D01*
X135935045Y-133110858D01*
X135774141Y-132949954D01*
X135587734Y-132819432D01*
X135587732Y-132819431D01*
X135381497Y-132723261D01*
X135381490Y-132723259D01*
X135278694Y-132695715D01*
X135219034Y-132659350D01*
X135188505Y-132596503D01*
X135196800Y-132527127D01*
X135223104Y-132488262D01*
X137811365Y-129900001D01*
X141669532Y-129900001D01*
X141689364Y-130126686D01*
X141689366Y-130126697D01*
X141748258Y-130346488D01*
X141748261Y-130346497D01*
X141844431Y-130552732D01*
X141844432Y-130552734D01*
X141974954Y-130739141D01*
X142135858Y-130900045D01*
X142135861Y-130900047D01*
X142322266Y-131030568D01*
X142528504Y-131126739D01*
X142748308Y-131185635D01*
X142910230Y-131199801D01*
X142974998Y-131205468D01*
X142975000Y-131205468D01*
X142975002Y-131205468D01*
X143031673Y-131200509D01*
X143201692Y-131185635D01*
X143421496Y-131126739D01*
X143627734Y-131030568D01*
X143814139Y-130900047D01*
X143975047Y-130739139D01*
X144105568Y-130552734D01*
X144201739Y-130346496D01*
X144260635Y-130126692D01*
X144280468Y-129900001D01*
X151829532Y-129900001D01*
X151849364Y-130126686D01*
X151849366Y-130126697D01*
X151908258Y-130346488D01*
X151908261Y-130346497D01*
X152004431Y-130552732D01*
X152004432Y-130552734D01*
X152134954Y-130739141D01*
X152295858Y-130900045D01*
X152295861Y-130900047D01*
X152482266Y-131030568D01*
X152688504Y-131126739D01*
X152908308Y-131185635D01*
X153070230Y-131199801D01*
X153134998Y-131205468D01*
X153135000Y-131205468D01*
X153135002Y-131205468D01*
X153191672Y-131200509D01*
X153361692Y-131185635D01*
X153581496Y-131126739D01*
X153787734Y-131030568D01*
X153974139Y-130900047D01*
X154135047Y-130739139D01*
X154265568Y-130552734D01*
X154361739Y-130346496D01*
X154420635Y-130126692D01*
X154440468Y-129900000D01*
X154420635Y-129673308D01*
X154361739Y-129453504D01*
X154265568Y-129247266D01*
X154135047Y-129060861D01*
X154135045Y-129060858D01*
X153974141Y-128899954D01*
X153787734Y-128769432D01*
X153787732Y-128769431D01*
X153581497Y-128673261D01*
X153581488Y-128673258D01*
X153361697Y-128614366D01*
X153361693Y-128614365D01*
X153361692Y-128614365D01*
X153361691Y-128614364D01*
X153361686Y-128614364D01*
X153135002Y-128594532D01*
X153134998Y-128594532D01*
X152908313Y-128614364D01*
X152908302Y-128614366D01*
X152688511Y-128673258D01*
X152688502Y-128673261D01*
X152482267Y-128769431D01*
X152482265Y-128769432D01*
X152295858Y-128899954D01*
X152134954Y-129060858D01*
X152004432Y-129247265D01*
X152004431Y-129247267D01*
X151908261Y-129453502D01*
X151908258Y-129453511D01*
X151849366Y-129673302D01*
X151849364Y-129673313D01*
X151829532Y-129899998D01*
X151829532Y-129900001D01*
X144280468Y-129900001D01*
X144280468Y-129900000D01*
X144260635Y-129673308D01*
X144201739Y-129453504D01*
X144105568Y-129247266D01*
X143975047Y-129060861D01*
X143975045Y-129060858D01*
X143814141Y-128899954D01*
X143627734Y-128769432D01*
X143627732Y-128769431D01*
X143421497Y-128673261D01*
X143421488Y-128673258D01*
X143201697Y-128614366D01*
X143201693Y-128614365D01*
X143201692Y-128614365D01*
X143201691Y-128614364D01*
X143201686Y-128614364D01*
X142975002Y-128594532D01*
X142974998Y-128594532D01*
X142748313Y-128614364D01*
X142748302Y-128614366D01*
X142528511Y-128673258D01*
X142528502Y-128673261D01*
X142322267Y-128769431D01*
X142322265Y-128769432D01*
X142135858Y-128899954D01*
X141974954Y-129060858D01*
X141844432Y-129247265D01*
X141844431Y-129247267D01*
X141748261Y-129453502D01*
X141748258Y-129453511D01*
X141689366Y-129673302D01*
X141689364Y-129673313D01*
X141669532Y-129899998D01*
X141669532Y-129900001D01*
X137811365Y-129900001D01*
X141886366Y-125824999D01*
X149354659Y-125824999D01*
X149373993Y-126070658D01*
X149431517Y-126310264D01*
X149525815Y-126537920D01*
X149654563Y-126748018D01*
X149654564Y-126748020D01*
X149654567Y-126748023D01*
X149814601Y-126935399D01*
X149959648Y-127059280D01*
X150001979Y-127095435D01*
X150001981Y-127095436D01*
X150212079Y-127224184D01*
X150439735Y-127318482D01*
X150439736Y-127318482D01*
X150439738Y-127318483D01*
X150679345Y-127376007D01*
X150925000Y-127395341D01*
X151170655Y-127376007D01*
X151410262Y-127318483D01*
X151637920Y-127224184D01*
X151848023Y-127095433D01*
X152035399Y-126935399D01*
X152195433Y-126748023D01*
X152324184Y-126537920D01*
X152418483Y-126310262D01*
X152476007Y-126070655D01*
X152495341Y-125825000D01*
X152476007Y-125579345D01*
X152418483Y-125339738D01*
X152408128Y-125314738D01*
X152324184Y-125112079D01*
X152195436Y-124901981D01*
X152195435Y-124901979D01*
X152159280Y-124859648D01*
X152035399Y-124714601D01*
X151911516Y-124608795D01*
X151848020Y-124554564D01*
X151848018Y-124554563D01*
X151637920Y-124425815D01*
X151410264Y-124331517D01*
X151170658Y-124273993D01*
X150925000Y-124254659D01*
X150679341Y-124273993D01*
X150439735Y-124331517D01*
X150212079Y-124425815D01*
X150001981Y-124554563D01*
X150001979Y-124554564D01*
X149814601Y-124714601D01*
X149654564Y-124901979D01*
X149654563Y-124901981D01*
X149525815Y-125112079D01*
X149431517Y-125339735D01*
X149373993Y-125579341D01*
X149354659Y-125824999D01*
X141886366Y-125824999D01*
X143785638Y-123925727D01*
X143799267Y-123913950D01*
X143818530Y-123899610D01*
X143818532Y-123899606D01*
X143818534Y-123899606D01*
X143836663Y-123877999D01*
X143852113Y-123859585D01*
X143855767Y-123855599D01*
X143861589Y-123849778D01*
X143881928Y-123824054D01*
X143887162Y-123817815D01*
X143931302Y-123765214D01*
X143931304Y-123765209D01*
X143935272Y-123759179D01*
X143935323Y-123759212D01*
X143939372Y-123752856D01*
X143939320Y-123752824D01*
X143943112Y-123746675D01*
X143975575Y-123677058D01*
X144010036Y-123608440D01*
X144010040Y-123608433D01*
X144010042Y-123608421D01*
X144012509Y-123601646D01*
X144012567Y-123601667D01*
X144015043Y-123594546D01*
X144014986Y-123594527D01*
X144017255Y-123587678D01*
X144017255Y-123587676D01*
X144017257Y-123587673D01*
X144032788Y-123512449D01*
X144050500Y-123437721D01*
X144050500Y-123437718D01*
X144051339Y-123430548D01*
X144051397Y-123430554D01*
X144052164Y-123423056D01*
X144052104Y-123423051D01*
X144052733Y-123415860D01*
X144050500Y-123339103D01*
X144050500Y-121647844D01*
X156050000Y-121647844D01*
X156056401Y-121707372D01*
X156056403Y-121707379D01*
X156106645Y-121842086D01*
X156106649Y-121842093D01*
X156192809Y-121957187D01*
X156192812Y-121957190D01*
X156307906Y-122043350D01*
X156307913Y-122043354D01*
X156442620Y-122093596D01*
X156442627Y-122093598D01*
X156502155Y-122099999D01*
X156502172Y-122100000D01*
X157200000Y-122100000D01*
X157200000Y-121261821D01*
X157219685Y-121194782D01*
X157272489Y-121149027D01*
X157341647Y-121139083D01*
X157360547Y-121143329D01*
X157382173Y-121150000D01*
X157483723Y-121150000D01*
X157483724Y-121150000D01*
X157557519Y-121138877D01*
X157626742Y-121148350D01*
X157679857Y-121193744D01*
X157699997Y-121260648D01*
X157700000Y-121261492D01*
X157700000Y-122100000D01*
X158397828Y-122100000D01*
X158397844Y-122099999D01*
X158457372Y-122093598D01*
X158457379Y-122093596D01*
X158592086Y-122043354D01*
X158592093Y-122043350D01*
X158707187Y-121957190D01*
X158707190Y-121957187D01*
X158793350Y-121842093D01*
X158793355Y-121842084D01*
X158822075Y-121765081D01*
X158863945Y-121709147D01*
X158929409Y-121684729D01*
X158997682Y-121699580D01*
X159029484Y-121724428D01*
X159038216Y-121733913D01*
X159038219Y-121733915D01*
X159038222Y-121733918D01*
X159221365Y-121876464D01*
X159221371Y-121876468D01*
X159221374Y-121876470D01*
X159425497Y-121986936D01*
X159539487Y-122026068D01*
X159645015Y-122062297D01*
X159645017Y-122062297D01*
X159645019Y-122062298D01*
X159873951Y-122100500D01*
X159873952Y-122100500D01*
X160106048Y-122100500D01*
X160106049Y-122100500D01*
X160334981Y-122062298D01*
X160554503Y-121986936D01*
X160758626Y-121876470D01*
X160941784Y-121733913D01*
X161098979Y-121563153D01*
X161225924Y-121368849D01*
X161319157Y-121156300D01*
X161376134Y-120931305D01*
X161376698Y-120924499D01*
X161395300Y-120700006D01*
X161395300Y-120699993D01*
X161376135Y-120468702D01*
X161376133Y-120468691D01*
X161319157Y-120243699D01*
X161225924Y-120031151D01*
X161098983Y-119836852D01*
X161098980Y-119836849D01*
X161098979Y-119836847D01*
X160941784Y-119666087D01*
X160941779Y-119666083D01*
X160941777Y-119666081D01*
X160758634Y-119523535D01*
X160758628Y-119523531D01*
X160554504Y-119413064D01*
X160554495Y-119413061D01*
X160334984Y-119337702D01*
X160147404Y-119306401D01*
X160106049Y-119299500D01*
X159873951Y-119299500D01*
X159832596Y-119306401D01*
X159645015Y-119337702D01*
X159425504Y-119413061D01*
X159425495Y-119413064D01*
X159221371Y-119523531D01*
X159221365Y-119523535D01*
X159038222Y-119666081D01*
X159038215Y-119666087D01*
X159029484Y-119675572D01*
X158969595Y-119711561D01*
X158899757Y-119709458D01*
X158842143Y-119669932D01*
X158822075Y-119634918D01*
X158793355Y-119557915D01*
X158793350Y-119557906D01*
X158707190Y-119442812D01*
X158707187Y-119442809D01*
X158592093Y-119356649D01*
X158592086Y-119356645D01*
X158457379Y-119306403D01*
X158457372Y-119306401D01*
X158397844Y-119300000D01*
X157700000Y-119300000D01*
X157700000Y-120138178D01*
X157680315Y-120205217D01*
X157627511Y-120250972D01*
X157558353Y-120260916D01*
X157539454Y-120256670D01*
X157517829Y-120250000D01*
X157517827Y-120250000D01*
X157416276Y-120250000D01*
X157416268Y-120250000D01*
X157342481Y-120261122D01*
X157273256Y-120251649D01*
X157220143Y-120206254D01*
X157200003Y-120139350D01*
X157200000Y-120138507D01*
X157200000Y-119300000D01*
X156502155Y-119300000D01*
X156442627Y-119306401D01*
X156442620Y-119306403D01*
X156307913Y-119356645D01*
X156307906Y-119356649D01*
X156192812Y-119442809D01*
X156192809Y-119442812D01*
X156106649Y-119557906D01*
X156106645Y-119557913D01*
X156056403Y-119692620D01*
X156056401Y-119692627D01*
X156050000Y-119752155D01*
X156050000Y-120450000D01*
X156889997Y-120450000D01*
X156957036Y-120469685D01*
X157002791Y-120522489D01*
X157012735Y-120591647D01*
X157010888Y-120601592D01*
X156996189Y-120665992D01*
X156996189Y-120665993D01*
X157007021Y-120810532D01*
X157004920Y-120810689D01*
X157001405Y-120868139D01*
X156960110Y-120924499D01*
X156894899Y-120949587D01*
X156884784Y-120950000D01*
X156050000Y-120950000D01*
X156050000Y-121647844D01*
X144050500Y-121647844D01*
X144050500Y-117524999D01*
X149354659Y-117524999D01*
X149373993Y-117770658D01*
X149431517Y-118010264D01*
X149525815Y-118237920D01*
X149654563Y-118448018D01*
X149654564Y-118448020D01*
X149654567Y-118448023D01*
X149814601Y-118635399D01*
X149959648Y-118759280D01*
X150001979Y-118795435D01*
X150001981Y-118795436D01*
X150212079Y-118924184D01*
X150439735Y-119018482D01*
X150439736Y-119018482D01*
X150439738Y-119018483D01*
X150679345Y-119076007D01*
X150925000Y-119095341D01*
X151170655Y-119076007D01*
X151410262Y-119018483D01*
X151637920Y-118924184D01*
X151848023Y-118795433D01*
X152035399Y-118635399D01*
X152195433Y-118448023D01*
X152324184Y-118237920D01*
X152418483Y-118010262D01*
X152476007Y-117770655D01*
X152495341Y-117525000D01*
X152476007Y-117279345D01*
X152418483Y-117039738D01*
X152408128Y-117014738D01*
X152324184Y-116812079D01*
X152195436Y-116601981D01*
X152195435Y-116601979D01*
X152159280Y-116559648D01*
X152035399Y-116414601D01*
X151911516Y-116308795D01*
X151848020Y-116254564D01*
X151848018Y-116254563D01*
X151637919Y-116125815D01*
X151637920Y-116125815D01*
X151523838Y-116078561D01*
X151469435Y-116034720D01*
X151447370Y-115968426D01*
X151464649Y-115900726D01*
X151515787Y-115853116D01*
X151571291Y-115840000D01*
X151937828Y-115840000D01*
X151937844Y-115839999D01*
X151997372Y-115833598D01*
X151997379Y-115833596D01*
X152132086Y-115783354D01*
X152132093Y-115783350D01*
X152247187Y-115697190D01*
X152247190Y-115697187D01*
X152333350Y-115582093D01*
X152333354Y-115582086D01*
X152383596Y-115447379D01*
X152383598Y-115447372D01*
X152389999Y-115387844D01*
X152390000Y-115387827D01*
X152390000Y-114675000D01*
X151648199Y-114675000D01*
X151581160Y-114655315D01*
X151535405Y-114602511D01*
X151525461Y-114533353D01*
X151526396Y-114527764D01*
X151528218Y-114518213D01*
X151538635Y-114463607D01*
X151528957Y-114309789D01*
X151528956Y-114309788D01*
X151528768Y-114306787D01*
X151544204Y-114238643D01*
X151594030Y-114189663D01*
X151652523Y-114175000D01*
X152390000Y-114175000D01*
X152390000Y-113462172D01*
X152389999Y-113462155D01*
X152383598Y-113402627D01*
X152383596Y-113402620D01*
X152333354Y-113267913D01*
X152333350Y-113267906D01*
X152247190Y-113152812D01*
X152247187Y-113152809D01*
X152132093Y-113066649D01*
X152132086Y-113066645D01*
X151997379Y-113016403D01*
X151997372Y-113016401D01*
X151937844Y-113010000D01*
X151175000Y-113010000D01*
X151175000Y-113699543D01*
X151155315Y-113766582D01*
X151102511Y-113812337D01*
X151033353Y-113822281D01*
X151020166Y-113819648D01*
X151002064Y-113815000D01*
X151002061Y-113815000D01*
X150886625Y-113815000D01*
X150886615Y-113815000D01*
X150814542Y-113824106D01*
X150745564Y-113812979D01*
X150693551Y-113766327D01*
X150675000Y-113701084D01*
X150675000Y-113010000D01*
X149912155Y-113010000D01*
X149852627Y-113016401D01*
X149852620Y-113016403D01*
X149717913Y-113066645D01*
X149717906Y-113066649D01*
X149602812Y-113152809D01*
X149602809Y-113152812D01*
X149516649Y-113267906D01*
X149516645Y-113267913D01*
X149466403Y-113402620D01*
X149466401Y-113402627D01*
X149460000Y-113462155D01*
X149460000Y-114175000D01*
X150201801Y-114175000D01*
X150268840Y-114194685D01*
X150314595Y-114247489D01*
X150324539Y-114316647D01*
X150323604Y-114322236D01*
X150311365Y-114386392D01*
X150311365Y-114386393D01*
X150321232Y-114543213D01*
X150305796Y-114611357D01*
X150255970Y-114660337D01*
X150197477Y-114675000D01*
X149460000Y-114675000D01*
X149460000Y-115387844D01*
X149466401Y-115447372D01*
X149466403Y-115447379D01*
X149516645Y-115582086D01*
X149516649Y-115582093D01*
X149602809Y-115697187D01*
X149602812Y-115697190D01*
X149717906Y-115783350D01*
X149717913Y-115783354D01*
X149852620Y-115833596D01*
X149852627Y-115833598D01*
X149912155Y-115839999D01*
X149912172Y-115840000D01*
X150278709Y-115840000D01*
X150345748Y-115859685D01*
X150391503Y-115912489D01*
X150401447Y-115981647D01*
X150372422Y-116045203D01*
X150326162Y-116078561D01*
X150212079Y-116125815D01*
X150001981Y-116254563D01*
X150001979Y-116254564D01*
X149814601Y-116414601D01*
X149654564Y-116601979D01*
X149654563Y-116601981D01*
X149525815Y-116812079D01*
X149431517Y-117039735D01*
X149373993Y-117279341D01*
X149354659Y-117524999D01*
X144050500Y-117524999D01*
X144050500Y-112812228D01*
X144070185Y-112745189D01*
X144086814Y-112724552D01*
X146734652Y-110076714D01*
X146795973Y-110043231D01*
X146833135Y-110040869D01*
X146976366Y-110053400D01*
X146999999Y-110055468D01*
X147000000Y-110055468D01*
X147000002Y-110055468D01*
X147056672Y-110050509D01*
X147226692Y-110035635D01*
X147446496Y-109976739D01*
X147652734Y-109880568D01*
X147839139Y-109750047D01*
X148000047Y-109589139D01*
X148130568Y-109402734D01*
X148226739Y-109196496D01*
X148285635Y-108976692D01*
X148305468Y-108750001D01*
X155854532Y-108750001D01*
X155874364Y-108976686D01*
X155874366Y-108976697D01*
X155933258Y-109196488D01*
X155933261Y-109196497D01*
X156029431Y-109402732D01*
X156029432Y-109402734D01*
X156159954Y-109589141D01*
X156320858Y-109750045D01*
X156320861Y-109750047D01*
X156507266Y-109880568D01*
X156713504Y-109976739D01*
X156933308Y-110035635D01*
X157095230Y-110049801D01*
X157159998Y-110055468D01*
X157160000Y-110055468D01*
X157160002Y-110055468D01*
X157216672Y-110050509D01*
X157386692Y-110035635D01*
X157606496Y-109976739D01*
X157812734Y-109880568D01*
X157999139Y-109750047D01*
X158160047Y-109589139D01*
X158290568Y-109402734D01*
X158386739Y-109196496D01*
X158445635Y-108976692D01*
X158465468Y-108750000D01*
X158445635Y-108523308D01*
X158386739Y-108303504D01*
X158290568Y-108097266D01*
X158160047Y-107910861D01*
X158160045Y-107910858D01*
X157999141Y-107749954D01*
X157812734Y-107619432D01*
X157812732Y-107619431D01*
X157606497Y-107523261D01*
X157606488Y-107523258D01*
X157386697Y-107464366D01*
X157386693Y-107464365D01*
X157386692Y-107464365D01*
X157386691Y-107464364D01*
X157386686Y-107464364D01*
X157160002Y-107444532D01*
X157159998Y-107444532D01*
X156933313Y-107464364D01*
X156933302Y-107464366D01*
X156713511Y-107523258D01*
X156713502Y-107523261D01*
X156507267Y-107619431D01*
X156507265Y-107619432D01*
X156320858Y-107749954D01*
X156159954Y-107910858D01*
X156029432Y-108097265D01*
X156029431Y-108097267D01*
X155933261Y-108303502D01*
X155933258Y-108303511D01*
X155874366Y-108523302D01*
X155874364Y-108523313D01*
X155854532Y-108749998D01*
X155854532Y-108750001D01*
X148305468Y-108750001D01*
X148305468Y-108750000D01*
X148285635Y-108523308D01*
X148226739Y-108303504D01*
X148130568Y-108097266D01*
X148000047Y-107910861D01*
X148000045Y-107910858D01*
X147839141Y-107749954D01*
X147652734Y-107619432D01*
X147652732Y-107619431D01*
X147446497Y-107523261D01*
X147446488Y-107523258D01*
X147226697Y-107464366D01*
X147226693Y-107464365D01*
X147226692Y-107464365D01*
X147226691Y-107464364D01*
X147226686Y-107464364D01*
X147000002Y-107444532D01*
X146999998Y-107444532D01*
X146773313Y-107464364D01*
X146773302Y-107464366D01*
X146553511Y-107523258D01*
X146553502Y-107523261D01*
X146347267Y-107619431D01*
X146347265Y-107619432D01*
X146160858Y-107749954D01*
X145999954Y-107910858D01*
X145869432Y-108097265D01*
X145869431Y-108097267D01*
X145773261Y-108303502D01*
X145773258Y-108303511D01*
X145714366Y-108523302D01*
X145714364Y-108523313D01*
X145694532Y-108749998D01*
X145694532Y-108750003D01*
X145709129Y-108916861D01*
X145695362Y-108985360D01*
X145673282Y-109015348D01*
X142814358Y-111874272D01*
X142800729Y-111886051D01*
X142781468Y-111900390D01*
X142747898Y-111940397D01*
X142744253Y-111944376D01*
X142738409Y-111950222D01*
X142718059Y-111975959D01*
X142668695Y-112034789D01*
X142664729Y-112040819D01*
X142664682Y-112040788D01*
X142660630Y-112047147D01*
X142660679Y-112047177D01*
X142656889Y-112053321D01*
X142624424Y-112122941D01*
X142589960Y-112191566D01*
X142587488Y-112198357D01*
X142587432Y-112198336D01*
X142584960Y-112205450D01*
X142585015Y-112205469D01*
X142582742Y-112212327D01*
X142574975Y-112249945D01*
X142567207Y-112287565D01*
X142554001Y-112343284D01*
X142549498Y-112362286D01*
X142548661Y-112369454D01*
X142548601Y-112369447D01*
X142547835Y-112376945D01*
X142547895Y-112376951D01*
X142547265Y-112384140D01*
X142549500Y-112460916D01*
X142549500Y-122987769D01*
X142529815Y-123054808D01*
X142513181Y-123075450D01*
X136261447Y-129327183D01*
X136200124Y-129360668D01*
X136130432Y-129355684D01*
X136074499Y-129313812D01*
X136061384Y-129291906D01*
X136040570Y-129247271D01*
X136040567Y-129247265D01*
X135910045Y-129060858D01*
X135749141Y-128899954D01*
X135562734Y-128769432D01*
X135562732Y-128769431D01*
X135356497Y-128673261D01*
X135356488Y-128673258D01*
X135136697Y-128614366D01*
X135136693Y-128614365D01*
X135136692Y-128614365D01*
X135136691Y-128614364D01*
X135136686Y-128614364D01*
X134910002Y-128594532D01*
X134909998Y-128594532D01*
X134683313Y-128614364D01*
X134683302Y-128614366D01*
X134463511Y-128673258D01*
X134463502Y-128673261D01*
X134257267Y-128769431D01*
X134257265Y-128769432D01*
X134070858Y-128899954D01*
X133909954Y-129060858D01*
X133779432Y-129247265D01*
X133779431Y-129247267D01*
X133683261Y-129453502D01*
X133683258Y-129453511D01*
X133624366Y-129673302D01*
X133624364Y-129673313D01*
X133604532Y-129899998D01*
X133604532Y-129900001D01*
X133624364Y-130126686D01*
X133624366Y-130126697D01*
X133683258Y-130346488D01*
X133683261Y-130346497D01*
X133779431Y-130552732D01*
X133779432Y-130552734D01*
X133909954Y-130739141D01*
X134070858Y-130900045D01*
X134070861Y-130900047D01*
X134257266Y-131030568D01*
X134301707Y-131051291D01*
X134301906Y-131051384D01*
X134354346Y-131097556D01*
X134373498Y-131164749D01*
X134353282Y-131231631D01*
X134337183Y-131251447D01*
X132114358Y-133474272D01*
X132100729Y-133486051D01*
X132081468Y-133500390D01*
X132047898Y-133540397D01*
X132044253Y-133544376D01*
X132038409Y-133550222D01*
X132018059Y-133575959D01*
X131968695Y-133634789D01*
X131964729Y-133640819D01*
X131964682Y-133640788D01*
X131960630Y-133647147D01*
X131960679Y-133647177D01*
X131956889Y-133653321D01*
X131924424Y-133722941D01*
X131889960Y-133791566D01*
X131887488Y-133798357D01*
X131887432Y-133798336D01*
X131884960Y-133805450D01*
X131885015Y-133805469D01*
X131882742Y-133812327D01*
X131874975Y-133849945D01*
X131867207Y-133887565D01*
X131854001Y-133943284D01*
X131849498Y-133962286D01*
X131848661Y-133969454D01*
X131848601Y-133969447D01*
X131847835Y-133976945D01*
X131847895Y-133976951D01*
X131847265Y-133984140D01*
X131849500Y-134060916D01*
X131849499Y-137140677D01*
X131832887Y-137202676D01*
X131772820Y-137306716D01*
X131733932Y-137426402D01*
X131714326Y-137486744D01*
X131694540Y-137675000D01*
X116049824Y-137675000D01*
X116049824Y-133950001D01*
X123469532Y-133950001D01*
X123489364Y-134176686D01*
X123489366Y-134176697D01*
X123548258Y-134396488D01*
X123548261Y-134396497D01*
X123644431Y-134602732D01*
X123644432Y-134602734D01*
X123774954Y-134789141D01*
X123935858Y-134950045D01*
X123935861Y-134950047D01*
X124122266Y-135080568D01*
X124328504Y-135176739D01*
X124328509Y-135176740D01*
X124328511Y-135176741D01*
X124381415Y-135190916D01*
X124548308Y-135235635D01*
X124710230Y-135249801D01*
X124774998Y-135255468D01*
X124775000Y-135255468D01*
X124775002Y-135255468D01*
X124831673Y-135250509D01*
X125001692Y-135235635D01*
X125221496Y-135176739D01*
X125427734Y-135080568D01*
X125614139Y-134950047D01*
X125775047Y-134789139D01*
X125905568Y-134602734D01*
X126001739Y-134396496D01*
X126060635Y-134176692D01*
X126080468Y-133950000D01*
X126060635Y-133723308D01*
X126001739Y-133503504D01*
X125905568Y-133297266D01*
X125775047Y-133110861D01*
X125775045Y-133110858D01*
X125614141Y-132949954D01*
X125427734Y-132819432D01*
X125427732Y-132819431D01*
X125221497Y-132723261D01*
X125221488Y-132723258D01*
X125001697Y-132664366D01*
X125001693Y-132664365D01*
X125001692Y-132664365D01*
X125001691Y-132664364D01*
X125001686Y-132664364D01*
X124775002Y-132644532D01*
X124774998Y-132644532D01*
X124548313Y-132664364D01*
X124548302Y-132664366D01*
X124328511Y-132723258D01*
X124328502Y-132723261D01*
X124122267Y-132819431D01*
X124122265Y-132819432D01*
X123935858Y-132949954D01*
X123774954Y-133110858D01*
X123644432Y-133297265D01*
X123644431Y-133297267D01*
X123548261Y-133503502D01*
X123548258Y-133503511D01*
X123489366Y-133723302D01*
X123489364Y-133723313D01*
X123469532Y-133949998D01*
X123469532Y-133950001D01*
X116049824Y-133950001D01*
X116049824Y-129900001D01*
X123444532Y-129900001D01*
X123464364Y-130126686D01*
X123464366Y-130126697D01*
X123523258Y-130346488D01*
X123523261Y-130346497D01*
X123619431Y-130552732D01*
X123619432Y-130552734D01*
X123749954Y-130739141D01*
X123910858Y-130900045D01*
X123910861Y-130900047D01*
X124097266Y-131030568D01*
X124303504Y-131126739D01*
X124523308Y-131185635D01*
X124685230Y-131199801D01*
X124749998Y-131205468D01*
X124750000Y-131205468D01*
X124750002Y-131205468D01*
X124806672Y-131200509D01*
X124976692Y-131185635D01*
X125196496Y-131126739D01*
X125402734Y-131030568D01*
X125589139Y-130900047D01*
X125750047Y-130739139D01*
X125880568Y-130552734D01*
X125976739Y-130346496D01*
X126035635Y-130126692D01*
X126055468Y-129900000D01*
X126035635Y-129673308D01*
X125976739Y-129453504D01*
X125880568Y-129247266D01*
X125750047Y-129060861D01*
X125750045Y-129060858D01*
X125589141Y-128899954D01*
X125402734Y-128769432D01*
X125402732Y-128769431D01*
X125196497Y-128673261D01*
X125196488Y-128673258D01*
X124976697Y-128614366D01*
X124976693Y-128614365D01*
X124976692Y-128614365D01*
X124976691Y-128614364D01*
X124976686Y-128614364D01*
X124750002Y-128594532D01*
X124749998Y-128594532D01*
X124523313Y-128614364D01*
X124523302Y-128614366D01*
X124303511Y-128673258D01*
X124303502Y-128673261D01*
X124097267Y-128769431D01*
X124097265Y-128769432D01*
X123910858Y-128899954D01*
X123749954Y-129060858D01*
X123619432Y-129247265D01*
X123619431Y-129247267D01*
X123523261Y-129453502D01*
X123523258Y-129453511D01*
X123464366Y-129673302D01*
X123464364Y-129673313D01*
X123444532Y-129899998D01*
X123444532Y-129900001D01*
X116049824Y-129900001D01*
X116049824Y-125800000D01*
X127754659Y-125800000D01*
X127773993Y-126045658D01*
X127831517Y-126285264D01*
X127925815Y-126512920D01*
X128054563Y-126723018D01*
X128054564Y-126723020D01*
X128075916Y-126748020D01*
X128214601Y-126910399D01*
X128359648Y-127034280D01*
X128401979Y-127070435D01*
X128401981Y-127070436D01*
X128612079Y-127199184D01*
X128839735Y-127293482D01*
X128839736Y-127293482D01*
X128839738Y-127293483D01*
X129079345Y-127351007D01*
X129325000Y-127370341D01*
X129570655Y-127351007D01*
X129810262Y-127293483D01*
X130037920Y-127199184D01*
X130248023Y-127070433D01*
X130435399Y-126910399D01*
X130595433Y-126723023D01*
X130724184Y-126512920D01*
X130818483Y-126285262D01*
X130876007Y-126045655D01*
X130895341Y-125800000D01*
X130876007Y-125554345D01*
X130818483Y-125314738D01*
X130818482Y-125314735D01*
X130724184Y-125087079D01*
X130595436Y-124876981D01*
X130595435Y-124876979D01*
X130559280Y-124834648D01*
X130435399Y-124689601D01*
X130311516Y-124583795D01*
X130248020Y-124529564D01*
X130248018Y-124529563D01*
X130037920Y-124400815D01*
X129810264Y-124306517D01*
X129570658Y-124248993D01*
X129325000Y-124229659D01*
X129079341Y-124248993D01*
X128839735Y-124306517D01*
X128612079Y-124400815D01*
X128401981Y-124529563D01*
X128401979Y-124529564D01*
X128214601Y-124689601D01*
X128054564Y-124876979D01*
X128054563Y-124876981D01*
X127925815Y-125087079D01*
X127831517Y-125314735D01*
X127773993Y-125554341D01*
X127754659Y-125800000D01*
X116049824Y-125800000D01*
X116049824Y-121672844D01*
X134435000Y-121672844D01*
X134441401Y-121732372D01*
X134441403Y-121732379D01*
X134491645Y-121867086D01*
X134491649Y-121867093D01*
X134577809Y-121982187D01*
X134577812Y-121982190D01*
X134692906Y-122068350D01*
X134692913Y-122068354D01*
X134827620Y-122118596D01*
X134827627Y-122118598D01*
X134887155Y-122124999D01*
X134887172Y-122125000D01*
X135585000Y-122125000D01*
X135585000Y-121286821D01*
X135604685Y-121219782D01*
X135657489Y-121174027D01*
X135726647Y-121164083D01*
X135745547Y-121168329D01*
X135767173Y-121175000D01*
X135868723Y-121175000D01*
X135868724Y-121175000D01*
X135942519Y-121163877D01*
X136011742Y-121173350D01*
X136064857Y-121218744D01*
X136084997Y-121285648D01*
X136085000Y-121286492D01*
X136085000Y-122125000D01*
X136782828Y-122125000D01*
X136782844Y-122124999D01*
X136842372Y-122118598D01*
X136842379Y-122118596D01*
X136977086Y-122068354D01*
X136977093Y-122068350D01*
X137092187Y-121982190D01*
X137092190Y-121982187D01*
X137178350Y-121867093D01*
X137178355Y-121867084D01*
X137207075Y-121790081D01*
X137248945Y-121734147D01*
X137314409Y-121709729D01*
X137382682Y-121724580D01*
X137414484Y-121749428D01*
X137423216Y-121758913D01*
X137423219Y-121758915D01*
X137423222Y-121758918D01*
X137606365Y-121901464D01*
X137606371Y-121901468D01*
X137606374Y-121901470D01*
X137810497Y-122011936D01*
X137902003Y-122043350D01*
X138030015Y-122087297D01*
X138030017Y-122087297D01*
X138030019Y-122087298D01*
X138258951Y-122125500D01*
X138258952Y-122125500D01*
X138491048Y-122125500D01*
X138491049Y-122125500D01*
X138719981Y-122087298D01*
X138939503Y-122011936D01*
X139143626Y-121901470D01*
X139326784Y-121758913D01*
X139483979Y-121588153D01*
X139610924Y-121393849D01*
X139704157Y-121181300D01*
X139761134Y-120956305D01*
X139761446Y-120952541D01*
X139780300Y-120725006D01*
X139780300Y-120724993D01*
X139761135Y-120493702D01*
X139761133Y-120493691D01*
X139704157Y-120268699D01*
X139610924Y-120056151D01*
X139483983Y-119861852D01*
X139483980Y-119861849D01*
X139483979Y-119861847D01*
X139326784Y-119691087D01*
X139326779Y-119691083D01*
X139326777Y-119691081D01*
X139143634Y-119548535D01*
X139143628Y-119548531D01*
X138939504Y-119438064D01*
X138939495Y-119438061D01*
X138719984Y-119362702D01*
X138532404Y-119331401D01*
X138491049Y-119324500D01*
X138258951Y-119324500D01*
X138217596Y-119331401D01*
X138030015Y-119362702D01*
X137810504Y-119438061D01*
X137810495Y-119438064D01*
X137606371Y-119548531D01*
X137606365Y-119548535D01*
X137423222Y-119691081D01*
X137423215Y-119691087D01*
X137414484Y-119700572D01*
X137354595Y-119736561D01*
X137284757Y-119734458D01*
X137227143Y-119694932D01*
X137207075Y-119659918D01*
X137178355Y-119582915D01*
X137178350Y-119582906D01*
X137092190Y-119467812D01*
X137092187Y-119467809D01*
X136977093Y-119381649D01*
X136977086Y-119381645D01*
X136842379Y-119331403D01*
X136842372Y-119331401D01*
X136782844Y-119325000D01*
X136085000Y-119325000D01*
X136085000Y-120163178D01*
X136065315Y-120230217D01*
X136012511Y-120275972D01*
X135943353Y-120285916D01*
X135924454Y-120281670D01*
X135902829Y-120275000D01*
X135902827Y-120275000D01*
X135801276Y-120275000D01*
X135801268Y-120275000D01*
X135727481Y-120286122D01*
X135658256Y-120276649D01*
X135605143Y-120231254D01*
X135585003Y-120164350D01*
X135585000Y-120163507D01*
X135585000Y-119325000D01*
X134887155Y-119325000D01*
X134827627Y-119331401D01*
X134827620Y-119331403D01*
X134692913Y-119381645D01*
X134692906Y-119381649D01*
X134577812Y-119467809D01*
X134577809Y-119467812D01*
X134491649Y-119582906D01*
X134491645Y-119582913D01*
X134441403Y-119717620D01*
X134441401Y-119717627D01*
X134435000Y-119777155D01*
X134435000Y-120475000D01*
X135274997Y-120475000D01*
X135342036Y-120494685D01*
X135387791Y-120547489D01*
X135397735Y-120616647D01*
X135395888Y-120626592D01*
X135381189Y-120690992D01*
X135381189Y-120690993D01*
X135392021Y-120835532D01*
X135389920Y-120835689D01*
X135386405Y-120893139D01*
X135345110Y-120949499D01*
X135279899Y-120974587D01*
X135269784Y-120975000D01*
X134435000Y-120975000D01*
X134435000Y-121672844D01*
X116049824Y-121672844D01*
X116049824Y-117500000D01*
X127754659Y-117500000D01*
X127773993Y-117745658D01*
X127831517Y-117985264D01*
X127925815Y-118212920D01*
X128054563Y-118423018D01*
X128054564Y-118423020D01*
X128075916Y-118448020D01*
X128214601Y-118610399D01*
X128359648Y-118734280D01*
X128401979Y-118770435D01*
X128401981Y-118770436D01*
X128612079Y-118899184D01*
X128839735Y-118993482D01*
X128839736Y-118993482D01*
X128839738Y-118993483D01*
X129079345Y-119051007D01*
X129325000Y-119070341D01*
X129570655Y-119051007D01*
X129810262Y-118993483D01*
X130037920Y-118899184D01*
X130248023Y-118770433D01*
X130435399Y-118610399D01*
X130595433Y-118423023D01*
X130724184Y-118212920D01*
X130818483Y-117985262D01*
X130876007Y-117745655D01*
X130895341Y-117500000D01*
X130876007Y-117254345D01*
X130818483Y-117014738D01*
X130818482Y-117014735D01*
X130724184Y-116787079D01*
X130595436Y-116576981D01*
X130595435Y-116576979D01*
X130559280Y-116534648D01*
X130435399Y-116389601D01*
X130311516Y-116283795D01*
X130248020Y-116229564D01*
X130248018Y-116229563D01*
X130037919Y-116100815D01*
X130037920Y-116100815D01*
X129923838Y-116053561D01*
X129869435Y-116009720D01*
X129847370Y-115943426D01*
X129864649Y-115875726D01*
X129915787Y-115828116D01*
X129971291Y-115815000D01*
X130337828Y-115815000D01*
X130337844Y-115814999D01*
X130397372Y-115808598D01*
X130397379Y-115808596D01*
X130532086Y-115758354D01*
X130532093Y-115758350D01*
X130647187Y-115672190D01*
X130647190Y-115672187D01*
X130733350Y-115557093D01*
X130733354Y-115557086D01*
X130783596Y-115422379D01*
X130783598Y-115422372D01*
X130789999Y-115362844D01*
X130790000Y-115362827D01*
X130790000Y-114650000D01*
X130048199Y-114650000D01*
X129981160Y-114630315D01*
X129935405Y-114577511D01*
X129925461Y-114508353D01*
X129926396Y-114502764D01*
X129938635Y-114438607D01*
X129928957Y-114284789D01*
X129928956Y-114284788D01*
X129928768Y-114281787D01*
X129944204Y-114213643D01*
X129994030Y-114164663D01*
X130052523Y-114150000D01*
X130790000Y-114150000D01*
X130790000Y-113437172D01*
X130789999Y-113437155D01*
X130783598Y-113377627D01*
X130783596Y-113377620D01*
X130733354Y-113242913D01*
X130733350Y-113242906D01*
X130647190Y-113127812D01*
X130647187Y-113127809D01*
X130532093Y-113041649D01*
X130532086Y-113041645D01*
X130397379Y-112991403D01*
X130397372Y-112991401D01*
X130337844Y-112985000D01*
X129574999Y-112985000D01*
X129574999Y-113674543D01*
X129555314Y-113741583D01*
X129502510Y-113787337D01*
X129433352Y-113797281D01*
X129420164Y-113794648D01*
X129402062Y-113790000D01*
X129402061Y-113790000D01*
X129286625Y-113790000D01*
X129286615Y-113790000D01*
X129214542Y-113799106D01*
X129145564Y-113787979D01*
X129093551Y-113741327D01*
X129075000Y-113676084D01*
X129075000Y-112985000D01*
X128312155Y-112985000D01*
X128252627Y-112991401D01*
X128252620Y-112991403D01*
X128117913Y-113041645D01*
X128117906Y-113041649D01*
X128002812Y-113127809D01*
X128002809Y-113127812D01*
X127916649Y-113242906D01*
X127916645Y-113242913D01*
X127866403Y-113377620D01*
X127866401Y-113377627D01*
X127860000Y-113437155D01*
X127860000Y-114150000D01*
X128601801Y-114150000D01*
X128668840Y-114169685D01*
X128714595Y-114222489D01*
X128724539Y-114291647D01*
X128723604Y-114297236D01*
X128711365Y-114361392D01*
X128711365Y-114361393D01*
X128721232Y-114518213D01*
X128705796Y-114586357D01*
X128655970Y-114635337D01*
X128597477Y-114650000D01*
X127860000Y-114650000D01*
X127860000Y-115362844D01*
X127866401Y-115422372D01*
X127866403Y-115422379D01*
X127916645Y-115557086D01*
X127916649Y-115557093D01*
X128002809Y-115672187D01*
X128002812Y-115672190D01*
X128117906Y-115758350D01*
X128117913Y-115758354D01*
X128252620Y-115808596D01*
X128252627Y-115808598D01*
X128312155Y-115814999D01*
X128312172Y-115815000D01*
X128678709Y-115815000D01*
X128745748Y-115834685D01*
X128791503Y-115887489D01*
X128801447Y-115956647D01*
X128772422Y-116020203D01*
X128726162Y-116053561D01*
X128612079Y-116100815D01*
X128401981Y-116229563D01*
X128401979Y-116229564D01*
X128214601Y-116389601D01*
X128054564Y-116576979D01*
X128054563Y-116576981D01*
X127925815Y-116787079D01*
X127831517Y-117014735D01*
X127773993Y-117254341D01*
X127754659Y-117500000D01*
X116049824Y-117500000D01*
X116049824Y-108750001D01*
X123509532Y-108750001D01*
X123529364Y-108976686D01*
X123529366Y-108976697D01*
X123588258Y-109196488D01*
X123588261Y-109196497D01*
X123684431Y-109402732D01*
X123684432Y-109402734D01*
X123814954Y-109589141D01*
X123975858Y-109750045D01*
X123975861Y-109750047D01*
X124162266Y-109880568D01*
X124368504Y-109976739D01*
X124588308Y-110035635D01*
X124750230Y-110049801D01*
X124814998Y-110055468D01*
X124815000Y-110055468D01*
X124815002Y-110055468D01*
X124871673Y-110050509D01*
X125041692Y-110035635D01*
X125261496Y-109976739D01*
X125467734Y-109880568D01*
X125654139Y-109750047D01*
X125815047Y-109589139D01*
X125945568Y-109402734D01*
X126041739Y-109196496D01*
X126100635Y-108976692D01*
X126120468Y-108750001D01*
X133669532Y-108750001D01*
X133689364Y-108976686D01*
X133689366Y-108976697D01*
X133748258Y-109196488D01*
X133748261Y-109196497D01*
X133844431Y-109402732D01*
X133844432Y-109402734D01*
X133974954Y-109589141D01*
X134135858Y-109750045D01*
X134135861Y-109750047D01*
X134322266Y-109880568D01*
X134528504Y-109976739D01*
X134748308Y-110035635D01*
X134910230Y-110049801D01*
X134974998Y-110055468D01*
X134975000Y-110055468D01*
X134975002Y-110055468D01*
X135031672Y-110050509D01*
X135201692Y-110035635D01*
X135421496Y-109976739D01*
X135627734Y-109880568D01*
X135814139Y-109750047D01*
X135975047Y-109589139D01*
X136105568Y-109402734D01*
X136201739Y-109196496D01*
X136260635Y-108976692D01*
X136280468Y-108750000D01*
X136260635Y-108523308D01*
X136201739Y-108303504D01*
X136105568Y-108097266D01*
X135975047Y-107910861D01*
X135975045Y-107910858D01*
X135814141Y-107749954D01*
X135627734Y-107619432D01*
X135627732Y-107619431D01*
X135421497Y-107523261D01*
X135421488Y-107523258D01*
X135201697Y-107464366D01*
X135201693Y-107464365D01*
X135201692Y-107464365D01*
X135201691Y-107464364D01*
X135201686Y-107464364D01*
X134975002Y-107444532D01*
X134974998Y-107444532D01*
X134748313Y-107464364D01*
X134748302Y-107464366D01*
X134528511Y-107523258D01*
X134528502Y-107523261D01*
X134322267Y-107619431D01*
X134322265Y-107619432D01*
X134135858Y-107749954D01*
X133974954Y-107910858D01*
X133844432Y-108097265D01*
X133844431Y-108097267D01*
X133748261Y-108303502D01*
X133748258Y-108303511D01*
X133689366Y-108523302D01*
X133689364Y-108523313D01*
X133669532Y-108749998D01*
X133669532Y-108750001D01*
X126120468Y-108750001D01*
X126120468Y-108750000D01*
X126100635Y-108523308D01*
X126041739Y-108303504D01*
X125945568Y-108097266D01*
X125815047Y-107910861D01*
X125815045Y-107910858D01*
X125654141Y-107749954D01*
X125467734Y-107619432D01*
X125467732Y-107619431D01*
X125261497Y-107523261D01*
X125261488Y-107523258D01*
X125041697Y-107464366D01*
X125041693Y-107464365D01*
X125041692Y-107464365D01*
X125041691Y-107464364D01*
X125041686Y-107464364D01*
X124815002Y-107444532D01*
X124814998Y-107444532D01*
X124588313Y-107464364D01*
X124588302Y-107464366D01*
X124368511Y-107523258D01*
X124368502Y-107523261D01*
X124162267Y-107619431D01*
X124162265Y-107619432D01*
X123975858Y-107749954D01*
X123814954Y-107910858D01*
X123684432Y-108097265D01*
X123684431Y-108097267D01*
X123588261Y-108303502D01*
X123588258Y-108303511D01*
X123529366Y-108523302D01*
X123529364Y-108523313D01*
X123509532Y-108749998D01*
X123509532Y-108750001D01*
X116049824Y-108750001D01*
X116049824Y-104675001D01*
X123509532Y-104675001D01*
X123529364Y-104901686D01*
X123529366Y-104901697D01*
X123588258Y-105121488D01*
X123588261Y-105121497D01*
X123684431Y-105327732D01*
X123684432Y-105327734D01*
X123814954Y-105514141D01*
X123975858Y-105675045D01*
X123975861Y-105675047D01*
X124162266Y-105805568D01*
X124368504Y-105901739D01*
X124588308Y-105960635D01*
X124750230Y-105974801D01*
X124814998Y-105980468D01*
X124815000Y-105980468D01*
X124815002Y-105980468D01*
X124871673Y-105975509D01*
X125041692Y-105960635D01*
X125261496Y-105901739D01*
X125467734Y-105805568D01*
X125654139Y-105675047D01*
X125815047Y-105514139D01*
X125945568Y-105327734D01*
X126041739Y-105121496D01*
X126100635Y-104901692D01*
X126120468Y-104675001D01*
X133669532Y-104675001D01*
X133689364Y-104901686D01*
X133689366Y-104901697D01*
X133748258Y-105121488D01*
X133748261Y-105121497D01*
X133844431Y-105327732D01*
X133844432Y-105327734D01*
X133974954Y-105514141D01*
X134135858Y-105675045D01*
X134135861Y-105675047D01*
X134322266Y-105805568D01*
X134528504Y-105901739D01*
X134748308Y-105960635D01*
X134910230Y-105974801D01*
X134974998Y-105980468D01*
X134975000Y-105980468D01*
X134975002Y-105980468D01*
X135031672Y-105975509D01*
X135201692Y-105960635D01*
X135421496Y-105901739D01*
X135627734Y-105805568D01*
X135814139Y-105675047D01*
X135975047Y-105514139D01*
X136105568Y-105327734D01*
X136201739Y-105121496D01*
X136260635Y-104901692D01*
X136280468Y-104675001D01*
X145669532Y-104675001D01*
X145689364Y-104901686D01*
X145689366Y-104901697D01*
X145748258Y-105121488D01*
X145748261Y-105121497D01*
X145844431Y-105327732D01*
X145844432Y-105327734D01*
X145974954Y-105514141D01*
X146135858Y-105675045D01*
X146135861Y-105675047D01*
X146322266Y-105805568D01*
X146528504Y-105901739D01*
X146748308Y-105960635D01*
X146910230Y-105974801D01*
X146974998Y-105980468D01*
X146975000Y-105980468D01*
X146975002Y-105980468D01*
X147031672Y-105975509D01*
X147201692Y-105960635D01*
X147421496Y-105901739D01*
X147627734Y-105805568D01*
X147814139Y-105675047D01*
X147975047Y-105514139D01*
X148105568Y-105327734D01*
X148201739Y-105121496D01*
X148260635Y-104901692D01*
X148280468Y-104675001D01*
X155829532Y-104675001D01*
X155849364Y-104901686D01*
X155849366Y-104901697D01*
X155908258Y-105121488D01*
X155908261Y-105121497D01*
X156004431Y-105327732D01*
X156004432Y-105327734D01*
X156134954Y-105514141D01*
X156295858Y-105675045D01*
X156295861Y-105675047D01*
X156482266Y-105805568D01*
X156688504Y-105901739D01*
X156908308Y-105960635D01*
X157070230Y-105974801D01*
X157134998Y-105980468D01*
X157135000Y-105980468D01*
X157135002Y-105980468D01*
X157191673Y-105975509D01*
X157361692Y-105960635D01*
X157581496Y-105901739D01*
X157787734Y-105805568D01*
X157974139Y-105675047D01*
X158135047Y-105514139D01*
X158265568Y-105327734D01*
X158361739Y-105121496D01*
X158420635Y-104901692D01*
X158440468Y-104675000D01*
X158420635Y-104448308D01*
X158361739Y-104228504D01*
X158265568Y-104022266D01*
X158135047Y-103835861D01*
X158135045Y-103835858D01*
X157974141Y-103674954D01*
X157787734Y-103544432D01*
X157787732Y-103544431D01*
X157581497Y-103448261D01*
X157581488Y-103448258D01*
X157361697Y-103389366D01*
X157361693Y-103389365D01*
X157361692Y-103389365D01*
X157361691Y-103389364D01*
X157361686Y-103389364D01*
X157135002Y-103369532D01*
X157134998Y-103369532D01*
X156908313Y-103389364D01*
X156908302Y-103389366D01*
X156688511Y-103448258D01*
X156688502Y-103448261D01*
X156482267Y-103544431D01*
X156482265Y-103544432D01*
X156295858Y-103674954D01*
X156134954Y-103835858D01*
X156004432Y-104022265D01*
X156004431Y-104022267D01*
X155908261Y-104228502D01*
X155908258Y-104228511D01*
X155849366Y-104448302D01*
X155849364Y-104448313D01*
X155829532Y-104674998D01*
X155829532Y-104675001D01*
X148280468Y-104675001D01*
X148280468Y-104675000D01*
X148260635Y-104448308D01*
X148201739Y-104228504D01*
X148105568Y-104022266D01*
X147975047Y-103835861D01*
X147975045Y-103835858D01*
X147814141Y-103674954D01*
X147627734Y-103544432D01*
X147627732Y-103544431D01*
X147421497Y-103448261D01*
X147421488Y-103448258D01*
X147201697Y-103389366D01*
X147201693Y-103389365D01*
X147201692Y-103389365D01*
X147201691Y-103389364D01*
X147201686Y-103389364D01*
X146975002Y-103369532D01*
X146974998Y-103369532D01*
X146748313Y-103389364D01*
X146748302Y-103389366D01*
X146528511Y-103448258D01*
X146528502Y-103448261D01*
X146322267Y-103544431D01*
X146322265Y-103544432D01*
X146135858Y-103674954D01*
X145974954Y-103835858D01*
X145844432Y-104022265D01*
X145844431Y-104022267D01*
X145748261Y-104228502D01*
X145748258Y-104228511D01*
X145689366Y-104448302D01*
X145689364Y-104448313D01*
X145669532Y-104674998D01*
X145669532Y-104675001D01*
X136280468Y-104675001D01*
X136280468Y-104675000D01*
X136260635Y-104448308D01*
X136201739Y-104228504D01*
X136105568Y-104022266D01*
X135975047Y-103835861D01*
X135975045Y-103835858D01*
X135814141Y-103674954D01*
X135627734Y-103544432D01*
X135627732Y-103544431D01*
X135421497Y-103448261D01*
X135421488Y-103448258D01*
X135201697Y-103389366D01*
X135201693Y-103389365D01*
X135201692Y-103389365D01*
X135201691Y-103389364D01*
X135201686Y-103389364D01*
X134975002Y-103369532D01*
X134974998Y-103369532D01*
X134748313Y-103389364D01*
X134748302Y-103389366D01*
X134528511Y-103448258D01*
X134528502Y-103448261D01*
X134322267Y-103544431D01*
X134322265Y-103544432D01*
X134135858Y-103674954D01*
X133974954Y-103835858D01*
X133844432Y-104022265D01*
X133844431Y-104022267D01*
X133748261Y-104228502D01*
X133748258Y-104228511D01*
X133689366Y-104448302D01*
X133689364Y-104448313D01*
X133669532Y-104674998D01*
X133669532Y-104675001D01*
X126120468Y-104675001D01*
X126120468Y-104675000D01*
X126100635Y-104448308D01*
X126041739Y-104228504D01*
X125945568Y-104022266D01*
X125815047Y-103835861D01*
X125815045Y-103835858D01*
X125654141Y-103674954D01*
X125467734Y-103544432D01*
X125467732Y-103544431D01*
X125261497Y-103448261D01*
X125261488Y-103448258D01*
X125041697Y-103389366D01*
X125041693Y-103389365D01*
X125041692Y-103389365D01*
X125041691Y-103389364D01*
X125041686Y-103389364D01*
X124815002Y-103369532D01*
X124814998Y-103369532D01*
X124588313Y-103389364D01*
X124588302Y-103389366D01*
X124368511Y-103448258D01*
X124368502Y-103448261D01*
X124162267Y-103544431D01*
X124162265Y-103544432D01*
X123975858Y-103674954D01*
X123814954Y-103835858D01*
X123684432Y-104022265D01*
X123684431Y-104022267D01*
X123588261Y-104228502D01*
X123588258Y-104228511D01*
X123529366Y-104448302D01*
X123529364Y-104448313D01*
X123509532Y-104674998D01*
X123509532Y-104675001D01*
X116049824Y-104675001D01*
X116049824Y-100375000D01*
X127754659Y-100375000D01*
X127773993Y-100620658D01*
X127831517Y-100860264D01*
X127925815Y-101087920D01*
X128054563Y-101298018D01*
X128054564Y-101298020D01*
X128054567Y-101298023D01*
X128214601Y-101485399D01*
X128359648Y-101609280D01*
X128401979Y-101645435D01*
X128401981Y-101645436D01*
X128612079Y-101774184D01*
X128839735Y-101868482D01*
X128839736Y-101868482D01*
X128839738Y-101868483D01*
X129079345Y-101926007D01*
X129325000Y-101945341D01*
X129570655Y-101926007D01*
X129810262Y-101868483D01*
X130037920Y-101774184D01*
X130248023Y-101645433D01*
X130435399Y-101485399D01*
X130595433Y-101298023D01*
X130724184Y-101087920D01*
X130818483Y-100860262D01*
X130876007Y-100620655D01*
X130895341Y-100375000D01*
X130893373Y-100349999D01*
X149354659Y-100349999D01*
X149373993Y-100595658D01*
X149431517Y-100835264D01*
X149525815Y-101062920D01*
X149654563Y-101273018D01*
X149654564Y-101273020D01*
X149675916Y-101298020D01*
X149814601Y-101460399D01*
X149959648Y-101584280D01*
X150001979Y-101620435D01*
X150001981Y-101620436D01*
X150212079Y-101749184D01*
X150439735Y-101843482D01*
X150439736Y-101843482D01*
X150439738Y-101843483D01*
X150679345Y-101901007D01*
X150925000Y-101920341D01*
X151170655Y-101901007D01*
X151410262Y-101843483D01*
X151637920Y-101749184D01*
X151848023Y-101620433D01*
X152035399Y-101460399D01*
X152195433Y-101273023D01*
X152324184Y-101062920D01*
X152418483Y-100835262D01*
X152476007Y-100595655D01*
X152495341Y-100350000D01*
X152476007Y-100104345D01*
X152418483Y-99864738D01*
X152418482Y-99864735D01*
X152324184Y-99637079D01*
X152195436Y-99426981D01*
X152195435Y-99426979D01*
X152159280Y-99384648D01*
X152035399Y-99239601D01*
X151911516Y-99133795D01*
X151848020Y-99079564D01*
X151848018Y-99079563D01*
X151637920Y-98950815D01*
X151410264Y-98856517D01*
X151170658Y-98798993D01*
X150986413Y-98784492D01*
X150925000Y-98779659D01*
X150924999Y-98779659D01*
X150679341Y-98798993D01*
X150439735Y-98856517D01*
X150212079Y-98950815D01*
X150001981Y-99079563D01*
X150001979Y-99079564D01*
X149814601Y-99239601D01*
X149654564Y-99426979D01*
X149654563Y-99426981D01*
X149525815Y-99637079D01*
X149431517Y-99864735D01*
X149373993Y-100104341D01*
X149354659Y-100349999D01*
X130893373Y-100349999D01*
X130876007Y-100129345D01*
X130818483Y-99889738D01*
X130808128Y-99864738D01*
X130724184Y-99662079D01*
X130595436Y-99451981D01*
X130595435Y-99451979D01*
X130559280Y-99409648D01*
X130435399Y-99264601D01*
X130311516Y-99158795D01*
X130248020Y-99104564D01*
X130248018Y-99104563D01*
X130037920Y-98975815D01*
X129810264Y-98881517D01*
X129570658Y-98823993D01*
X129325000Y-98804659D01*
X129079341Y-98823993D01*
X128839735Y-98881517D01*
X128612079Y-98975815D01*
X128401981Y-99104563D01*
X128401979Y-99104564D01*
X128214601Y-99264601D01*
X128054564Y-99451979D01*
X128054563Y-99451981D01*
X127925815Y-99662079D01*
X127831517Y-99889735D01*
X127773993Y-100129341D01*
X127754659Y-100375000D01*
X116049824Y-100375000D01*
X116049824Y-95772844D01*
X134435000Y-95772844D01*
X134441401Y-95832372D01*
X134441403Y-95832379D01*
X134491645Y-95967086D01*
X134491649Y-95967093D01*
X134577809Y-96082187D01*
X134577812Y-96082190D01*
X134692906Y-96168350D01*
X134692913Y-96168354D01*
X134827620Y-96218596D01*
X134827627Y-96218598D01*
X134887155Y-96224999D01*
X134887172Y-96225000D01*
X135585000Y-96225000D01*
X135585000Y-95386821D01*
X135604685Y-95319782D01*
X135657489Y-95274027D01*
X135726647Y-95264083D01*
X135745547Y-95268329D01*
X135767173Y-95275000D01*
X135868723Y-95275000D01*
X135868724Y-95275000D01*
X135942519Y-95263877D01*
X136011742Y-95273350D01*
X136064857Y-95318744D01*
X136084997Y-95385648D01*
X136085000Y-95386492D01*
X136085000Y-96225000D01*
X136782828Y-96225000D01*
X136782844Y-96224999D01*
X136842372Y-96218598D01*
X136842379Y-96218596D01*
X136977086Y-96168354D01*
X136977093Y-96168350D01*
X137092187Y-96082190D01*
X137092190Y-96082187D01*
X137178350Y-95967093D01*
X137178355Y-95967084D01*
X137207075Y-95890081D01*
X137248945Y-95834147D01*
X137314409Y-95809729D01*
X137382682Y-95824580D01*
X137414484Y-95849428D01*
X137423216Y-95858913D01*
X137423219Y-95858915D01*
X137423222Y-95858918D01*
X137606365Y-96001464D01*
X137606371Y-96001468D01*
X137606374Y-96001470D01*
X137810497Y-96111936D01*
X137869495Y-96132190D01*
X138030015Y-96187297D01*
X138030017Y-96187297D01*
X138030019Y-96187298D01*
X138258951Y-96225500D01*
X138258952Y-96225500D01*
X138491048Y-96225500D01*
X138491049Y-96225500D01*
X138719981Y-96187298D01*
X138939503Y-96111936D01*
X139143626Y-96001470D01*
X139326784Y-95858913D01*
X139359988Y-95822844D01*
X156060000Y-95822844D01*
X156066401Y-95882372D01*
X156066403Y-95882379D01*
X156116645Y-96017086D01*
X156116649Y-96017093D01*
X156202809Y-96132187D01*
X156202812Y-96132190D01*
X156317906Y-96218350D01*
X156317913Y-96218354D01*
X156452620Y-96268596D01*
X156452627Y-96268598D01*
X156512155Y-96274999D01*
X156512172Y-96275000D01*
X157210000Y-96275000D01*
X157210000Y-95436821D01*
X157229685Y-95369782D01*
X157282489Y-95324027D01*
X157351647Y-95314083D01*
X157370547Y-95318329D01*
X157392173Y-95325000D01*
X157493723Y-95325000D01*
X157493724Y-95325000D01*
X157567519Y-95313877D01*
X157636742Y-95323350D01*
X157689857Y-95368744D01*
X157709997Y-95435648D01*
X157710000Y-95436492D01*
X157710000Y-96275000D01*
X158407828Y-96275000D01*
X158407844Y-96274999D01*
X158467372Y-96268598D01*
X158467379Y-96268596D01*
X158602086Y-96218354D01*
X158602093Y-96218350D01*
X158717187Y-96132190D01*
X158717190Y-96132187D01*
X158803350Y-96017093D01*
X158803355Y-96017084D01*
X158832075Y-95940081D01*
X158873945Y-95884147D01*
X158939409Y-95859729D01*
X159007682Y-95874580D01*
X159039484Y-95899428D01*
X159048216Y-95908913D01*
X159048219Y-95908915D01*
X159048222Y-95908918D01*
X159231365Y-96051464D01*
X159231371Y-96051468D01*
X159231374Y-96051470D01*
X159435497Y-96161936D01*
X159509371Y-96187297D01*
X159655015Y-96237297D01*
X159655017Y-96237297D01*
X159655019Y-96237298D01*
X159883951Y-96275500D01*
X159883952Y-96275500D01*
X160116048Y-96275500D01*
X160116049Y-96275500D01*
X160344981Y-96237298D01*
X160564503Y-96161936D01*
X160768626Y-96051470D01*
X160951784Y-95908913D01*
X161108979Y-95738153D01*
X161235924Y-95543849D01*
X161329157Y-95331300D01*
X161386134Y-95106305D01*
X161388728Y-95075000D01*
X161405300Y-94875006D01*
X161405300Y-94874993D01*
X161386135Y-94643702D01*
X161386133Y-94643691D01*
X161329157Y-94418699D01*
X161235924Y-94206151D01*
X161108983Y-94011852D01*
X161108980Y-94011849D01*
X161108979Y-94011847D01*
X160951784Y-93841087D01*
X160951779Y-93841083D01*
X160951777Y-93841081D01*
X160768634Y-93698535D01*
X160768628Y-93698531D01*
X160564504Y-93588064D01*
X160564495Y-93588061D01*
X160344984Y-93512702D01*
X160173281Y-93484050D01*
X160116049Y-93474500D01*
X159883951Y-93474500D01*
X159842596Y-93481401D01*
X159655015Y-93512702D01*
X159435504Y-93588061D01*
X159435495Y-93588064D01*
X159231371Y-93698531D01*
X159231365Y-93698535D01*
X159048222Y-93841081D01*
X159048215Y-93841087D01*
X159039484Y-93850572D01*
X158979595Y-93886561D01*
X158909757Y-93884458D01*
X158852143Y-93844932D01*
X158832075Y-93809918D01*
X158803355Y-93732915D01*
X158803350Y-93732906D01*
X158717190Y-93617812D01*
X158717187Y-93617809D01*
X158602093Y-93531649D01*
X158602086Y-93531645D01*
X158467379Y-93481403D01*
X158467372Y-93481401D01*
X158407844Y-93475000D01*
X157710000Y-93475000D01*
X157710000Y-94313178D01*
X157690315Y-94380217D01*
X157637511Y-94425972D01*
X157568353Y-94435916D01*
X157549454Y-94431670D01*
X157527829Y-94425000D01*
X157527827Y-94425000D01*
X157426276Y-94425000D01*
X157426268Y-94425000D01*
X157352481Y-94436122D01*
X157283256Y-94426649D01*
X157230143Y-94381254D01*
X157210003Y-94314350D01*
X157210000Y-94313507D01*
X157210000Y-93475000D01*
X156512155Y-93475000D01*
X156452627Y-93481401D01*
X156452620Y-93481403D01*
X156317913Y-93531645D01*
X156317906Y-93531649D01*
X156202812Y-93617809D01*
X156202809Y-93617812D01*
X156116649Y-93732906D01*
X156116645Y-93732913D01*
X156066403Y-93867620D01*
X156066401Y-93867627D01*
X156060000Y-93927155D01*
X156060000Y-94625000D01*
X156899997Y-94625000D01*
X156967036Y-94644685D01*
X157012791Y-94697489D01*
X157022735Y-94766647D01*
X157020888Y-94776592D01*
X157006189Y-94840992D01*
X157006189Y-94840993D01*
X157017021Y-94985532D01*
X157014920Y-94985689D01*
X157011405Y-95043139D01*
X156970110Y-95099499D01*
X156904899Y-95124587D01*
X156894784Y-95125000D01*
X156060000Y-95125000D01*
X156060000Y-95822844D01*
X139359988Y-95822844D01*
X139483979Y-95688153D01*
X139610924Y-95493849D01*
X139704157Y-95281300D01*
X139761134Y-95056305D01*
X139766524Y-94991260D01*
X139780300Y-94825006D01*
X139780300Y-94824993D01*
X139761135Y-94593702D01*
X139761133Y-94593691D01*
X139704157Y-94368699D01*
X139610924Y-94156151D01*
X139483983Y-93961852D01*
X139483980Y-93961849D01*
X139483979Y-93961847D01*
X139326784Y-93791087D01*
X139326779Y-93791083D01*
X139326777Y-93791081D01*
X139143634Y-93648535D01*
X139143628Y-93648531D01*
X138939504Y-93538064D01*
X138939495Y-93538061D01*
X138719984Y-93462702D01*
X138532404Y-93431401D01*
X138491049Y-93424500D01*
X138258951Y-93424500D01*
X138217596Y-93431401D01*
X138030015Y-93462702D01*
X137810504Y-93538061D01*
X137810495Y-93538064D01*
X137606371Y-93648531D01*
X137606365Y-93648535D01*
X137423222Y-93791081D01*
X137423215Y-93791087D01*
X137414484Y-93800572D01*
X137354595Y-93836561D01*
X137284757Y-93834458D01*
X137227143Y-93794932D01*
X137207075Y-93759918D01*
X137178355Y-93682915D01*
X137178350Y-93682906D01*
X137092190Y-93567812D01*
X137092187Y-93567809D01*
X136977093Y-93481649D01*
X136977086Y-93481645D01*
X136842379Y-93431403D01*
X136842372Y-93431401D01*
X136782844Y-93425000D01*
X136085000Y-93425000D01*
X136085000Y-94263178D01*
X136065315Y-94330217D01*
X136012511Y-94375972D01*
X135943353Y-94385916D01*
X135924454Y-94381670D01*
X135902829Y-94375000D01*
X135902827Y-94375000D01*
X135801276Y-94375000D01*
X135801268Y-94375000D01*
X135727481Y-94386122D01*
X135658256Y-94376649D01*
X135605143Y-94331254D01*
X135585003Y-94264350D01*
X135585000Y-94263507D01*
X135585000Y-93425000D01*
X134887155Y-93425000D01*
X134827627Y-93431401D01*
X134827620Y-93431403D01*
X134692913Y-93481645D01*
X134692906Y-93481649D01*
X134577812Y-93567809D01*
X134577809Y-93567812D01*
X134491649Y-93682906D01*
X134491645Y-93682913D01*
X134441403Y-93817620D01*
X134441401Y-93817627D01*
X134435000Y-93877155D01*
X134435000Y-94575000D01*
X135274997Y-94575000D01*
X135342036Y-94594685D01*
X135387791Y-94647489D01*
X135397735Y-94716647D01*
X135395888Y-94726592D01*
X135381189Y-94790992D01*
X135381189Y-94790993D01*
X135392021Y-94935532D01*
X135389920Y-94935689D01*
X135386405Y-94993139D01*
X135345110Y-95049499D01*
X135279899Y-95074587D01*
X135269784Y-95075000D01*
X134435000Y-95075000D01*
X134435000Y-95772844D01*
X116049824Y-95772844D01*
X116049824Y-92074999D01*
X127754659Y-92074999D01*
X127773993Y-92320658D01*
X127831517Y-92560264D01*
X127925815Y-92787920D01*
X128054563Y-92998018D01*
X128054564Y-92998020D01*
X128054567Y-92998023D01*
X128214601Y-93185399D01*
X128359648Y-93309280D01*
X128401979Y-93345435D01*
X128401981Y-93345436D01*
X128612079Y-93474184D01*
X128839735Y-93568482D01*
X128839736Y-93568482D01*
X128839738Y-93568483D01*
X129079345Y-93626007D01*
X129325000Y-93645341D01*
X129570655Y-93626007D01*
X129810262Y-93568483D01*
X130037920Y-93474184D01*
X130248023Y-93345433D01*
X130435399Y-93185399D01*
X130595433Y-92998023D01*
X130724184Y-92787920D01*
X130818483Y-92560262D01*
X130876007Y-92320655D01*
X130895341Y-92075000D01*
X130893373Y-92049999D01*
X149354659Y-92049999D01*
X149373993Y-92295658D01*
X149431517Y-92535264D01*
X149525815Y-92762920D01*
X149654563Y-92973018D01*
X149654564Y-92973020D01*
X149675916Y-92998020D01*
X149814601Y-93160399D01*
X149959648Y-93284280D01*
X150001979Y-93320435D01*
X150001981Y-93320436D01*
X150212079Y-93449184D01*
X150439735Y-93543482D01*
X150439736Y-93543482D01*
X150439738Y-93543483D01*
X150679345Y-93601007D01*
X150925000Y-93620341D01*
X151170655Y-93601007D01*
X151410262Y-93543483D01*
X151637920Y-93449184D01*
X151848023Y-93320433D01*
X152035399Y-93160399D01*
X152195433Y-92973023D01*
X152324184Y-92762920D01*
X152418483Y-92535262D01*
X152476007Y-92295655D01*
X152495341Y-92050000D01*
X152476007Y-91804345D01*
X152418483Y-91564738D01*
X152418482Y-91564735D01*
X152324184Y-91337079D01*
X152195436Y-91126981D01*
X152195435Y-91126979D01*
X152159280Y-91084648D01*
X152035399Y-90939601D01*
X151911516Y-90833795D01*
X151848020Y-90779564D01*
X151848018Y-90779563D01*
X151637919Y-90650815D01*
X151637920Y-90650815D01*
X151523838Y-90603561D01*
X151469435Y-90559720D01*
X151447370Y-90493426D01*
X151464649Y-90425726D01*
X151515787Y-90378116D01*
X151571291Y-90365000D01*
X151937828Y-90365000D01*
X151937844Y-90364999D01*
X151997372Y-90358598D01*
X151997379Y-90358596D01*
X152132086Y-90308354D01*
X152132093Y-90308350D01*
X152247187Y-90222190D01*
X152247190Y-90222187D01*
X152333350Y-90107093D01*
X152333354Y-90107086D01*
X152383596Y-89972379D01*
X152383598Y-89972372D01*
X152389999Y-89912844D01*
X152390000Y-89912827D01*
X152390000Y-89200000D01*
X151648199Y-89200000D01*
X151581160Y-89180315D01*
X151535405Y-89127511D01*
X151525461Y-89058353D01*
X151526396Y-89052764D01*
X151538635Y-88988607D01*
X151528957Y-88834789D01*
X151528956Y-88834788D01*
X151528768Y-88831787D01*
X151544204Y-88763643D01*
X151594030Y-88714663D01*
X151652523Y-88700000D01*
X152390000Y-88700000D01*
X152390000Y-87987172D01*
X152389999Y-87987155D01*
X152383598Y-87927627D01*
X152383596Y-87927620D01*
X152333354Y-87792913D01*
X152333350Y-87792906D01*
X152247190Y-87677812D01*
X152247187Y-87677809D01*
X152132093Y-87591649D01*
X152132086Y-87591645D01*
X151997379Y-87541403D01*
X151997372Y-87541401D01*
X151937844Y-87535000D01*
X151175000Y-87535000D01*
X151175000Y-88224543D01*
X151155315Y-88291582D01*
X151102511Y-88337337D01*
X151033353Y-88347281D01*
X151020166Y-88344648D01*
X151002064Y-88340000D01*
X151002061Y-88340000D01*
X150886625Y-88340000D01*
X150886615Y-88340000D01*
X150814542Y-88349106D01*
X150745564Y-88337979D01*
X150693551Y-88291327D01*
X150675000Y-88226084D01*
X150675000Y-87535000D01*
X149912155Y-87535000D01*
X149852627Y-87541401D01*
X149852620Y-87541403D01*
X149717913Y-87591645D01*
X149717906Y-87591649D01*
X149602812Y-87677809D01*
X149602809Y-87677812D01*
X149516649Y-87792906D01*
X149516645Y-87792913D01*
X149466403Y-87927620D01*
X149466401Y-87927627D01*
X149460000Y-87987155D01*
X149460000Y-88700000D01*
X150201801Y-88700000D01*
X150268840Y-88719685D01*
X150314595Y-88772489D01*
X150324539Y-88841647D01*
X150323604Y-88847236D01*
X150311365Y-88911392D01*
X150311365Y-88911393D01*
X150321232Y-89068213D01*
X150305796Y-89136357D01*
X150255970Y-89185337D01*
X150197477Y-89200000D01*
X149460000Y-89200000D01*
X149460000Y-89912844D01*
X149466401Y-89972372D01*
X149466403Y-89972379D01*
X149516645Y-90107086D01*
X149516649Y-90107093D01*
X149602809Y-90222187D01*
X149602812Y-90222190D01*
X149717906Y-90308350D01*
X149717913Y-90308354D01*
X149852620Y-90358596D01*
X149852627Y-90358598D01*
X149912155Y-90364999D01*
X149912172Y-90365000D01*
X150278709Y-90365000D01*
X150345748Y-90384685D01*
X150391503Y-90437489D01*
X150401447Y-90506647D01*
X150372422Y-90570203D01*
X150326162Y-90603561D01*
X150212079Y-90650815D01*
X150001981Y-90779563D01*
X150001979Y-90779564D01*
X149814601Y-90939601D01*
X149654564Y-91126979D01*
X149654563Y-91126981D01*
X149525815Y-91337079D01*
X149431517Y-91564735D01*
X149373993Y-91804341D01*
X149354659Y-92049999D01*
X130893373Y-92049999D01*
X130876007Y-91829345D01*
X130818483Y-91589738D01*
X130808128Y-91564738D01*
X130724184Y-91362079D01*
X130595436Y-91151981D01*
X130595435Y-91151979D01*
X130559280Y-91109648D01*
X130435399Y-90964601D01*
X130311516Y-90858795D01*
X130248020Y-90804564D01*
X130248018Y-90804563D01*
X130037919Y-90675815D01*
X130037920Y-90675815D01*
X129923838Y-90628561D01*
X129869435Y-90584720D01*
X129847370Y-90518426D01*
X129864649Y-90450726D01*
X129915787Y-90403116D01*
X129971291Y-90390000D01*
X130337828Y-90390000D01*
X130337844Y-90389999D01*
X130397372Y-90383598D01*
X130397379Y-90383596D01*
X130532086Y-90333354D01*
X130532093Y-90333350D01*
X130647187Y-90247190D01*
X130647190Y-90247187D01*
X130733350Y-90132093D01*
X130733354Y-90132086D01*
X130783596Y-89997379D01*
X130783598Y-89997372D01*
X130789999Y-89937844D01*
X130790000Y-89937827D01*
X130790000Y-89225000D01*
X130048199Y-89225000D01*
X129981160Y-89205315D01*
X129935405Y-89152511D01*
X129925461Y-89083353D01*
X129926396Y-89077764D01*
X129928218Y-89068213D01*
X129938635Y-89013607D01*
X129928957Y-88859789D01*
X129928956Y-88859788D01*
X129928768Y-88856787D01*
X129944204Y-88788643D01*
X129994030Y-88739663D01*
X130052523Y-88725000D01*
X130790000Y-88725000D01*
X130790000Y-88012172D01*
X130789999Y-88012155D01*
X130783598Y-87952627D01*
X130783596Y-87952620D01*
X130733354Y-87817913D01*
X130733350Y-87817906D01*
X130647190Y-87702812D01*
X130647187Y-87702809D01*
X130532093Y-87616649D01*
X130532086Y-87616645D01*
X130397379Y-87566403D01*
X130397372Y-87566401D01*
X130337844Y-87560000D01*
X129574999Y-87560000D01*
X129574999Y-88249543D01*
X129555314Y-88316583D01*
X129502510Y-88362337D01*
X129433352Y-88372281D01*
X129420164Y-88369648D01*
X129402062Y-88365000D01*
X129402061Y-88365000D01*
X129286625Y-88365000D01*
X129286615Y-88365000D01*
X129214542Y-88374106D01*
X129145564Y-88362979D01*
X129093551Y-88316327D01*
X129075000Y-88251084D01*
X129075000Y-87560000D01*
X128312155Y-87560000D01*
X128252627Y-87566401D01*
X128252620Y-87566403D01*
X128117913Y-87616645D01*
X128117906Y-87616649D01*
X128002812Y-87702809D01*
X128002809Y-87702812D01*
X127916649Y-87817906D01*
X127916645Y-87817913D01*
X127866403Y-87952620D01*
X127866401Y-87952627D01*
X127860000Y-88012155D01*
X127860000Y-88725000D01*
X128601801Y-88725000D01*
X128668840Y-88744685D01*
X128714595Y-88797489D01*
X128724539Y-88866647D01*
X128723604Y-88872236D01*
X128711365Y-88936392D01*
X128711365Y-88936393D01*
X128721232Y-89093213D01*
X128705796Y-89161357D01*
X128655970Y-89210337D01*
X128597477Y-89225000D01*
X127860000Y-89225000D01*
X127860000Y-89937844D01*
X127866401Y-89997372D01*
X127866403Y-89997379D01*
X127916645Y-90132086D01*
X127916649Y-90132093D01*
X128002809Y-90247187D01*
X128002812Y-90247190D01*
X128117906Y-90333350D01*
X128117913Y-90333354D01*
X128252620Y-90383596D01*
X128252627Y-90383598D01*
X128312155Y-90389999D01*
X128312172Y-90390000D01*
X128678709Y-90390000D01*
X128745748Y-90409685D01*
X128791503Y-90462489D01*
X128801447Y-90531647D01*
X128772422Y-90595203D01*
X128726162Y-90628561D01*
X128612079Y-90675815D01*
X128401981Y-90804563D01*
X128401979Y-90804564D01*
X128214601Y-90964601D01*
X128054564Y-91151979D01*
X128054563Y-91151981D01*
X127925815Y-91362079D01*
X127831517Y-91589735D01*
X127773993Y-91829341D01*
X127754659Y-92074999D01*
X116049824Y-92074999D01*
X116049824Y-83225001D01*
X122834532Y-83225001D01*
X122854364Y-83451686D01*
X122854366Y-83451697D01*
X122913258Y-83671488D01*
X122913261Y-83671497D01*
X123009431Y-83877732D01*
X123009432Y-83877734D01*
X123139954Y-84064141D01*
X123300858Y-84225045D01*
X123347693Y-84257839D01*
X123487266Y-84355568D01*
X123693504Y-84451739D01*
X123913308Y-84510635D01*
X124075230Y-84524801D01*
X124139998Y-84530468D01*
X124140000Y-84530468D01*
X124140002Y-84530468D01*
X124196672Y-84525509D01*
X124366692Y-84510635D01*
X124586496Y-84451739D01*
X124792734Y-84355568D01*
X124979139Y-84225047D01*
X125140047Y-84064139D01*
X125270568Y-83877734D01*
X125366739Y-83671496D01*
X125425635Y-83451692D01*
X125445468Y-83225001D01*
X132994532Y-83225001D01*
X133014364Y-83451686D01*
X133014366Y-83451697D01*
X133073258Y-83671488D01*
X133073261Y-83671497D01*
X133169431Y-83877732D01*
X133169432Y-83877734D01*
X133299954Y-84064141D01*
X133460858Y-84225045D01*
X133507693Y-84257839D01*
X133647266Y-84355568D01*
X133853504Y-84451739D01*
X134073308Y-84510635D01*
X134235230Y-84524801D01*
X134299998Y-84530468D01*
X134300000Y-84530468D01*
X134300002Y-84530468D01*
X134356673Y-84525509D01*
X134526692Y-84510635D01*
X134746496Y-84451739D01*
X134952734Y-84355568D01*
X135139139Y-84225047D01*
X135300047Y-84064139D01*
X135430568Y-83877734D01*
X135526739Y-83671496D01*
X135585635Y-83451692D01*
X135590157Y-83400001D01*
X145569532Y-83400001D01*
X145589364Y-83626686D01*
X145589366Y-83626697D01*
X145648258Y-83846488D01*
X145648261Y-83846497D01*
X145744431Y-84052732D01*
X145744432Y-84052734D01*
X145874954Y-84239141D01*
X146035858Y-84400045D01*
X146035861Y-84400047D01*
X146222266Y-84530568D01*
X146428504Y-84626739D01*
X146648308Y-84685635D01*
X146810230Y-84699801D01*
X146874998Y-84705468D01*
X146875000Y-84705468D01*
X146875002Y-84705468D01*
X146931672Y-84700509D01*
X147101692Y-84685635D01*
X147321496Y-84626739D01*
X147527734Y-84530568D01*
X147714139Y-84400047D01*
X147875047Y-84239139D01*
X148005568Y-84052734D01*
X148101739Y-83846496D01*
X148160635Y-83626692D01*
X148180468Y-83400001D01*
X155729532Y-83400001D01*
X155749364Y-83626686D01*
X155749366Y-83626697D01*
X155808258Y-83846488D01*
X155808261Y-83846497D01*
X155904431Y-84052732D01*
X155904432Y-84052734D01*
X156034954Y-84239141D01*
X156195858Y-84400045D01*
X156195861Y-84400047D01*
X156382266Y-84530568D01*
X156588504Y-84626739D01*
X156808308Y-84685635D01*
X156970230Y-84699801D01*
X157034998Y-84705468D01*
X157035000Y-84705468D01*
X157035002Y-84705468D01*
X157091672Y-84700509D01*
X157261692Y-84685635D01*
X157481496Y-84626739D01*
X157687734Y-84530568D01*
X157874139Y-84400047D01*
X158035047Y-84239139D01*
X158165568Y-84052734D01*
X158261739Y-83846496D01*
X158320635Y-83626692D01*
X158340468Y-83400000D01*
X158320635Y-83173308D01*
X158261739Y-82953504D01*
X158165568Y-82747266D01*
X158067839Y-82607693D01*
X158035045Y-82560858D01*
X157874141Y-82399954D01*
X157687734Y-82269432D01*
X157687732Y-82269431D01*
X157481497Y-82173261D01*
X157481488Y-82173258D01*
X157261697Y-82114366D01*
X157261693Y-82114365D01*
X157261692Y-82114365D01*
X157261691Y-82114364D01*
X157261686Y-82114364D01*
X157035002Y-82094532D01*
X157034998Y-82094532D01*
X156808313Y-82114364D01*
X156808302Y-82114366D01*
X156588511Y-82173258D01*
X156588502Y-82173261D01*
X156382267Y-82269431D01*
X156382265Y-82269432D01*
X156195858Y-82399954D01*
X156034954Y-82560858D01*
X155904432Y-82747265D01*
X155904431Y-82747267D01*
X155808261Y-82953502D01*
X155808258Y-82953511D01*
X155749366Y-83173302D01*
X155749364Y-83173313D01*
X155729532Y-83399998D01*
X155729532Y-83400001D01*
X148180468Y-83400001D01*
X148180468Y-83400000D01*
X148160635Y-83173308D01*
X148101739Y-82953504D01*
X148005568Y-82747266D01*
X147907839Y-82607693D01*
X147875045Y-82560858D01*
X147714141Y-82399954D01*
X147527734Y-82269432D01*
X147527732Y-82269431D01*
X147321497Y-82173261D01*
X147321488Y-82173258D01*
X147101697Y-82114366D01*
X147101693Y-82114365D01*
X147101692Y-82114365D01*
X147101691Y-82114364D01*
X147101686Y-82114364D01*
X146875002Y-82094532D01*
X146874998Y-82094532D01*
X146648313Y-82114364D01*
X146648302Y-82114366D01*
X146428511Y-82173258D01*
X146428502Y-82173261D01*
X146222267Y-82269431D01*
X146222265Y-82269432D01*
X146035858Y-82399954D01*
X145874954Y-82560858D01*
X145744432Y-82747265D01*
X145744431Y-82747267D01*
X145648261Y-82953502D01*
X145648258Y-82953511D01*
X145589366Y-83173302D01*
X145589364Y-83173313D01*
X145569532Y-83399998D01*
X145569532Y-83400001D01*
X135590157Y-83400001D01*
X135605468Y-83225000D01*
X135585635Y-82998308D01*
X135526739Y-82778504D01*
X135430568Y-82572266D01*
X135300047Y-82385861D01*
X135300045Y-82385858D01*
X135139141Y-82224954D01*
X134952734Y-82094432D01*
X134952732Y-82094431D01*
X134746497Y-81998261D01*
X134746488Y-81998258D01*
X134526697Y-81939366D01*
X134526693Y-81939365D01*
X134526692Y-81939365D01*
X134526691Y-81939364D01*
X134526686Y-81939364D01*
X134300002Y-81919532D01*
X134299998Y-81919532D01*
X134073313Y-81939364D01*
X134073302Y-81939366D01*
X133853511Y-81998258D01*
X133853502Y-81998261D01*
X133647267Y-82094431D01*
X133647265Y-82094432D01*
X133460858Y-82224954D01*
X133299954Y-82385858D01*
X133169432Y-82572265D01*
X133169431Y-82572267D01*
X133073261Y-82778502D01*
X133073258Y-82778511D01*
X133014366Y-82998302D01*
X133014364Y-82998313D01*
X132994532Y-83224998D01*
X132994532Y-83225001D01*
X125445468Y-83225001D01*
X125445468Y-83225000D01*
X125425635Y-82998308D01*
X125366739Y-82778504D01*
X125270568Y-82572266D01*
X125140047Y-82385861D01*
X125140045Y-82385858D01*
X124979141Y-82224954D01*
X124792734Y-82094432D01*
X124792732Y-82094431D01*
X124586497Y-81998261D01*
X124586488Y-81998258D01*
X124366697Y-81939366D01*
X124366693Y-81939365D01*
X124366692Y-81939365D01*
X124366691Y-81939364D01*
X124366686Y-81939364D01*
X124140002Y-81919532D01*
X124139998Y-81919532D01*
X123913313Y-81939364D01*
X123913302Y-81939366D01*
X123693511Y-81998258D01*
X123693502Y-81998261D01*
X123487267Y-82094431D01*
X123487265Y-82094432D01*
X123300858Y-82224954D01*
X123139954Y-82385858D01*
X123009432Y-82572265D01*
X123009431Y-82572267D01*
X122913261Y-82778502D01*
X122913258Y-82778511D01*
X122854366Y-82998302D01*
X122854364Y-82998313D01*
X122834532Y-83224998D01*
X122834532Y-83225001D01*
X116049824Y-83225001D01*
X116049824Y-79175001D01*
X122834532Y-79175001D01*
X122854364Y-79401686D01*
X122854366Y-79401697D01*
X122913258Y-79621488D01*
X122913261Y-79621497D01*
X123009431Y-79827732D01*
X123009432Y-79827734D01*
X123139954Y-80014141D01*
X123300858Y-80175045D01*
X123300861Y-80175047D01*
X123487266Y-80305568D01*
X123693504Y-80401739D01*
X123913308Y-80460635D01*
X124075230Y-80474801D01*
X124139998Y-80480468D01*
X124140000Y-80480468D01*
X124140002Y-80480468D01*
X124196672Y-80475509D01*
X124366692Y-80460635D01*
X124586496Y-80401739D01*
X124792734Y-80305568D01*
X124979139Y-80175047D01*
X125140047Y-80014139D01*
X125270568Y-79827734D01*
X125366739Y-79621496D01*
X125425635Y-79401692D01*
X125445468Y-79175001D01*
X132994532Y-79175001D01*
X133014364Y-79401686D01*
X133014366Y-79401697D01*
X133073258Y-79621488D01*
X133073261Y-79621497D01*
X133169431Y-79827732D01*
X133169432Y-79827734D01*
X133299954Y-80014141D01*
X133460858Y-80175045D01*
X133460861Y-80175047D01*
X133647266Y-80305568D01*
X133853504Y-80401739D01*
X134073308Y-80460635D01*
X134235230Y-80474801D01*
X134299998Y-80480468D01*
X134300000Y-80480468D01*
X134300002Y-80480468D01*
X134356673Y-80475509D01*
X134526692Y-80460635D01*
X134746496Y-80401739D01*
X134952734Y-80305568D01*
X135139139Y-80175047D01*
X135300047Y-80014139D01*
X135430568Y-79827734D01*
X135526739Y-79621496D01*
X135585635Y-79401692D01*
X135598906Y-79250001D01*
X145544532Y-79250001D01*
X145564364Y-79476686D01*
X145564366Y-79476697D01*
X145623258Y-79696488D01*
X145623261Y-79696497D01*
X145719431Y-79902732D01*
X145719432Y-79902734D01*
X145849954Y-80089141D01*
X146010858Y-80250045D01*
X146010861Y-80250047D01*
X146197266Y-80380568D01*
X146403504Y-80476739D01*
X146623308Y-80535635D01*
X146785230Y-80549801D01*
X146849998Y-80555468D01*
X146850000Y-80555468D01*
X146850002Y-80555468D01*
X146906673Y-80550509D01*
X147076692Y-80535635D01*
X147296496Y-80476739D01*
X147502734Y-80380568D01*
X147689139Y-80250047D01*
X147850047Y-80089139D01*
X147980568Y-79902734D01*
X148076739Y-79696496D01*
X148135635Y-79476692D01*
X148155468Y-79250001D01*
X155704532Y-79250001D01*
X155724364Y-79476686D01*
X155724366Y-79476697D01*
X155783258Y-79696488D01*
X155783261Y-79696497D01*
X155879431Y-79902732D01*
X155879432Y-79902734D01*
X156009954Y-80089141D01*
X156170858Y-80250045D01*
X156170861Y-80250047D01*
X156357266Y-80380568D01*
X156563504Y-80476739D01*
X156783308Y-80535635D01*
X156945230Y-80549801D01*
X157009998Y-80555468D01*
X157010000Y-80555468D01*
X157010002Y-80555468D01*
X157066672Y-80550509D01*
X157236692Y-80535635D01*
X157456496Y-80476739D01*
X157662734Y-80380568D01*
X157849139Y-80250047D01*
X158010047Y-80089139D01*
X158140568Y-79902734D01*
X158236739Y-79696496D01*
X158295635Y-79476692D01*
X158315468Y-79250000D01*
X158295635Y-79023308D01*
X158236739Y-78803504D01*
X158140568Y-78597266D01*
X158010047Y-78410861D01*
X158010045Y-78410858D01*
X157849141Y-78249954D01*
X157662734Y-78119432D01*
X157662732Y-78119431D01*
X157456497Y-78023261D01*
X157456488Y-78023258D01*
X157236697Y-77964366D01*
X157236693Y-77964365D01*
X157236692Y-77964365D01*
X157236691Y-77964364D01*
X157236686Y-77964364D01*
X157010002Y-77944532D01*
X157009998Y-77944532D01*
X156783313Y-77964364D01*
X156783302Y-77964366D01*
X156563511Y-78023258D01*
X156563502Y-78023261D01*
X156357267Y-78119431D01*
X156357265Y-78119432D01*
X156170858Y-78249954D01*
X156009954Y-78410858D01*
X155879432Y-78597265D01*
X155879431Y-78597267D01*
X155783261Y-78803502D01*
X155783258Y-78803511D01*
X155724366Y-79023302D01*
X155724364Y-79023313D01*
X155704532Y-79249998D01*
X155704532Y-79250001D01*
X148155468Y-79250001D01*
X148155468Y-79250000D01*
X148135635Y-79023308D01*
X148076739Y-78803504D01*
X147980568Y-78597266D01*
X147850047Y-78410861D01*
X147850045Y-78410858D01*
X147689141Y-78249954D01*
X147502734Y-78119432D01*
X147502732Y-78119431D01*
X147296497Y-78023261D01*
X147296488Y-78023258D01*
X147076697Y-77964366D01*
X147076693Y-77964365D01*
X147076692Y-77964365D01*
X147076691Y-77964364D01*
X147076686Y-77964364D01*
X146850002Y-77944532D01*
X146849998Y-77944532D01*
X146623313Y-77964364D01*
X146623302Y-77964366D01*
X146403511Y-78023258D01*
X146403502Y-78023261D01*
X146197267Y-78119431D01*
X146197265Y-78119432D01*
X146010858Y-78249954D01*
X145849954Y-78410858D01*
X145719432Y-78597265D01*
X145719431Y-78597267D01*
X145623261Y-78803502D01*
X145623258Y-78803511D01*
X145564366Y-79023302D01*
X145564364Y-79023313D01*
X145544532Y-79249998D01*
X145544532Y-79250001D01*
X135598906Y-79250001D01*
X135605468Y-79175000D01*
X135585635Y-78948308D01*
X135526739Y-78728504D01*
X135430568Y-78522266D01*
X135300047Y-78335861D01*
X135300045Y-78335858D01*
X135139141Y-78174954D01*
X134952734Y-78044432D01*
X134952732Y-78044431D01*
X134746497Y-77948261D01*
X134746488Y-77948258D01*
X134526697Y-77889366D01*
X134526693Y-77889365D01*
X134526692Y-77889365D01*
X134526691Y-77889364D01*
X134526686Y-77889364D01*
X134300002Y-77869532D01*
X134299998Y-77869532D01*
X134073313Y-77889364D01*
X134073302Y-77889366D01*
X133853511Y-77948258D01*
X133853502Y-77948261D01*
X133647267Y-78044431D01*
X133647265Y-78044432D01*
X133460858Y-78174954D01*
X133299954Y-78335858D01*
X133169432Y-78522265D01*
X133169431Y-78522267D01*
X133073261Y-78728502D01*
X133073258Y-78728511D01*
X133014366Y-78948302D01*
X133014364Y-78948313D01*
X132994532Y-79174998D01*
X132994532Y-79175001D01*
X125445468Y-79175001D01*
X125445468Y-79175000D01*
X125425635Y-78948308D01*
X125366739Y-78728504D01*
X125270568Y-78522266D01*
X125140047Y-78335861D01*
X125140045Y-78335858D01*
X124979141Y-78174954D01*
X124792734Y-78044432D01*
X124792732Y-78044431D01*
X124586497Y-77948261D01*
X124586488Y-77948258D01*
X124366697Y-77889366D01*
X124366693Y-77889365D01*
X124366692Y-77889365D01*
X124366691Y-77889364D01*
X124366686Y-77889364D01*
X124140002Y-77869532D01*
X124139998Y-77869532D01*
X123913313Y-77889364D01*
X123913302Y-77889366D01*
X123693511Y-77948258D01*
X123693502Y-77948261D01*
X123487267Y-78044431D01*
X123487265Y-78044432D01*
X123300858Y-78174954D01*
X123139954Y-78335858D01*
X123009432Y-78522265D01*
X123009431Y-78522267D01*
X122913261Y-78728502D01*
X122913258Y-78728511D01*
X122854366Y-78948302D01*
X122854364Y-78948313D01*
X122834532Y-79174998D01*
X122834532Y-79175001D01*
X116049824Y-79175001D01*
X116049824Y-74875000D01*
X127804659Y-74875000D01*
X127823993Y-75120658D01*
X127881517Y-75360264D01*
X127975815Y-75587920D01*
X128104563Y-75798018D01*
X128104564Y-75798020D01*
X128104567Y-75798023D01*
X128264601Y-75985399D01*
X128409648Y-76109280D01*
X128451979Y-76145435D01*
X128451981Y-76145436D01*
X128662079Y-76274184D01*
X128889735Y-76368482D01*
X128889736Y-76368482D01*
X128889738Y-76368483D01*
X129129345Y-76426007D01*
X129375000Y-76445341D01*
X129620655Y-76426007D01*
X129860262Y-76368483D01*
X130087920Y-76274184D01*
X130298023Y-76145433D01*
X130485399Y-75985399D01*
X130645433Y-75798023D01*
X130774184Y-75587920D01*
X130868483Y-75360262D01*
X130926007Y-75120655D01*
X130945341Y-74875000D01*
X130943373Y-74850000D01*
X149429659Y-74850000D01*
X149448993Y-75095658D01*
X149506517Y-75335264D01*
X149600815Y-75562920D01*
X149729563Y-75773018D01*
X149729564Y-75773020D01*
X149750916Y-75798020D01*
X149889601Y-75960399D01*
X150034648Y-76084280D01*
X150076979Y-76120435D01*
X150076981Y-76120436D01*
X150287079Y-76249184D01*
X150514735Y-76343482D01*
X150514736Y-76343482D01*
X150514738Y-76343483D01*
X150754345Y-76401007D01*
X151000000Y-76420341D01*
X151245655Y-76401007D01*
X151485262Y-76343483D01*
X151712920Y-76249184D01*
X151923023Y-76120433D01*
X152110399Y-75960399D01*
X152270433Y-75773023D01*
X152399184Y-75562920D01*
X152493483Y-75335262D01*
X152551007Y-75095655D01*
X152570341Y-74850000D01*
X152551007Y-74604345D01*
X152493483Y-74364738D01*
X152493482Y-74364735D01*
X152399184Y-74137079D01*
X152270436Y-73926981D01*
X152270435Y-73926979D01*
X152234280Y-73884648D01*
X152110399Y-73739601D01*
X151986516Y-73633795D01*
X151923020Y-73579564D01*
X151923018Y-73579563D01*
X151712920Y-73450815D01*
X151485264Y-73356517D01*
X151245658Y-73298993D01*
X151000000Y-73279659D01*
X150754341Y-73298993D01*
X150514735Y-73356517D01*
X150287079Y-73450815D01*
X150076981Y-73579563D01*
X150076979Y-73579564D01*
X149889601Y-73739601D01*
X149729564Y-73926979D01*
X149729563Y-73926981D01*
X149600815Y-74137079D01*
X149506517Y-74364735D01*
X149448993Y-74604341D01*
X149429659Y-74850000D01*
X130943373Y-74850000D01*
X130926007Y-74629345D01*
X130868483Y-74389738D01*
X130858128Y-74364738D01*
X130774184Y-74162079D01*
X130645436Y-73951981D01*
X130645435Y-73951979D01*
X130609280Y-73909648D01*
X130485399Y-73764601D01*
X130361516Y-73658795D01*
X130298020Y-73604564D01*
X130298018Y-73604563D01*
X130087920Y-73475815D01*
X129860264Y-73381517D01*
X129620658Y-73323993D01*
X129436413Y-73309492D01*
X129375000Y-73304659D01*
X129374999Y-73304659D01*
X129129341Y-73323993D01*
X128889735Y-73381517D01*
X128662079Y-73475815D01*
X128451981Y-73604563D01*
X128451979Y-73604564D01*
X128264601Y-73764601D01*
X128104564Y-73951979D01*
X128104563Y-73951981D01*
X127975815Y-74162079D01*
X127881517Y-74389735D01*
X127823993Y-74629341D01*
X127804659Y-74875000D01*
X116049824Y-74875000D01*
X116049824Y-70622844D01*
X134435000Y-70622844D01*
X134441401Y-70682372D01*
X134441403Y-70682379D01*
X134491645Y-70817086D01*
X134491649Y-70817093D01*
X134577809Y-70932187D01*
X134577812Y-70932190D01*
X134692906Y-71018350D01*
X134692913Y-71018354D01*
X134827620Y-71068596D01*
X134827627Y-71068598D01*
X134887155Y-71074999D01*
X134887172Y-71075000D01*
X135585000Y-71075000D01*
X135585000Y-70236821D01*
X135604685Y-70169782D01*
X135657489Y-70124027D01*
X135726647Y-70114083D01*
X135745547Y-70118329D01*
X135767173Y-70125000D01*
X135868723Y-70125000D01*
X135868724Y-70125000D01*
X135942519Y-70113877D01*
X136011742Y-70123350D01*
X136064857Y-70168744D01*
X136084997Y-70235648D01*
X136085000Y-70236492D01*
X136085000Y-71075000D01*
X136782828Y-71075000D01*
X136782844Y-71074999D01*
X136842372Y-71068598D01*
X136842379Y-71068596D01*
X136977086Y-71018354D01*
X136977093Y-71018350D01*
X137092187Y-70932190D01*
X137092190Y-70932187D01*
X137178350Y-70817093D01*
X137178355Y-70817084D01*
X137207075Y-70740081D01*
X137248945Y-70684147D01*
X137314409Y-70659729D01*
X137382682Y-70674580D01*
X137414484Y-70699428D01*
X137423216Y-70708913D01*
X137423219Y-70708915D01*
X137423222Y-70708918D01*
X137606365Y-70851464D01*
X137606371Y-70851468D01*
X137606374Y-70851470D01*
X137810497Y-70961936D01*
X137924487Y-71001068D01*
X138030015Y-71037297D01*
X138030017Y-71037297D01*
X138030019Y-71037298D01*
X138258951Y-71075500D01*
X138258952Y-71075500D01*
X138491048Y-71075500D01*
X138491049Y-71075500D01*
X138719981Y-71037298D01*
X138939503Y-70961936D01*
X139143626Y-70851470D01*
X139326784Y-70708913D01*
X139383002Y-70647844D01*
X156050000Y-70647844D01*
X156056401Y-70707372D01*
X156056403Y-70707379D01*
X156106645Y-70842086D01*
X156106649Y-70842093D01*
X156192809Y-70957187D01*
X156192812Y-70957190D01*
X156307906Y-71043350D01*
X156307913Y-71043354D01*
X156442620Y-71093596D01*
X156442627Y-71093598D01*
X156502155Y-71099999D01*
X156502172Y-71100000D01*
X157200000Y-71100000D01*
X157200000Y-70261821D01*
X157219685Y-70194782D01*
X157272489Y-70149027D01*
X157341647Y-70139083D01*
X157360547Y-70143329D01*
X157382173Y-70150000D01*
X157483723Y-70150000D01*
X157483724Y-70150000D01*
X157557519Y-70138877D01*
X157626742Y-70148350D01*
X157679857Y-70193744D01*
X157699997Y-70260648D01*
X157700000Y-70261492D01*
X157700000Y-71100000D01*
X158397828Y-71100000D01*
X158397844Y-71099999D01*
X158457372Y-71093598D01*
X158457379Y-71093596D01*
X158592086Y-71043354D01*
X158592093Y-71043350D01*
X158707187Y-70957190D01*
X158707190Y-70957187D01*
X158793350Y-70842093D01*
X158793355Y-70842084D01*
X158822075Y-70765081D01*
X158863945Y-70709147D01*
X158929409Y-70684729D01*
X158997682Y-70699580D01*
X159029484Y-70724428D01*
X159038216Y-70733913D01*
X159038219Y-70733915D01*
X159038222Y-70733918D01*
X159221365Y-70876464D01*
X159221371Y-70876468D01*
X159221374Y-70876470D01*
X159425497Y-70986936D01*
X159517003Y-71018350D01*
X159645015Y-71062297D01*
X159645017Y-71062297D01*
X159645019Y-71062298D01*
X159873951Y-71100500D01*
X159873952Y-71100500D01*
X160106048Y-71100500D01*
X160106049Y-71100500D01*
X160334981Y-71062298D01*
X160554503Y-70986936D01*
X160758626Y-70876470D01*
X160941784Y-70733913D01*
X161098979Y-70563153D01*
X161225924Y-70368849D01*
X161319157Y-70156300D01*
X161376134Y-69931305D01*
X161376446Y-69927541D01*
X161395300Y-69700006D01*
X161395300Y-69699993D01*
X161376135Y-69468702D01*
X161376133Y-69468691D01*
X161319157Y-69243699D01*
X161225924Y-69031151D01*
X161098983Y-68836852D01*
X161098980Y-68836849D01*
X161098979Y-68836847D01*
X160941784Y-68666087D01*
X160941779Y-68666083D01*
X160941777Y-68666081D01*
X160758634Y-68523535D01*
X160758628Y-68523531D01*
X160554504Y-68413064D01*
X160554495Y-68413061D01*
X160334984Y-68337702D01*
X160147404Y-68306401D01*
X160106049Y-68299500D01*
X159873951Y-68299500D01*
X159832596Y-68306401D01*
X159645015Y-68337702D01*
X159425504Y-68413061D01*
X159425495Y-68413064D01*
X159221371Y-68523531D01*
X159221365Y-68523535D01*
X159038222Y-68666081D01*
X159038215Y-68666087D01*
X159029484Y-68675572D01*
X158969595Y-68711561D01*
X158899757Y-68709458D01*
X158842143Y-68669932D01*
X158822075Y-68634918D01*
X158793355Y-68557915D01*
X158793350Y-68557906D01*
X158707190Y-68442812D01*
X158707187Y-68442809D01*
X158592093Y-68356649D01*
X158592086Y-68356645D01*
X158457379Y-68306403D01*
X158457372Y-68306401D01*
X158397844Y-68300000D01*
X157700000Y-68300000D01*
X157700000Y-69138178D01*
X157680315Y-69205217D01*
X157627511Y-69250972D01*
X157558353Y-69260916D01*
X157539454Y-69256670D01*
X157517829Y-69250000D01*
X157517827Y-69250000D01*
X157416276Y-69250000D01*
X157416268Y-69250000D01*
X157342481Y-69261122D01*
X157273256Y-69251649D01*
X157220143Y-69206254D01*
X157200003Y-69139350D01*
X157200000Y-69138507D01*
X157200000Y-68300000D01*
X156502155Y-68300000D01*
X156442627Y-68306401D01*
X156442620Y-68306403D01*
X156307913Y-68356645D01*
X156307906Y-68356649D01*
X156192812Y-68442809D01*
X156192809Y-68442812D01*
X156106649Y-68557906D01*
X156106645Y-68557913D01*
X156056403Y-68692620D01*
X156056401Y-68692627D01*
X156050000Y-68752155D01*
X156050000Y-69450000D01*
X156889997Y-69450000D01*
X156957036Y-69469685D01*
X157002791Y-69522489D01*
X157012735Y-69591647D01*
X157010888Y-69601592D01*
X156996189Y-69665992D01*
X156996189Y-69665993D01*
X157007021Y-69810532D01*
X157004920Y-69810689D01*
X157001405Y-69868139D01*
X156960110Y-69924499D01*
X156894899Y-69949587D01*
X156884784Y-69950000D01*
X156050000Y-69950000D01*
X156050000Y-70647844D01*
X139383002Y-70647844D01*
X139483979Y-70538153D01*
X139610924Y-70343849D01*
X139704157Y-70131300D01*
X139761134Y-69906305D01*
X139761698Y-69899499D01*
X139780300Y-69675006D01*
X139780300Y-69674993D01*
X139761135Y-69443702D01*
X139761133Y-69443691D01*
X139704157Y-69218699D01*
X139610924Y-69006151D01*
X139483983Y-68811852D01*
X139483980Y-68811849D01*
X139483979Y-68811847D01*
X139326784Y-68641087D01*
X139326779Y-68641083D01*
X139326777Y-68641081D01*
X139143634Y-68498535D01*
X139143628Y-68498531D01*
X138939504Y-68388064D01*
X138939495Y-68388061D01*
X138719984Y-68312702D01*
X138532404Y-68281401D01*
X138491049Y-68274500D01*
X138258951Y-68274500D01*
X138217596Y-68281401D01*
X138030015Y-68312702D01*
X137810504Y-68388061D01*
X137810495Y-68388064D01*
X137606371Y-68498531D01*
X137606365Y-68498535D01*
X137423222Y-68641081D01*
X137423215Y-68641087D01*
X137414484Y-68650572D01*
X137354595Y-68686561D01*
X137284757Y-68684458D01*
X137227143Y-68644932D01*
X137207075Y-68609918D01*
X137178355Y-68532915D01*
X137178350Y-68532906D01*
X137092190Y-68417812D01*
X137092187Y-68417809D01*
X136977093Y-68331649D01*
X136977086Y-68331645D01*
X136842379Y-68281403D01*
X136842372Y-68281401D01*
X136782844Y-68275000D01*
X136085000Y-68275000D01*
X136085000Y-69113178D01*
X136065315Y-69180217D01*
X136012511Y-69225972D01*
X135943353Y-69235916D01*
X135924454Y-69231670D01*
X135902829Y-69225000D01*
X135902827Y-69225000D01*
X135801276Y-69225000D01*
X135801268Y-69225000D01*
X135727481Y-69236122D01*
X135658256Y-69226649D01*
X135605143Y-69181254D01*
X135585003Y-69114350D01*
X135585000Y-69113507D01*
X135585000Y-68275000D01*
X134887155Y-68275000D01*
X134827627Y-68281401D01*
X134827620Y-68281403D01*
X134692913Y-68331645D01*
X134692906Y-68331649D01*
X134577812Y-68417809D01*
X134577809Y-68417812D01*
X134491649Y-68532906D01*
X134491645Y-68532913D01*
X134441403Y-68667620D01*
X134441401Y-68667627D01*
X134435000Y-68727155D01*
X134435000Y-69425000D01*
X135274997Y-69425000D01*
X135342036Y-69444685D01*
X135387791Y-69497489D01*
X135397735Y-69566647D01*
X135395888Y-69576592D01*
X135381189Y-69640992D01*
X135381189Y-69640993D01*
X135392021Y-69785532D01*
X135389920Y-69785689D01*
X135386405Y-69843139D01*
X135345110Y-69899499D01*
X135279899Y-69924587D01*
X135269784Y-69925000D01*
X134435000Y-69925000D01*
X134435000Y-70622844D01*
X116049824Y-70622844D01*
X116049824Y-66575000D01*
X127804659Y-66575000D01*
X127823993Y-66820658D01*
X127881517Y-67060264D01*
X127975815Y-67287920D01*
X128104563Y-67498018D01*
X128104564Y-67498020D01*
X128104567Y-67498023D01*
X128264601Y-67685399D01*
X128409648Y-67809280D01*
X128451979Y-67845435D01*
X128451981Y-67845436D01*
X128662079Y-67974184D01*
X128889735Y-68068482D01*
X128889736Y-68068482D01*
X128889738Y-68068483D01*
X129129345Y-68126007D01*
X129375000Y-68145341D01*
X129620655Y-68126007D01*
X129860262Y-68068483D01*
X130087920Y-67974184D01*
X130298023Y-67845433D01*
X130485399Y-67685399D01*
X130645433Y-67498023D01*
X130774184Y-67287920D01*
X130868483Y-67060262D01*
X130926007Y-66820655D01*
X130945341Y-66575000D01*
X130943373Y-66549999D01*
X149429659Y-66549999D01*
X149448993Y-66795658D01*
X149506517Y-67035264D01*
X149600815Y-67262920D01*
X149729563Y-67473018D01*
X149729564Y-67473020D01*
X149750916Y-67498020D01*
X149889601Y-67660399D01*
X150034648Y-67784280D01*
X150076979Y-67820435D01*
X150076981Y-67820436D01*
X150287079Y-67949184D01*
X150514735Y-68043482D01*
X150514736Y-68043482D01*
X150514738Y-68043483D01*
X150754345Y-68101007D01*
X151000000Y-68120341D01*
X151245655Y-68101007D01*
X151485262Y-68043483D01*
X151712920Y-67949184D01*
X151923023Y-67820433D01*
X152110399Y-67660399D01*
X152270433Y-67473023D01*
X152399184Y-67262920D01*
X152493483Y-67035262D01*
X152551007Y-66795655D01*
X152570341Y-66550000D01*
X152551007Y-66304345D01*
X152493483Y-66064738D01*
X152493482Y-66064735D01*
X152399184Y-65837079D01*
X152270436Y-65626981D01*
X152270435Y-65626979D01*
X152234280Y-65584648D01*
X152110399Y-65439601D01*
X151986516Y-65333795D01*
X151923020Y-65279564D01*
X151923018Y-65279563D01*
X151712919Y-65150815D01*
X151712920Y-65150815D01*
X151598838Y-65103561D01*
X151544435Y-65059720D01*
X151522370Y-64993426D01*
X151539649Y-64925726D01*
X151590787Y-64878116D01*
X151646291Y-64865000D01*
X152012828Y-64865000D01*
X152012844Y-64864999D01*
X152072372Y-64858598D01*
X152072379Y-64858596D01*
X152207086Y-64808354D01*
X152207093Y-64808350D01*
X152322187Y-64722190D01*
X152322190Y-64722187D01*
X152408350Y-64607093D01*
X152408354Y-64607086D01*
X152458596Y-64472379D01*
X152458598Y-64472372D01*
X152464999Y-64412844D01*
X152465000Y-64412827D01*
X152465000Y-63700000D01*
X151723199Y-63700000D01*
X151656160Y-63680315D01*
X151610405Y-63627511D01*
X151600461Y-63558353D01*
X151601396Y-63552764D01*
X151613635Y-63488607D01*
X151603957Y-63334789D01*
X151603956Y-63334788D01*
X151603768Y-63331787D01*
X151619204Y-63263643D01*
X151669030Y-63214663D01*
X151727523Y-63200000D01*
X152465000Y-63200000D01*
X152465000Y-62487172D01*
X152464999Y-62487155D01*
X152458598Y-62427627D01*
X152458596Y-62427620D01*
X152408354Y-62292913D01*
X152408350Y-62292906D01*
X152322190Y-62177812D01*
X152322187Y-62177809D01*
X152207093Y-62091649D01*
X152207086Y-62091645D01*
X152072379Y-62041403D01*
X152072372Y-62041401D01*
X152012844Y-62035000D01*
X151250000Y-62035000D01*
X151250000Y-62724543D01*
X151230315Y-62791582D01*
X151177511Y-62837337D01*
X151108353Y-62847281D01*
X151095166Y-62844648D01*
X151077064Y-62840000D01*
X151077061Y-62840000D01*
X150961625Y-62840000D01*
X150961615Y-62840000D01*
X150889542Y-62849106D01*
X150820564Y-62837979D01*
X150768551Y-62791327D01*
X150750000Y-62726084D01*
X150750000Y-62035000D01*
X149987155Y-62035000D01*
X149927627Y-62041401D01*
X149927620Y-62041403D01*
X149792913Y-62091645D01*
X149792906Y-62091649D01*
X149677812Y-62177809D01*
X149677809Y-62177812D01*
X149591649Y-62292906D01*
X149591645Y-62292913D01*
X149541403Y-62427620D01*
X149541401Y-62427627D01*
X149535000Y-62487155D01*
X149535000Y-63200000D01*
X150276801Y-63200000D01*
X150343840Y-63219685D01*
X150389595Y-63272489D01*
X150399539Y-63341647D01*
X150398604Y-63347236D01*
X150386365Y-63411392D01*
X150386365Y-63411393D01*
X150396232Y-63568213D01*
X150380796Y-63636357D01*
X150330970Y-63685337D01*
X150272477Y-63700000D01*
X149535000Y-63700000D01*
X149535000Y-64412844D01*
X149541401Y-64472372D01*
X149541403Y-64472379D01*
X149591645Y-64607086D01*
X149591649Y-64607093D01*
X149677809Y-64722187D01*
X149677812Y-64722190D01*
X149792906Y-64808350D01*
X149792913Y-64808354D01*
X149927620Y-64858596D01*
X149927627Y-64858598D01*
X149987155Y-64864999D01*
X149987172Y-64865000D01*
X150353709Y-64865000D01*
X150420748Y-64884685D01*
X150466503Y-64937489D01*
X150476447Y-65006647D01*
X150447422Y-65070203D01*
X150401162Y-65103561D01*
X150287079Y-65150815D01*
X150076981Y-65279563D01*
X150076979Y-65279564D01*
X149889601Y-65439601D01*
X149729564Y-65626979D01*
X149729563Y-65626981D01*
X149600815Y-65837079D01*
X149506517Y-66064735D01*
X149448993Y-66304341D01*
X149429659Y-66549999D01*
X130943373Y-66549999D01*
X130926007Y-66329345D01*
X130868483Y-66089738D01*
X130858128Y-66064738D01*
X130774184Y-65862079D01*
X130645436Y-65651981D01*
X130645435Y-65651979D01*
X130609280Y-65609648D01*
X130485399Y-65464601D01*
X130361516Y-65358795D01*
X130298020Y-65304564D01*
X130298018Y-65304563D01*
X130087919Y-65175815D01*
X130087920Y-65175815D01*
X129973838Y-65128561D01*
X129919435Y-65084720D01*
X129897370Y-65018426D01*
X129914649Y-64950726D01*
X129965787Y-64903116D01*
X130021291Y-64890000D01*
X130387828Y-64890000D01*
X130387844Y-64889999D01*
X130447372Y-64883598D01*
X130447379Y-64883596D01*
X130582086Y-64833354D01*
X130582093Y-64833350D01*
X130697187Y-64747190D01*
X130697190Y-64747187D01*
X130783350Y-64632093D01*
X130783354Y-64632086D01*
X130833596Y-64497379D01*
X130833598Y-64497372D01*
X130839999Y-64437844D01*
X130840000Y-64437827D01*
X130840000Y-63725000D01*
X130098199Y-63725000D01*
X130031160Y-63705315D01*
X129985405Y-63652511D01*
X129975461Y-63583353D01*
X129976396Y-63577764D01*
X129978218Y-63568213D01*
X129988635Y-63513607D01*
X129978957Y-63359789D01*
X129978956Y-63359788D01*
X129978768Y-63356787D01*
X129994204Y-63288643D01*
X130044030Y-63239663D01*
X130102523Y-63225000D01*
X130840000Y-63225000D01*
X130840000Y-62512172D01*
X130839999Y-62512155D01*
X130833598Y-62452627D01*
X130833596Y-62452620D01*
X130783354Y-62317913D01*
X130783350Y-62317906D01*
X130697190Y-62202812D01*
X130697187Y-62202809D01*
X130582093Y-62116649D01*
X130582086Y-62116645D01*
X130447379Y-62066403D01*
X130447372Y-62066401D01*
X130387844Y-62060000D01*
X129625000Y-62060000D01*
X129625000Y-62749543D01*
X129605315Y-62816582D01*
X129552511Y-62862337D01*
X129483353Y-62872281D01*
X129470166Y-62869648D01*
X129452064Y-62865000D01*
X129452061Y-62865000D01*
X129336625Y-62865000D01*
X129336615Y-62865000D01*
X129264541Y-62874106D01*
X129195563Y-62862979D01*
X129143550Y-62816326D01*
X129124999Y-62751084D01*
X129125000Y-62060000D01*
X128362155Y-62060000D01*
X128302627Y-62066401D01*
X128302620Y-62066403D01*
X128167913Y-62116645D01*
X128167906Y-62116649D01*
X128052812Y-62202809D01*
X128052809Y-62202812D01*
X127966649Y-62317906D01*
X127966645Y-62317913D01*
X127916403Y-62452620D01*
X127916401Y-62452627D01*
X127910000Y-62512155D01*
X127910000Y-63225000D01*
X128651801Y-63225000D01*
X128718840Y-63244685D01*
X128764595Y-63297489D01*
X128774539Y-63366647D01*
X128773604Y-63372236D01*
X128761365Y-63436392D01*
X128761365Y-63436393D01*
X128771232Y-63593213D01*
X128755796Y-63661357D01*
X128705970Y-63710337D01*
X128647477Y-63725000D01*
X127910000Y-63725000D01*
X127910000Y-64437844D01*
X127916401Y-64497372D01*
X127916403Y-64497379D01*
X127966645Y-64632086D01*
X127966649Y-64632093D01*
X128052809Y-64747187D01*
X128052812Y-64747190D01*
X128167906Y-64833350D01*
X128167913Y-64833354D01*
X128302620Y-64883596D01*
X128302627Y-64883598D01*
X128362155Y-64889999D01*
X128362172Y-64890000D01*
X128728709Y-64890000D01*
X128795748Y-64909685D01*
X128841503Y-64962489D01*
X128851447Y-65031647D01*
X128822422Y-65095203D01*
X128776162Y-65128561D01*
X128662079Y-65175815D01*
X128451981Y-65304563D01*
X128451979Y-65304564D01*
X128264601Y-65464601D01*
X128104564Y-65651979D01*
X128104563Y-65651981D01*
X127975815Y-65862079D01*
X127881517Y-66089735D01*
X127823993Y-66329341D01*
X127804659Y-66575000D01*
X116049824Y-66575000D01*
X116049824Y-53950001D01*
X122884532Y-53950001D01*
X122904364Y-54176686D01*
X122904366Y-54176697D01*
X122963258Y-54396488D01*
X122963261Y-54396497D01*
X123059431Y-54602732D01*
X123059432Y-54602734D01*
X123189954Y-54789141D01*
X123350858Y-54950045D01*
X123350861Y-54950047D01*
X123537266Y-55080568D01*
X123743504Y-55176739D01*
X123963308Y-55235635D01*
X124125230Y-55249801D01*
X124189998Y-55255468D01*
X124190000Y-55255468D01*
X124190002Y-55255468D01*
X124246672Y-55250509D01*
X124416692Y-55235635D01*
X124636496Y-55176739D01*
X124842734Y-55080568D01*
X125029139Y-54950047D01*
X125190047Y-54789139D01*
X125320568Y-54602734D01*
X125416739Y-54396496D01*
X125475635Y-54176692D01*
X125495468Y-53950001D01*
X133044532Y-53950001D01*
X133064364Y-54176686D01*
X133064366Y-54176697D01*
X133123258Y-54396488D01*
X133123261Y-54396497D01*
X133219431Y-54602732D01*
X133219432Y-54602734D01*
X133349954Y-54789141D01*
X133510858Y-54950045D01*
X133510861Y-54950047D01*
X133697266Y-55080568D01*
X133903504Y-55176739D01*
X134123308Y-55235635D01*
X134285230Y-55249801D01*
X134349998Y-55255468D01*
X134350000Y-55255468D01*
X134350002Y-55255468D01*
X134406672Y-55250509D01*
X134576692Y-55235635D01*
X134796496Y-55176739D01*
X135002734Y-55080568D01*
X135189139Y-54950047D01*
X135350047Y-54789139D01*
X135480568Y-54602734D01*
X135576739Y-54396496D01*
X135635635Y-54176692D01*
X135655468Y-53950000D01*
X135642345Y-53800001D01*
X145444532Y-53800001D01*
X145464364Y-54026686D01*
X145464366Y-54026697D01*
X145523258Y-54246488D01*
X145523261Y-54246497D01*
X145619431Y-54452732D01*
X145619432Y-54452734D01*
X145749954Y-54639141D01*
X145910858Y-54800045D01*
X145910861Y-54800047D01*
X146097266Y-54930568D01*
X146303504Y-55026739D01*
X146523308Y-55085635D01*
X146685230Y-55099801D01*
X146749998Y-55105468D01*
X146750000Y-55105468D01*
X146750002Y-55105468D01*
X146806672Y-55100509D01*
X146976692Y-55085635D01*
X147196496Y-55026739D01*
X147402734Y-54930568D01*
X147589139Y-54800047D01*
X147750047Y-54639139D01*
X147880568Y-54452734D01*
X147976739Y-54246496D01*
X148035635Y-54026692D01*
X148055468Y-53800000D01*
X148035635Y-53573308D01*
X148029389Y-53549999D01*
X155631127Y-53549999D01*
X155631128Y-53550000D01*
X156399424Y-53550000D01*
X156466463Y-53569685D01*
X156512218Y-53622489D01*
X156522162Y-53691647D01*
X156521897Y-53693397D01*
X156505014Y-53799996D01*
X156505014Y-53800003D01*
X156521897Y-53906603D01*
X156512942Y-53975896D01*
X156467946Y-54029348D01*
X156401194Y-54049987D01*
X156399424Y-54050000D01*
X155631128Y-54050000D01*
X155683730Y-54246317D01*
X155683734Y-54246326D01*
X155779865Y-54452482D01*
X155910342Y-54638820D01*
X156071179Y-54799657D01*
X156257517Y-54930134D01*
X156463673Y-55026265D01*
X156463682Y-55026269D01*
X156659999Y-55078872D01*
X156660000Y-55078871D01*
X156660000Y-54310575D01*
X156679685Y-54243536D01*
X156732489Y-54197781D01*
X156801647Y-54187837D01*
X156803331Y-54188091D01*
X156835699Y-54193218D01*
X156878515Y-54200000D01*
X156878519Y-54200000D01*
X156941485Y-54200000D01*
X156984300Y-54193218D01*
X157016602Y-54188102D01*
X157085894Y-54197056D01*
X157139347Y-54242052D01*
X157159987Y-54308803D01*
X157160000Y-54310575D01*
X157160000Y-55078872D01*
X157356317Y-55026269D01*
X157356326Y-55026265D01*
X157562482Y-54930134D01*
X157748820Y-54799657D01*
X157909657Y-54638820D01*
X158040134Y-54452482D01*
X158136265Y-54246326D01*
X158136269Y-54246317D01*
X158188872Y-54050000D01*
X157420576Y-54050000D01*
X157353537Y-54030315D01*
X157307782Y-53977511D01*
X157297838Y-53908353D01*
X157298103Y-53906603D01*
X157314986Y-53800003D01*
X157314986Y-53799996D01*
X157298103Y-53693397D01*
X157307058Y-53624104D01*
X157352054Y-53570652D01*
X157418806Y-53550013D01*
X157420576Y-53550000D01*
X158188872Y-53550000D01*
X158188872Y-53549999D01*
X158136269Y-53353682D01*
X158136265Y-53353673D01*
X158040134Y-53147517D01*
X157909657Y-52961179D01*
X157748820Y-52800342D01*
X157562482Y-52669865D01*
X157356328Y-52573734D01*
X157160000Y-52521127D01*
X157160000Y-53289424D01*
X157140315Y-53356463D01*
X157087511Y-53402218D01*
X157018353Y-53412162D01*
X157016602Y-53411897D01*
X156941486Y-53400000D01*
X156941481Y-53400000D01*
X156878519Y-53400000D01*
X156878514Y-53400000D01*
X156803398Y-53411897D01*
X156734104Y-53402942D01*
X156680652Y-53357946D01*
X156660013Y-53291194D01*
X156660000Y-53289424D01*
X156660000Y-52521127D01*
X156463671Y-52573734D01*
X156257517Y-52669865D01*
X156071179Y-52800342D01*
X155910342Y-52961179D01*
X155779865Y-53147517D01*
X155683734Y-53353673D01*
X155683730Y-53353682D01*
X155631127Y-53549999D01*
X148029389Y-53549999D01*
X147976739Y-53353504D01*
X147880568Y-53147266D01*
X147750047Y-52960861D01*
X147750045Y-52960858D01*
X147589141Y-52799954D01*
X147402734Y-52669432D01*
X147402732Y-52669431D01*
X147196497Y-52573261D01*
X147196488Y-52573258D01*
X146976697Y-52514366D01*
X146976693Y-52514365D01*
X146976692Y-52514365D01*
X146976691Y-52514364D01*
X146976686Y-52514364D01*
X146750002Y-52494532D01*
X146749998Y-52494532D01*
X146523313Y-52514364D01*
X146523302Y-52514366D01*
X146303511Y-52573258D01*
X146303502Y-52573261D01*
X146097267Y-52669431D01*
X146097265Y-52669432D01*
X145910858Y-52799954D01*
X145749954Y-52960858D01*
X145619432Y-53147265D01*
X145619431Y-53147267D01*
X145523261Y-53353502D01*
X145523258Y-53353511D01*
X145464366Y-53573302D01*
X145464364Y-53573313D01*
X145444532Y-53799998D01*
X145444532Y-53800001D01*
X135642345Y-53800001D01*
X135635635Y-53723308D01*
X135576739Y-53503504D01*
X135480568Y-53297266D01*
X135350047Y-53110861D01*
X135350045Y-53110858D01*
X135189141Y-52949954D01*
X135002734Y-52819432D01*
X135002732Y-52819431D01*
X134796497Y-52723261D01*
X134796488Y-52723258D01*
X134576697Y-52664366D01*
X134576693Y-52664365D01*
X134576692Y-52664365D01*
X134576691Y-52664364D01*
X134576686Y-52664364D01*
X134350002Y-52644532D01*
X134349998Y-52644532D01*
X134123313Y-52664364D01*
X134123302Y-52664366D01*
X133903511Y-52723258D01*
X133903502Y-52723261D01*
X133697267Y-52819431D01*
X133697265Y-52819432D01*
X133510858Y-52949954D01*
X133349954Y-53110858D01*
X133219432Y-53297265D01*
X133219431Y-53297267D01*
X133123261Y-53503502D01*
X133123258Y-53503511D01*
X133064366Y-53723302D01*
X133064364Y-53723313D01*
X133044532Y-53949998D01*
X133044532Y-53950001D01*
X125495468Y-53950001D01*
X125495468Y-53950000D01*
X125475635Y-53723308D01*
X125416739Y-53503504D01*
X125320568Y-53297266D01*
X125190047Y-53110861D01*
X125190045Y-53110858D01*
X125029141Y-52949954D01*
X124842734Y-52819432D01*
X124842732Y-52819431D01*
X124636497Y-52723261D01*
X124636488Y-52723258D01*
X124416697Y-52664366D01*
X124416693Y-52664365D01*
X124416692Y-52664365D01*
X124416691Y-52664364D01*
X124416686Y-52664364D01*
X124190002Y-52644532D01*
X124189998Y-52644532D01*
X123963313Y-52664364D01*
X123963302Y-52664366D01*
X123743511Y-52723258D01*
X123743502Y-52723261D01*
X123537267Y-52819431D01*
X123537265Y-52819432D01*
X123350858Y-52949954D01*
X123189954Y-53110858D01*
X123059432Y-53297265D01*
X123059431Y-53297267D01*
X122963261Y-53503502D01*
X122963258Y-53503511D01*
X122904366Y-53723302D01*
X122904364Y-53723313D01*
X122884532Y-53949998D01*
X122884532Y-53950001D01*
X116049824Y-53950001D01*
X116049824Y-49466966D01*
X127797754Y-49466966D01*
X127817088Y-49712625D01*
X127874612Y-49952231D01*
X127968910Y-50179887D01*
X128097658Y-50389985D01*
X128097659Y-50389987D01*
X128097662Y-50389990D01*
X128257696Y-50577366D01*
X128402743Y-50701247D01*
X128445074Y-50737402D01*
X128445076Y-50737403D01*
X128655174Y-50866151D01*
X128882830Y-50960449D01*
X128882831Y-50960449D01*
X128882833Y-50960450D01*
X129122440Y-51017974D01*
X129368095Y-51037308D01*
X129613750Y-51017974D01*
X129853357Y-50960450D01*
X130081015Y-50866151D01*
X130291118Y-50737400D01*
X130478494Y-50577366D01*
X130638528Y-50389990D01*
X130767279Y-50179887D01*
X130861578Y-49952229D01*
X130919102Y-49712622D01*
X130938436Y-49466967D01*
X130925295Y-49300001D01*
X136869532Y-49300001D01*
X136889364Y-49526686D01*
X136889366Y-49526697D01*
X136948258Y-49746488D01*
X136948261Y-49746497D01*
X137044431Y-49952732D01*
X137044432Y-49952734D01*
X137174954Y-50139141D01*
X137335858Y-50300045D01*
X137335861Y-50300047D01*
X137522266Y-50430568D01*
X137728504Y-50526739D01*
X137948308Y-50585635D01*
X138110230Y-50599801D01*
X138174998Y-50605468D01*
X138175000Y-50605468D01*
X138175002Y-50605468D01*
X138231673Y-50600509D01*
X138401692Y-50585635D01*
X138621496Y-50526739D01*
X138827734Y-50430568D01*
X139014139Y-50300047D01*
X139175047Y-50139139D01*
X139305568Y-49952734D01*
X139401739Y-49746496D01*
X139460635Y-49526692D01*
X139467345Y-49449999D01*
X149354659Y-49449999D01*
X149373993Y-49695658D01*
X149431517Y-49935264D01*
X149525815Y-50162920D01*
X149654563Y-50373018D01*
X149654564Y-50373020D01*
X149669058Y-50389990D01*
X149814601Y-50560399D01*
X149959648Y-50684280D01*
X150001979Y-50720435D01*
X150001981Y-50720436D01*
X150212079Y-50849184D01*
X150439735Y-50943482D01*
X150439736Y-50943482D01*
X150439738Y-50943483D01*
X150679345Y-51001007D01*
X150925000Y-51020341D01*
X151170655Y-51001007D01*
X151410262Y-50943483D01*
X151637920Y-50849184D01*
X151848023Y-50720433D01*
X152035399Y-50560399D01*
X152195433Y-50373023D01*
X152324184Y-50162920D01*
X152418483Y-49935262D01*
X152476007Y-49695655D01*
X152495341Y-49450000D01*
X152476007Y-49204345D01*
X152418483Y-48964738D01*
X152391668Y-48900001D01*
X158444532Y-48900001D01*
X158464364Y-49126686D01*
X158464366Y-49126697D01*
X158523258Y-49346488D01*
X158523261Y-49346497D01*
X158619431Y-49552732D01*
X158619432Y-49552734D01*
X158749954Y-49739141D01*
X158910858Y-49900045D01*
X158910861Y-49900047D01*
X159097266Y-50030568D01*
X159303504Y-50126739D01*
X159523308Y-50185635D01*
X159685230Y-50199801D01*
X159749998Y-50205468D01*
X159750000Y-50205468D01*
X159750002Y-50205468D01*
X159806672Y-50200509D01*
X159976692Y-50185635D01*
X160196496Y-50126739D01*
X160402734Y-50030568D01*
X160589139Y-49900047D01*
X160750047Y-49739139D01*
X160880568Y-49552734D01*
X160976739Y-49346496D01*
X161035635Y-49126692D01*
X161055468Y-48900000D01*
X161035635Y-48673308D01*
X160978710Y-48460861D01*
X160976741Y-48453511D01*
X160976738Y-48453502D01*
X160880568Y-48247266D01*
X160782839Y-48107693D01*
X160750045Y-48060858D01*
X160589141Y-47899954D01*
X160402734Y-47769432D01*
X160402732Y-47769431D01*
X160196497Y-47673261D01*
X160196488Y-47673258D01*
X159976697Y-47614366D01*
X159976693Y-47614365D01*
X159976692Y-47614365D01*
X159976691Y-47614364D01*
X159976686Y-47614364D01*
X159750002Y-47594532D01*
X159749998Y-47594532D01*
X159523313Y-47614364D01*
X159523302Y-47614366D01*
X159303511Y-47673258D01*
X159303502Y-47673261D01*
X159097267Y-47769431D01*
X159097265Y-47769432D01*
X158910858Y-47899954D01*
X158749954Y-48060858D01*
X158619432Y-48247265D01*
X158619431Y-48247267D01*
X158523261Y-48453502D01*
X158523258Y-48453511D01*
X158464366Y-48673302D01*
X158464364Y-48673313D01*
X158444532Y-48899998D01*
X158444532Y-48900001D01*
X152391668Y-48900001D01*
X152391667Y-48899998D01*
X152324184Y-48737079D01*
X152195436Y-48526981D01*
X152195435Y-48526979D01*
X152132681Y-48453504D01*
X152035399Y-48339601D01*
X151867889Y-48196534D01*
X151848020Y-48179564D01*
X151848018Y-48179563D01*
X151637920Y-48050815D01*
X151410264Y-47956517D01*
X151170658Y-47898993D01*
X150925000Y-47879659D01*
X150679341Y-47898993D01*
X150439735Y-47956517D01*
X150212079Y-48050815D01*
X150001981Y-48179563D01*
X150001979Y-48179564D01*
X149814601Y-48339601D01*
X149654564Y-48526979D01*
X149654563Y-48526981D01*
X149525815Y-48737079D01*
X149431517Y-48964735D01*
X149373993Y-49204341D01*
X149354659Y-49449999D01*
X139467345Y-49449999D01*
X139480468Y-49300000D01*
X139460635Y-49073308D01*
X139401739Y-48853504D01*
X139305568Y-48647266D01*
X139175047Y-48460861D01*
X139175045Y-48460858D01*
X139014141Y-48299954D01*
X138827734Y-48169432D01*
X138827732Y-48169431D01*
X138621497Y-48073261D01*
X138621488Y-48073258D01*
X138401697Y-48014366D01*
X138401693Y-48014365D01*
X138401692Y-48014365D01*
X138401691Y-48014364D01*
X138401686Y-48014364D01*
X138175002Y-47994532D01*
X138174998Y-47994532D01*
X137948313Y-48014364D01*
X137948302Y-48014366D01*
X137728511Y-48073258D01*
X137728502Y-48073261D01*
X137522267Y-48169431D01*
X137522265Y-48169432D01*
X137335858Y-48299954D01*
X137174954Y-48460858D01*
X137044432Y-48647265D01*
X137044431Y-48647267D01*
X136948261Y-48853502D01*
X136948258Y-48853511D01*
X136889366Y-49073302D01*
X136889364Y-49073313D01*
X136869532Y-49299998D01*
X136869532Y-49300001D01*
X130925295Y-49300001D01*
X130919102Y-49221312D01*
X130861578Y-48981705D01*
X130827734Y-48899998D01*
X130767279Y-48754046D01*
X130638531Y-48543948D01*
X130638530Y-48543946D01*
X130602375Y-48501615D01*
X130478494Y-48356568D01*
X130350516Y-48247265D01*
X130291115Y-48196531D01*
X130291113Y-48196530D01*
X130081015Y-48067782D01*
X129853359Y-47973484D01*
X129613753Y-47915960D01*
X129410367Y-47899953D01*
X129368095Y-47896626D01*
X129368094Y-47896626D01*
X129122436Y-47915960D01*
X128882830Y-47973484D01*
X128655174Y-48067782D01*
X128445076Y-48196530D01*
X128445074Y-48196531D01*
X128257696Y-48356568D01*
X128097659Y-48543946D01*
X128097658Y-48543948D01*
X127968910Y-48754046D01*
X127874612Y-48981702D01*
X127817088Y-49221308D01*
X127797754Y-49466966D01*
X116049824Y-49466966D01*
X116049824Y-44597844D01*
X118735000Y-44597844D01*
X118741401Y-44657372D01*
X118741403Y-44657379D01*
X118791645Y-44792086D01*
X118791649Y-44792093D01*
X118877809Y-44907187D01*
X118877812Y-44907190D01*
X118992906Y-44993350D01*
X118992913Y-44993354D01*
X119127620Y-45043596D01*
X119127627Y-45043598D01*
X119187155Y-45049999D01*
X119187172Y-45050000D01*
X119510000Y-45050000D01*
X119510000Y-44284330D01*
X119529685Y-44217291D01*
X119582489Y-44171536D01*
X119651647Y-44161592D01*
X119674262Y-44167048D01*
X119697424Y-44175000D01*
X119791072Y-44175000D01*
X119791073Y-44175000D01*
X119865592Y-44162565D01*
X119934955Y-44170947D01*
X119988777Y-44215500D01*
X120009968Y-44282078D01*
X120010000Y-44284874D01*
X120010000Y-45050000D01*
X120332828Y-45050000D01*
X120332844Y-45049999D01*
X120392372Y-45043598D01*
X120392376Y-45043597D01*
X120527093Y-44993350D01*
X120534876Y-44989101D01*
X120536071Y-44991289D01*
X120589109Y-44971492D01*
X120633982Y-44976513D01*
X120635653Y-44977020D01*
X120635659Y-44977023D01*
X120828967Y-45035662D01*
X121030000Y-45055462D01*
X121231033Y-45035662D01*
X121424341Y-44977023D01*
X121602494Y-44881798D01*
X121602498Y-44881794D01*
X121606546Y-44879631D01*
X121674949Y-44865389D01*
X121723454Y-44879631D01*
X121727502Y-44881794D01*
X121727506Y-44881798D01*
X121905659Y-44977023D01*
X122098967Y-45035662D01*
X122300000Y-45055462D01*
X122501033Y-45035662D01*
X122694341Y-44977023D01*
X122872494Y-44881798D01*
X123028647Y-44753647D01*
X123156798Y-44597494D01*
X123252023Y-44419341D01*
X123310662Y-44226033D01*
X123325500Y-44075380D01*
X123325500Y-43524620D01*
X123310662Y-43373967D01*
X123252023Y-43180659D01*
X123252021Y-43180656D01*
X123252021Y-43180654D01*
X123156801Y-43002511D01*
X123156799Y-43002509D01*
X123156798Y-43002506D01*
X123107651Y-42942620D01*
X123028647Y-42846352D01*
X122872495Y-42718203D01*
X122872488Y-42718198D01*
X122694345Y-42622978D01*
X122501031Y-42564337D01*
X122300000Y-42544538D01*
X122098968Y-42564337D01*
X121905654Y-42622978D01*
X121723452Y-42720368D01*
X121655049Y-42734610D01*
X121606545Y-42720368D01*
X121602496Y-42718203D01*
X121602494Y-42718202D01*
X121424341Y-42622977D01*
X121327686Y-42593657D01*
X121231031Y-42564337D01*
X121030000Y-42544538D01*
X120828968Y-42564337D01*
X120691371Y-42606076D01*
X120635659Y-42622977D01*
X120635657Y-42622977D01*
X120633982Y-42623486D01*
X120564115Y-42624109D01*
X120535414Y-42609902D01*
X120534872Y-42610897D01*
X120527086Y-42606645D01*
X120392379Y-42556403D01*
X120392372Y-42556401D01*
X120332844Y-42550000D01*
X120010000Y-42550000D01*
X120010000Y-43315669D01*
X119990315Y-43382708D01*
X119937511Y-43428463D01*
X119868353Y-43438407D01*
X119845740Y-43432951D01*
X119822578Y-43425000D01*
X119822576Y-43425000D01*
X119728927Y-43425000D01*
X119728926Y-43425000D01*
X119654408Y-43437434D01*
X119585043Y-43429052D01*
X119531222Y-43384498D01*
X119510031Y-43317919D01*
X119510000Y-43315125D01*
X119510000Y-42550000D01*
X119187155Y-42550000D01*
X119127627Y-42556401D01*
X119127620Y-42556403D01*
X118992913Y-42606645D01*
X118992906Y-42606649D01*
X118877812Y-42692809D01*
X118877809Y-42692812D01*
X118791649Y-42807906D01*
X118791645Y-42807913D01*
X118741403Y-42942620D01*
X118741401Y-42942627D01*
X118735000Y-43002155D01*
X118735000Y-43550000D01*
X119271808Y-43550000D01*
X119338847Y-43569685D01*
X119384602Y-43622489D01*
X119394546Y-43691647D01*
X119392013Y-43704441D01*
X119391448Y-43706670D01*
X119381113Y-43831392D01*
X119397363Y-43895560D01*
X119394738Y-43965381D01*
X119354781Y-44022698D01*
X119290180Y-44049314D01*
X119277157Y-44050000D01*
X118735000Y-44050000D01*
X118735000Y-44597844D01*
X116049824Y-44597844D01*
X116049824Y-41166967D01*
X127797754Y-41166967D01*
X127817088Y-41412625D01*
X127874612Y-41652231D01*
X127968910Y-41879887D01*
X128097658Y-42089985D01*
X128097659Y-42089987D01*
X128097662Y-42089990D01*
X128257696Y-42277366D01*
X128402743Y-42401247D01*
X128445074Y-42437402D01*
X128445076Y-42437403D01*
X128655174Y-42566151D01*
X128882830Y-42660449D01*
X128882831Y-42660449D01*
X128882833Y-42660450D01*
X129122440Y-42717974D01*
X129368095Y-42737308D01*
X129613750Y-42717974D01*
X129853357Y-42660450D01*
X130081015Y-42566151D01*
X130291118Y-42437400D01*
X130478494Y-42277366D01*
X130638528Y-42089990D01*
X130767279Y-41879887D01*
X130861578Y-41652229D01*
X130919102Y-41412622D01*
X130938436Y-41166967D01*
X130937101Y-41150000D01*
X149354659Y-41150000D01*
X149373993Y-41395658D01*
X149431517Y-41635264D01*
X149525815Y-41862920D01*
X149654563Y-42073018D01*
X149654564Y-42073020D01*
X149669058Y-42089990D01*
X149814601Y-42260399D01*
X149959648Y-42384280D01*
X150001979Y-42420435D01*
X150001981Y-42420436D01*
X150212079Y-42549184D01*
X150439735Y-42643482D01*
X150439736Y-42643482D01*
X150439738Y-42643483D01*
X150679345Y-42701007D01*
X150925000Y-42720341D01*
X151170655Y-42701007D01*
X151410262Y-42643483D01*
X151637920Y-42549184D01*
X151848023Y-42420433D01*
X152035399Y-42260399D01*
X152195433Y-42073023D01*
X152324184Y-41862920D01*
X152418483Y-41635262D01*
X152476007Y-41395655D01*
X152495341Y-41150000D01*
X152476007Y-40904345D01*
X152418483Y-40664738D01*
X152331212Y-40454046D01*
X152324184Y-40437079D01*
X152195436Y-40226981D01*
X152195435Y-40226979D01*
X152121186Y-40140045D01*
X152035399Y-40039601D01*
X151867889Y-39896534D01*
X151848020Y-39879564D01*
X151848018Y-39879563D01*
X151637919Y-39750815D01*
X151637920Y-39750815D01*
X151523838Y-39703561D01*
X151469435Y-39659720D01*
X151447370Y-39593426D01*
X151464649Y-39525726D01*
X151515787Y-39478116D01*
X151571291Y-39465000D01*
X151937828Y-39465000D01*
X151937844Y-39464999D01*
X151997372Y-39458598D01*
X151997379Y-39458596D01*
X152132086Y-39408354D01*
X152132093Y-39408350D01*
X152247187Y-39322190D01*
X152247190Y-39322187D01*
X152333350Y-39207093D01*
X152333354Y-39207086D01*
X152383596Y-39072379D01*
X152383598Y-39072372D01*
X152389999Y-39012844D01*
X152390000Y-39012827D01*
X152390000Y-38740001D01*
X158444532Y-38740001D01*
X158464364Y-38966686D01*
X158464366Y-38966697D01*
X158523258Y-39186488D01*
X158523261Y-39186497D01*
X158619431Y-39392732D01*
X158619432Y-39392734D01*
X158749954Y-39579141D01*
X158910858Y-39740045D01*
X158910861Y-39740047D01*
X159097266Y-39870568D01*
X159303504Y-39966739D01*
X159523308Y-40025635D01*
X159682940Y-40039601D01*
X159749998Y-40045468D01*
X159750000Y-40045468D01*
X159750002Y-40045468D01*
X159817060Y-40039601D01*
X159976692Y-40025635D01*
X160196496Y-39966739D01*
X160402734Y-39870568D01*
X160589139Y-39740047D01*
X160750047Y-39579139D01*
X160880568Y-39392734D01*
X160976739Y-39186496D01*
X161035635Y-38966692D01*
X161055468Y-38740000D01*
X161035635Y-38513308D01*
X160978710Y-38300861D01*
X160976741Y-38293511D01*
X160976738Y-38293502D01*
X160959700Y-38256965D01*
X160880568Y-38087266D01*
X160771701Y-37931787D01*
X160750045Y-37900858D01*
X160589141Y-37739954D01*
X160402734Y-37609432D01*
X160402732Y-37609431D01*
X160196497Y-37513261D01*
X160196488Y-37513258D01*
X159976697Y-37454366D01*
X159976693Y-37454365D01*
X159976692Y-37454365D01*
X159976691Y-37454364D01*
X159976686Y-37454364D01*
X159750002Y-37434532D01*
X159749998Y-37434532D01*
X159523313Y-37454364D01*
X159523302Y-37454366D01*
X159303511Y-37513258D01*
X159303502Y-37513261D01*
X159097267Y-37609431D01*
X159097265Y-37609432D01*
X158910858Y-37739954D01*
X158749954Y-37900858D01*
X158619432Y-38087265D01*
X158619431Y-38087267D01*
X158523261Y-38293502D01*
X158523258Y-38293511D01*
X158464366Y-38513302D01*
X158464364Y-38513313D01*
X158444532Y-38739998D01*
X158444532Y-38740001D01*
X152390000Y-38740001D01*
X152390000Y-38300000D01*
X151648199Y-38300000D01*
X151581160Y-38280315D01*
X151535405Y-38227511D01*
X151525461Y-38158353D01*
X151526396Y-38152764D01*
X151535398Y-38105574D01*
X151538635Y-38088607D01*
X151528957Y-37934789D01*
X151528956Y-37934788D01*
X151528768Y-37931787D01*
X151544204Y-37863643D01*
X151594030Y-37814663D01*
X151652523Y-37800000D01*
X152390000Y-37800000D01*
X152390000Y-37087172D01*
X152389999Y-37087155D01*
X152383598Y-37027627D01*
X152383596Y-37027620D01*
X152333354Y-36892913D01*
X152333350Y-36892906D01*
X152247190Y-36777812D01*
X152247187Y-36777809D01*
X152132093Y-36691649D01*
X152132086Y-36691645D01*
X151997379Y-36641403D01*
X151997372Y-36641401D01*
X151937844Y-36635000D01*
X151175000Y-36635000D01*
X151175000Y-37324543D01*
X151155315Y-37391582D01*
X151102511Y-37437337D01*
X151033353Y-37447281D01*
X151020166Y-37444648D01*
X151002064Y-37440000D01*
X151002061Y-37440000D01*
X150886625Y-37440000D01*
X150886615Y-37440000D01*
X150814542Y-37449106D01*
X150745564Y-37437979D01*
X150693551Y-37391327D01*
X150675000Y-37326084D01*
X150675000Y-36635000D01*
X149912155Y-36635000D01*
X149852627Y-36641401D01*
X149852620Y-36641403D01*
X149717913Y-36691645D01*
X149717906Y-36691649D01*
X149602812Y-36777809D01*
X149602809Y-36777812D01*
X149516649Y-36892906D01*
X149516645Y-36892913D01*
X149466403Y-37027620D01*
X149466401Y-37027627D01*
X149460000Y-37087155D01*
X149460000Y-37800000D01*
X150201801Y-37800000D01*
X150268840Y-37819685D01*
X150314595Y-37872489D01*
X150324539Y-37941647D01*
X150323604Y-37947236D01*
X150311365Y-38011392D01*
X150311365Y-38011393D01*
X150321232Y-38168213D01*
X150305796Y-38236357D01*
X150255970Y-38285337D01*
X150197477Y-38300000D01*
X149460000Y-38300000D01*
X149460000Y-39012844D01*
X149466401Y-39072372D01*
X149466403Y-39072379D01*
X149516645Y-39207086D01*
X149516649Y-39207093D01*
X149602809Y-39322187D01*
X149602812Y-39322190D01*
X149717906Y-39408350D01*
X149717913Y-39408354D01*
X149852620Y-39458596D01*
X149852627Y-39458598D01*
X149912155Y-39464999D01*
X149912172Y-39465000D01*
X150278709Y-39465000D01*
X150345748Y-39484685D01*
X150391503Y-39537489D01*
X150401447Y-39606647D01*
X150372422Y-39670203D01*
X150326162Y-39703561D01*
X150212079Y-39750815D01*
X150001981Y-39879563D01*
X150001979Y-39879564D01*
X149814601Y-40039601D01*
X149654564Y-40226979D01*
X149654563Y-40226981D01*
X149525815Y-40437079D01*
X149431517Y-40664735D01*
X149373993Y-40904341D01*
X149354659Y-41150000D01*
X130937101Y-41150000D01*
X130919102Y-40921312D01*
X130861578Y-40681705D01*
X130767279Y-40454047D01*
X130767279Y-40454046D01*
X130638531Y-40243948D01*
X130638530Y-40243946D01*
X130602375Y-40201615D01*
X130478494Y-40056568D01*
X130354611Y-39950762D01*
X130291115Y-39896531D01*
X130291113Y-39896530D01*
X130081014Y-39767782D01*
X130081015Y-39767782D01*
X129966933Y-39720528D01*
X129912530Y-39676687D01*
X129890465Y-39610393D01*
X129907744Y-39542693D01*
X129958882Y-39495083D01*
X130014386Y-39481967D01*
X130380923Y-39481967D01*
X130380939Y-39481966D01*
X130440467Y-39475565D01*
X130440474Y-39475563D01*
X130575181Y-39425321D01*
X130575188Y-39425317D01*
X130690282Y-39339157D01*
X130690285Y-39339154D01*
X130776445Y-39224060D01*
X130776449Y-39224053D01*
X130807798Y-39140001D01*
X136869532Y-39140001D01*
X136889364Y-39366686D01*
X136889366Y-39366697D01*
X136948258Y-39586488D01*
X136948261Y-39586497D01*
X137044431Y-39792732D01*
X137044432Y-39792734D01*
X137174954Y-39979141D01*
X137335858Y-40140045D01*
X137335861Y-40140047D01*
X137522266Y-40270568D01*
X137728504Y-40366739D01*
X137948308Y-40425635D01*
X138110230Y-40439801D01*
X138174998Y-40445468D01*
X138175000Y-40445468D01*
X138175002Y-40445468D01*
X138231673Y-40440509D01*
X138401692Y-40425635D01*
X138621496Y-40366739D01*
X138827734Y-40270568D01*
X139014139Y-40140047D01*
X139175047Y-39979139D01*
X139305568Y-39792734D01*
X139401739Y-39586496D01*
X139460635Y-39366692D01*
X139480468Y-39140000D01*
X139460635Y-38913308D01*
X139401739Y-38693504D01*
X139305568Y-38487266D01*
X139194580Y-38328757D01*
X139175045Y-38300858D01*
X139014141Y-38139954D01*
X138827734Y-38009432D01*
X138827732Y-38009431D01*
X138621497Y-37913261D01*
X138621488Y-37913258D01*
X138401697Y-37854366D01*
X138401693Y-37854365D01*
X138401692Y-37854365D01*
X138401691Y-37854364D01*
X138401686Y-37854364D01*
X138175002Y-37834532D01*
X138174998Y-37834532D01*
X137948313Y-37854364D01*
X137948302Y-37854366D01*
X137728511Y-37913258D01*
X137728502Y-37913261D01*
X137522267Y-38009431D01*
X137522265Y-38009432D01*
X137335858Y-38139954D01*
X137174954Y-38300858D01*
X137044432Y-38487265D01*
X137044431Y-38487267D01*
X136948261Y-38693502D01*
X136948258Y-38693511D01*
X136889366Y-38913302D01*
X136889364Y-38913313D01*
X136869532Y-39139998D01*
X136869532Y-39140001D01*
X130807798Y-39140001D01*
X130826691Y-39089346D01*
X130826693Y-39089339D01*
X130833094Y-39029811D01*
X130833095Y-39029794D01*
X130833095Y-38316967D01*
X130091294Y-38316967D01*
X130024255Y-38297282D01*
X129978500Y-38244478D01*
X129968556Y-38175320D01*
X129969491Y-38169731D01*
X129970353Y-38165211D01*
X129981730Y-38105574D01*
X129972052Y-37951756D01*
X129972051Y-37951755D01*
X129971863Y-37948754D01*
X129987299Y-37880610D01*
X130037125Y-37831630D01*
X130095618Y-37816967D01*
X130833095Y-37816967D01*
X130833095Y-37104139D01*
X130833094Y-37104122D01*
X130826693Y-37044594D01*
X130826691Y-37044587D01*
X130776449Y-36909880D01*
X130776445Y-36909873D01*
X130690285Y-36794779D01*
X130690282Y-36794776D01*
X130575188Y-36708616D01*
X130575181Y-36708612D01*
X130440474Y-36658370D01*
X130440467Y-36658368D01*
X130380939Y-36651967D01*
X129618095Y-36651967D01*
X129618095Y-37341510D01*
X129598410Y-37408549D01*
X129545606Y-37454304D01*
X129476448Y-37464248D01*
X129463261Y-37461615D01*
X129445159Y-37456967D01*
X129445156Y-37456967D01*
X129329720Y-37456967D01*
X129329710Y-37456967D01*
X129257637Y-37466073D01*
X129188659Y-37454946D01*
X129136646Y-37408294D01*
X129118095Y-37343051D01*
X129118095Y-36651967D01*
X128355250Y-36651967D01*
X128295722Y-36658368D01*
X128295715Y-36658370D01*
X128161008Y-36708612D01*
X128161001Y-36708616D01*
X128045907Y-36794776D01*
X128045904Y-36794779D01*
X127959744Y-36909873D01*
X127959740Y-36909880D01*
X127909498Y-37044587D01*
X127909496Y-37044594D01*
X127903095Y-37104122D01*
X127903095Y-37816967D01*
X128644896Y-37816967D01*
X128711935Y-37836652D01*
X128757690Y-37889456D01*
X128767634Y-37958614D01*
X128766699Y-37964197D01*
X128754460Y-38028360D01*
X128763070Y-38165211D01*
X128764327Y-38185180D01*
X128748891Y-38253324D01*
X128699065Y-38302304D01*
X128640572Y-38316967D01*
X127903095Y-38316967D01*
X127903095Y-39029811D01*
X127909496Y-39089339D01*
X127909498Y-39089346D01*
X127959740Y-39224053D01*
X127959744Y-39224060D01*
X128045904Y-39339154D01*
X128045907Y-39339157D01*
X128161001Y-39425317D01*
X128161008Y-39425321D01*
X128295715Y-39475563D01*
X128295722Y-39475565D01*
X128355250Y-39481966D01*
X128355267Y-39481967D01*
X128721804Y-39481967D01*
X128788843Y-39501652D01*
X128834598Y-39554456D01*
X128844542Y-39623614D01*
X128815517Y-39687170D01*
X128769257Y-39720528D01*
X128655174Y-39767782D01*
X128445076Y-39896530D01*
X128445074Y-39896531D01*
X128257696Y-40056568D01*
X128097659Y-40243946D01*
X128097658Y-40243948D01*
X127968910Y-40454046D01*
X127874612Y-40681702D01*
X127817088Y-40921308D01*
X127797754Y-41166967D01*
X116049824Y-41166967D01*
X116049824Y-33100002D01*
X122710034Y-33100002D01*
X122729858Y-33326599D01*
X122729860Y-33326610D01*
X122788730Y-33546317D01*
X122788734Y-33546326D01*
X122884865Y-33752481D01*
X122884866Y-33752483D01*
X122935973Y-33825471D01*
X122935973Y-33825472D01*
X123477580Y-33283865D01*
X123538903Y-33250380D01*
X123608594Y-33255364D01*
X123664528Y-33297235D01*
X123675742Y-33315246D01*
X123681527Y-33326599D01*
X123687358Y-33338044D01*
X123687363Y-33338050D01*
X123776949Y-33427636D01*
X123776951Y-33427637D01*
X123776955Y-33427641D01*
X123799747Y-33439254D01*
X123850542Y-33487228D01*
X123867337Y-33555049D01*
X123844799Y-33621184D01*
X123831132Y-33637419D01*
X123289526Y-34179025D01*
X123289526Y-34179026D01*
X123362512Y-34230131D01*
X123362516Y-34230133D01*
X123568673Y-34326265D01*
X123568682Y-34326269D01*
X123788389Y-34385139D01*
X123788400Y-34385141D01*
X124014998Y-34404966D01*
X124015002Y-34404966D01*
X124241599Y-34385141D01*
X124241610Y-34385139D01*
X124461317Y-34326269D01*
X124461331Y-34326264D01*
X124667478Y-34230136D01*
X124740472Y-34179025D01*
X124198866Y-33637419D01*
X124165381Y-33576096D01*
X124170365Y-33506404D01*
X124212237Y-33450471D01*
X124230245Y-33439258D01*
X124253045Y-33427641D01*
X124342641Y-33338045D01*
X124354254Y-33315252D01*
X124402225Y-33264458D01*
X124470046Y-33247661D01*
X124536181Y-33270197D01*
X124552419Y-33283866D01*
X125094025Y-33825472D01*
X125145136Y-33752478D01*
X125241264Y-33546331D01*
X125241269Y-33546317D01*
X125300139Y-33326610D01*
X125300141Y-33326599D01*
X125319966Y-33100002D01*
X125319966Y-33100001D01*
X132869532Y-33100001D01*
X132889364Y-33326686D01*
X132889366Y-33326697D01*
X132948258Y-33546488D01*
X132948261Y-33546497D01*
X133044431Y-33752732D01*
X133044432Y-33752734D01*
X133174954Y-33939141D01*
X133335858Y-34100045D01*
X133335861Y-34100047D01*
X133522266Y-34230568D01*
X133728504Y-34326739D01*
X133948308Y-34385635D01*
X134110230Y-34399801D01*
X134174998Y-34405468D01*
X134175000Y-34405468D01*
X134175002Y-34405468D01*
X134231673Y-34400509D01*
X134401692Y-34385635D01*
X134621496Y-34326739D01*
X134827734Y-34230568D01*
X135014139Y-34100047D01*
X135175047Y-33939139D01*
X135305568Y-33752734D01*
X135401739Y-33546496D01*
X135460635Y-33326692D01*
X135480468Y-33100000D01*
X135460635Y-32873308D01*
X135401739Y-32653504D01*
X135305568Y-32447266D01*
X135175047Y-32260861D01*
X135175045Y-32260858D01*
X135014141Y-32099954D01*
X134827734Y-31969432D01*
X134827732Y-31969431D01*
X134621497Y-31873261D01*
X134621488Y-31873258D01*
X134401697Y-31814366D01*
X134401693Y-31814365D01*
X134401692Y-31814365D01*
X134401691Y-31814364D01*
X134401686Y-31814364D01*
X134175002Y-31794532D01*
X134174998Y-31794532D01*
X133948313Y-31814364D01*
X133948302Y-31814366D01*
X133728511Y-31873258D01*
X133728502Y-31873261D01*
X133522267Y-31969431D01*
X133522265Y-31969432D01*
X133335858Y-32099954D01*
X133174954Y-32260858D01*
X133044432Y-32447265D01*
X133044431Y-32447267D01*
X132948261Y-32653502D01*
X132948258Y-32653511D01*
X132889366Y-32873302D01*
X132889364Y-32873313D01*
X132869532Y-33099998D01*
X132869532Y-33100001D01*
X125319966Y-33100001D01*
X125319966Y-33099997D01*
X125300141Y-32873400D01*
X125300139Y-32873389D01*
X125241269Y-32653682D01*
X125241265Y-32653673D01*
X125145133Y-32447516D01*
X125145131Y-32447512D01*
X125094026Y-32374526D01*
X125094025Y-32374526D01*
X124552419Y-32916132D01*
X124491096Y-32949617D01*
X124421404Y-32944633D01*
X124365471Y-32902761D01*
X124354256Y-32884751D01*
X124342641Y-32861955D01*
X124342637Y-32861951D01*
X124342636Y-32861949D01*
X124253050Y-32772363D01*
X124253044Y-32772358D01*
X124243109Y-32767296D01*
X124230250Y-32760744D01*
X124179456Y-32712773D01*
X124162660Y-32644952D01*
X124185197Y-32578817D01*
X124198865Y-32562580D01*
X124740472Y-32020973D01*
X124667483Y-31969866D01*
X124667481Y-31969865D01*
X124461326Y-31873734D01*
X124461317Y-31873730D01*
X124241610Y-31814860D01*
X124241599Y-31814858D01*
X124015002Y-31795034D01*
X124014998Y-31795034D01*
X123788400Y-31814858D01*
X123788389Y-31814860D01*
X123568682Y-31873730D01*
X123568673Y-31873734D01*
X123362513Y-31969868D01*
X123289526Y-32020973D01*
X123831133Y-32562580D01*
X123864618Y-32623903D01*
X123859634Y-32693595D01*
X123817762Y-32749528D01*
X123799748Y-32760745D01*
X123776956Y-32772358D01*
X123776949Y-32772363D01*
X123687363Y-32861949D01*
X123687358Y-32861956D01*
X123675745Y-32884748D01*
X123627770Y-32935544D01*
X123559949Y-32952338D01*
X123493814Y-32929800D01*
X123477580Y-32916133D01*
X122935973Y-32374526D01*
X122884868Y-32447513D01*
X122788734Y-32653673D01*
X122788730Y-32653682D01*
X122729860Y-32873389D01*
X122729858Y-32873400D01*
X122710034Y-33099997D01*
X122710034Y-33100002D01*
X116049824Y-33100002D01*
X116049824Y-29594075D01*
X116069509Y-29527036D01*
X116122313Y-29481281D01*
X116173824Y-29470075D01*
X164150824Y-29470075D01*
X164217863Y-29489760D01*
G37*
%TD.AperFunction*%
%TD*%
M02*
