%TF.GenerationSoftware,KiCad,Pcbnew,7.0.7*%
%TF.CreationDate,2025-01-17T09:26:31-05:00*%
%TF.ProjectId,ClockDiv_v2,436c6f63-6b44-4697-965f-76322e6b6963,rev?*%
%TF.SameCoordinates,Original*%
%TF.FileFunction,Copper,L1,Top*%
%TF.FilePolarity,Positive*%
%FSLAX46Y46*%
G04 Gerber Fmt 4.6, Leading zero omitted, Abs format (unit mm)*
G04 Created by KiCad (PCBNEW 7.0.7) date 2025-01-17 09:26:31*
%MOMM*%
%LPD*%
G01*
G04 APERTURE LIST*
%TA.AperFunction,ComponentPad*%
%ADD10R,1.800000X1.800000*%
%TD*%
%TA.AperFunction,ComponentPad*%
%ADD11C,1.800000*%
%TD*%
%TA.AperFunction,ComponentPad*%
%ADD12C,1.600000*%
%TD*%
%TA.AperFunction,ComponentPad*%
%ADD13O,1.600000X1.600000*%
%TD*%
%TA.AperFunction,ComponentPad*%
%ADD14R,1.930000X1.830000*%
%TD*%
%TA.AperFunction,ComponentPad*%
%ADD15C,2.130000*%
%TD*%
%TA.AperFunction,ComponentPad*%
%ADD16R,1.600000X1.600000*%
%TD*%
%TA.AperFunction,ComponentPad*%
%ADD17R,1.050000X1.500000*%
%TD*%
%TA.AperFunction,ComponentPad*%
%ADD18O,1.050000X1.500000*%
%TD*%
%TA.AperFunction,ComponentPad*%
%ADD19R,1.700000X1.700000*%
%TD*%
%TA.AperFunction,ComponentPad*%
%ADD20O,1.700000X1.700000*%
%TD*%
%TA.AperFunction,ViaPad*%
%ADD21C,0.800000*%
%TD*%
%TA.AperFunction,Conductor*%
%ADD22C,0.500000*%
%TD*%
G04 APERTURE END LIST*
D10*
%TO.P,D3,1,K*%
%TO.N,GND*%
X135835000Y-94825000D03*
D11*
%TO.P,D3,2,A*%
%TO.N,Net-(D3-A)*%
X138375000Y-94825000D03*
%TD*%
D10*
%TO.P,D4,1,K*%
%TO.N,GND*%
X157460000Y-94875000D03*
D11*
%TO.P,D4,2,A*%
%TO.N,Net-(D4-A)*%
X160000000Y-94875000D03*
%TD*%
D12*
%TO.P,R9,1*%
%TO.N,Net-(J5-PadT)*%
X146850000Y-79250000D03*
D13*
%TO.P,R9,2*%
%TO.N,Net-(U1-Q1)*%
X157010000Y-79250000D03*
%TD*%
D10*
%TO.P,D6,1,K*%
%TO.N,GND*%
X157450000Y-120700000D03*
D11*
%TO.P,D6,2,A*%
%TO.N,Net-(D6-A)*%
X159990000Y-120700000D03*
%TD*%
D12*
%TO.P,R7,1*%
%TO.N,Net-(U1-Q0)*%
X124140000Y-83225000D03*
D13*
%TO.P,R7,2*%
%TO.N,Net-(D1-A)*%
X134300000Y-83225000D03*
%TD*%
D14*
%TO.P,J7,S*%
%TO.N,GND*%
X150925000Y-88950000D03*
D15*
%TO.P,J7,T*%
%TO.N,Net-(J7-PadT)*%
X150925000Y-100350000D03*
%TO.P,J7,TN*%
%TO.N,N/C*%
X150925000Y-92050000D03*
%TD*%
D14*
%TO.P,J9,S*%
%TO.N,GND*%
X150925000Y-114425000D03*
D15*
%TO.P,J9,T*%
%TO.N,Net-(J9-PadT)*%
X150925000Y-125825000D03*
%TO.P,J9,TN*%
%TO.N,N/C*%
X150925000Y-117525000D03*
%TD*%
D12*
%TO.P,R6,1*%
%TO.N,Net-(J4-PadT)*%
X124140000Y-79175000D03*
D13*
%TO.P,R6,2*%
%TO.N,Net-(U1-Q0)*%
X134300000Y-79175000D03*
%TD*%
D10*
%TO.P,D2,1,K*%
%TO.N,GND*%
X157450000Y-69700000D03*
D11*
%TO.P,D2,2,A*%
%TO.N,Net-(D2-A)*%
X159990000Y-69700000D03*
%TD*%
D12*
%TO.P,R5,1*%
%TO.N,Net-(U1-Reset)*%
X159750000Y-48900000D03*
D13*
%TO.P,R5,2*%
%TO.N,Net-(J3-PadT)*%
X159750000Y-38740000D03*
%TD*%
D12*
%TO.P,R11,1*%
%TO.N,Net-(J6-PadT)*%
X124815000Y-104675000D03*
D13*
%TO.P,R11,2*%
%TO.N,Net-(U1-Q2)*%
X134975000Y-104675000D03*
%TD*%
D14*
%TO.P,J6,S*%
%TO.N,GND*%
X129325000Y-88975000D03*
D15*
%TO.P,J6,T*%
%TO.N,Net-(J6-PadT)*%
X129325000Y-100375000D03*
%TO.P,J6,TN*%
%TO.N,N/C*%
X129325000Y-92075000D03*
%TD*%
D16*
%TO.P,U1,1,Q11*%
%TO.N,unconnected-(U1-Q11-Pad1)*%
X139775000Y-141225000D03*
D13*
%TO.P,U1,2,Q5*%
%TO.N,Net-(U1-Q5)*%
X137235000Y-141225000D03*
%TO.P,U1,3,Q4*%
%TO.N,Net-(U1-Q4)*%
X134695000Y-141225000D03*
%TO.P,U1,4,Q6*%
%TO.N,unconnected-(U1-Q6-Pad4)*%
X132155000Y-141225000D03*
%TO.P,U1,5,Q3*%
%TO.N,Net-(U1-Q3)*%
X129615000Y-141225000D03*
%TO.P,U1,6,Q2*%
%TO.N,Net-(U1-Q2)*%
X127075000Y-141225000D03*
%TO.P,U1,7,Q1*%
%TO.N,Net-(U1-Q1)*%
X124535000Y-141225000D03*
%TO.P,U1,8,VSS*%
%TO.N,GND*%
X121995000Y-141225000D03*
%TO.P,U1,9,Q0*%
%TO.N,Net-(U1-Q0)*%
X121995000Y-148845000D03*
%TO.P,U1,10,CLK*%
%TO.N,Net-(Q1-C)*%
X124535000Y-148845000D03*
%TO.P,U1,11,Reset*%
%TO.N,Net-(U1-Reset)*%
X127075000Y-148845000D03*
%TO.P,U1,12,Q8*%
%TO.N,unconnected-(U1-Q8-Pad12)*%
X129615000Y-148845000D03*
%TO.P,U1,13,Q7*%
%TO.N,unconnected-(U1-Q7-Pad13)*%
X132155000Y-148845000D03*
%TO.P,U1,14,Q9*%
%TO.N,unconnected-(U1-Q9-Pad14)*%
X134695000Y-148845000D03*
%TO.P,U1,15,Q10*%
%TO.N,unconnected-(U1-Q10-Pad15)*%
X137235000Y-148845000D03*
%TO.P,U1,16,VDD*%
%TO.N,+5V*%
X139775000Y-148845000D03*
%TD*%
D17*
%TO.P,Q1,1,E*%
%TO.N,GND*%
X119760000Y-43800000D03*
D18*
%TO.P,Q1,2,B*%
%TO.N,Net-(Q1-B)*%
X121030000Y-43800000D03*
%TO.P,Q1,3,C*%
%TO.N,Net-(Q1-C)*%
X122300000Y-43800000D03*
%TD*%
D12*
%TO.P,R3,1*%
%TO.N,Net-(Q1-B)*%
X138175000Y-39140000D03*
D13*
%TO.P,R3,2*%
%TO.N,Net-(J2-PadT)*%
X138175000Y-49300000D03*
%TD*%
D16*
%TO.P,C2,1*%
%TO.N,+5V*%
X150160000Y-142825000D03*
D12*
%TO.P,C2,2*%
%TO.N,GND*%
X152660000Y-142825000D03*
%TD*%
D14*
%TO.P,J8,S*%
%TO.N,GND*%
X129325000Y-114400000D03*
D15*
%TO.P,J8,T*%
%TO.N,Net-(J8-PadT)*%
X129325000Y-125800000D03*
%TO.P,J8,TN*%
%TO.N,N/C*%
X129325000Y-117500000D03*
%TD*%
D14*
%TO.P,J3,S*%
%TO.N,GND*%
X150925000Y-38050000D03*
D15*
%TO.P,J3,T*%
%TO.N,Net-(J3-PadT)*%
X150925000Y-49450000D03*
%TO.P,J3,TN*%
%TO.N,N/C*%
X150925000Y-41150000D03*
%TD*%
D12*
%TO.P,R13,1*%
%TO.N,Net-(J7-PadT)*%
X146975000Y-104675000D03*
D13*
%TO.P,R13,2*%
%TO.N,Net-(U1-Q3)*%
X157135000Y-104675000D03*
%TD*%
D12*
%TO.P,R15,1*%
%TO.N,Net-(J8-PadT)*%
X124750000Y-129900000D03*
D13*
%TO.P,R15,2*%
%TO.N,Net-(U1-Q4)*%
X134910000Y-129900000D03*
%TD*%
D12*
%TO.P,R12,1*%
%TO.N,Net-(U1-Q3)*%
X147000000Y-108750000D03*
D13*
%TO.P,R12,2*%
%TO.N,Net-(D4-A)*%
X157160000Y-108750000D03*
%TD*%
D10*
%TO.P,D5,1,K*%
%TO.N,GND*%
X135835000Y-120725000D03*
D11*
%TO.P,D5,2,A*%
%TO.N,Net-(D5-A)*%
X138375000Y-120725000D03*
%TD*%
D14*
%TO.P,J5,S*%
%TO.N,GND*%
X151000000Y-63450000D03*
D15*
%TO.P,J5,T*%
%TO.N,Net-(J5-PadT)*%
X151000000Y-74850000D03*
%TO.P,J5,TN*%
%TO.N,N/C*%
X151000000Y-66550000D03*
%TD*%
D14*
%TO.P,J2,S*%
%TO.N,GND*%
X129368095Y-38066967D03*
D15*
%TO.P,J2,T*%
%TO.N,Net-(J2-PadT)*%
X129368095Y-49466967D03*
%TO.P,J2,TN*%
%TO.N,N/C*%
X129368095Y-41166967D03*
%TD*%
D12*
%TO.P,R4,1*%
%TO.N,Net-(J3-PadT)*%
X146750000Y-53800000D03*
D13*
%TO.P,R4,2*%
%TO.N,GND*%
X156910000Y-53800000D03*
%TD*%
D14*
%TO.P,J4,S*%
%TO.N,GND*%
X129375000Y-63475000D03*
D15*
%TO.P,J4,T*%
%TO.N,Net-(J4-PadT)*%
X129375000Y-74875000D03*
%TO.P,J4,TN*%
%TO.N,N/C*%
X129375000Y-66575000D03*
%TD*%
D12*
%TO.P,R2,1*%
%TO.N,+5V*%
X124190000Y-53950000D03*
D13*
%TO.P,R2,2*%
%TO.N,Net-(Q1-C)*%
X134350000Y-53950000D03*
%TD*%
D12*
%TO.P,R10,1*%
%TO.N,Net-(U1-Q2)*%
X124815000Y-108750000D03*
D13*
%TO.P,R10,2*%
%TO.N,Net-(D3-A)*%
X134975000Y-108750000D03*
%TD*%
D12*
%TO.P,R8,1*%
%TO.N,Net-(U1-Q1)*%
X146875000Y-83400000D03*
D13*
%TO.P,R8,2*%
%TO.N,Net-(D2-A)*%
X157035000Y-83400000D03*
%TD*%
D12*
%TO.P,R14,1*%
%TO.N,Net-(U1-Q4)*%
X124775000Y-133950000D03*
D13*
%TO.P,R14,2*%
%TO.N,Net-(D5-A)*%
X134935000Y-133950000D03*
%TD*%
D12*
%TO.P,R1,1*%
%TO.N,GND*%
X124015000Y-33100000D03*
D13*
%TO.P,R1,2*%
%TO.N,Net-(Q1-B)*%
X134175000Y-33100000D03*
%TD*%
D12*
%TO.P,C1,1*%
%TO.N,+5V*%
X144960000Y-149750000D03*
%TO.P,C1,2*%
%TO.N,GND*%
X144960000Y-147250000D03*
%TD*%
%TO.P,R17,1*%
%TO.N,Net-(J9-PadT)*%
X142975000Y-129900000D03*
D13*
%TO.P,R17,2*%
%TO.N,Net-(U1-Q5)*%
X153135000Y-129900000D03*
%TD*%
D12*
%TO.P,R16,1*%
%TO.N,Net-(U1-Q5)*%
X142975000Y-134000000D03*
D13*
%TO.P,R16,2*%
%TO.N,Net-(D6-A)*%
X153135000Y-134000000D03*
%TD*%
D10*
%TO.P,D1,1,K*%
%TO.N,GND*%
X135835000Y-69675000D03*
D11*
%TO.P,D1,2,A*%
%TO.N,Net-(D1-A)*%
X138375000Y-69675000D03*
%TD*%
D19*
%TO.P,J10,1,Pin_1*%
%TO.N,-12V*%
X158135000Y-149255000D03*
D20*
%TO.P,J10,2,Pin_2*%
X160675000Y-149255000D03*
%TO.P,J10,3,Pin_3*%
%TO.N,GND*%
X158135000Y-146715000D03*
%TO.P,J10,4,Pin_4*%
X160675000Y-146715000D03*
%TO.P,J10,5,Pin_5*%
X158135000Y-144175000D03*
%TO.P,J10,6,Pin_6*%
X160675000Y-144175000D03*
%TO.P,J10,7,Pin_7*%
X158135000Y-141635000D03*
%TO.P,J10,8,Pin_8*%
X160675000Y-141635000D03*
%TO.P,J10,9,Pin_9*%
%TO.N,+12V*%
X158135000Y-139095000D03*
%TO.P,J10,10,Pin_10*%
X160675000Y-139095000D03*
%TO.P,J10,11,Pin_11*%
%TO.N,+5V*%
X158135000Y-136555000D03*
%TO.P,J10,12,Pin_12*%
X160675000Y-136555000D03*
%TO.P,J10,13,Pin_13*%
%TO.N,unconnected-(J10-Pin_13-Pad13)*%
X158135000Y-134015000D03*
%TO.P,J10,14,Pin_14*%
X160675000Y-134015000D03*
%TO.P,J10,15,Pin_15*%
%TO.N,unconnected-(J10-Pin_15-Pad15)*%
X158135000Y-131475000D03*
%TO.P,J10,16,Pin_16*%
X160675000Y-131475000D03*
%TD*%
D21*
%TO.N,Net-(U1-Q3)*%
X132600000Y-137675000D03*
%TD*%
D22*
%TO.N,Net-(Q1-C)*%
X124535000Y-148845000D02*
X122180000Y-151200000D01*
X122180000Y-151200000D02*
X120720000Y-151200000D01*
X120720000Y-151200000D02*
X118775000Y-149255000D01*
X118775000Y-149255000D02*
X118775000Y-65300000D01*
X118775000Y-65300000D02*
X130500000Y-53575000D01*
%TO.N,+5V*%
X148397500Y-146312500D02*
X148397500Y-151277500D01*
X124190000Y-55410000D02*
X124190000Y-53950000D01*
X148397500Y-151277500D02*
X147021000Y-152654000D01*
X147021000Y-152654000D02*
X120014000Y-152654000D01*
X117360000Y-62240000D02*
X124190000Y-55410000D01*
X120014000Y-152654000D02*
X117360000Y-150000000D01*
X117360000Y-150000000D02*
X117360000Y-62240000D01*
%TO.N,Net-(D1-A)*%
X138375000Y-79150000D02*
X138375000Y-69675000D01*
X134300000Y-83225000D02*
X138375000Y-79150000D01*
%TO.N,Net-(D2-A)*%
X159990000Y-80445000D02*
X159990000Y-69700000D01*
X157035000Y-83400000D02*
X159990000Y-80445000D01*
%TO.N,Net-(D3-A)*%
X134975000Y-108750000D02*
X138375000Y-105350000D01*
X138375000Y-105350000D02*
X138375000Y-94825000D01*
%TO.N,Net-(D4-A)*%
X157160000Y-108750000D02*
X160000000Y-105910000D01*
X160000000Y-105910000D02*
X160000000Y-94875000D01*
%TO.N,Net-(D5-A)*%
X138375000Y-130510000D02*
X138375000Y-120725000D01*
X134935000Y-133950000D02*
X138375000Y-130510000D01*
%TO.N,Net-(D6-A)*%
X154800000Y-125890000D02*
X159990000Y-120700000D01*
X154800000Y-130950000D02*
X154800000Y-125890000D01*
X153135000Y-134000000D02*
X153135000Y-132615000D01*
X153135000Y-132615000D02*
X154800000Y-130950000D01*
%TO.N,Net-(Q1-B)*%
X121030000Y-43800000D02*
X121030000Y-42820000D01*
X138175000Y-39140000D02*
X138175000Y-37100000D01*
X121030000Y-42820000D02*
X130750000Y-33100000D01*
X138175000Y-37100000D02*
X134175000Y-33100000D01*
X130750000Y-33100000D02*
X134175000Y-33100000D01*
%TO.N,Net-(Q1-C)*%
X134350000Y-53950000D02*
X130875000Y-53950000D01*
X122300000Y-45375000D02*
X122300000Y-43800000D01*
X130875000Y-53950000D02*
X130500000Y-53575000D01*
X130500000Y-53575000D02*
X122300000Y-45375000D01*
%TO.N,Net-(J2-PadT)*%
X138008033Y-49466967D02*
X138175000Y-49300000D01*
X129368095Y-49466967D02*
X138008033Y-49466967D01*
%TO.N,Net-(J3-PadT)*%
X159750000Y-38740000D02*
X159750000Y-40625000D01*
X146750000Y-53800000D02*
X150925000Y-49625000D01*
X150925000Y-49625000D02*
X150925000Y-49450000D01*
X159750000Y-40625000D02*
X150925000Y-49450000D01*
%TO.N,Net-(U1-Reset)*%
X156025000Y-134125000D02*
X156025000Y-129050000D01*
X156025000Y-129050000D02*
X162775000Y-122300000D01*
X153075000Y-137075000D02*
X156025000Y-134125000D01*
X162775000Y-122300000D02*
X162775000Y-51925000D01*
X142825000Y-144950000D02*
X150700000Y-137075000D01*
X150700000Y-137075000D02*
X153075000Y-137075000D01*
X127075000Y-148845000D02*
X130970000Y-144950000D01*
X130970000Y-144950000D02*
X142825000Y-144950000D01*
X162775000Y-51925000D02*
X159750000Y-48900000D01*
%TO.N,Net-(J4-PadT)*%
X124140000Y-79175000D02*
X128440000Y-74875000D01*
X128440000Y-74875000D02*
X129375000Y-74875000D01*
%TO.N,Net-(U1-Q0)*%
X122135000Y-146500000D02*
X120310000Y-144675000D01*
X121995000Y-148845000D02*
X122130000Y-148845000D01*
X134300000Y-79175000D02*
X128190000Y-79175000D01*
X122135000Y-148850000D02*
X122135000Y-146500000D01*
X122130000Y-148845000D02*
X122135000Y-148850000D01*
X124140000Y-84685000D02*
X124140000Y-83225000D01*
X120310000Y-88515000D02*
X124140000Y-84685000D01*
X128190000Y-79175000D02*
X124140000Y-83225000D01*
X120310000Y-144675000D02*
X120310000Y-88515000D01*
%TO.N,Net-(U1-Q1)*%
X124535000Y-139485000D02*
X121700000Y-136650000D01*
X146875000Y-83400000D02*
X152860000Y-83400000D01*
X126000000Y-86000000D02*
X144275000Y-86000000D01*
X144275000Y-86000000D02*
X146875000Y-83400000D01*
X121700000Y-90300000D02*
X126000000Y-86000000D01*
X121700000Y-136650000D02*
X121700000Y-90300000D01*
X152860000Y-83400000D02*
X157010000Y-79250000D01*
X124535000Y-141225000D02*
X124535000Y-139485000D01*
%TO.N,Net-(J5-PadT)*%
X151000000Y-75100000D02*
X151000000Y-74850000D01*
X146850000Y-79250000D02*
X151000000Y-75100000D01*
%TO.N,Net-(U1-Q2)*%
X127075000Y-141225000D02*
X127075000Y-139625000D01*
X130900000Y-108750000D02*
X134975000Y-104675000D01*
X123150000Y-135700000D02*
X123150000Y-110415000D01*
X124815000Y-108750000D02*
X130900000Y-108750000D01*
X127075000Y-139625000D02*
X123150000Y-135700000D01*
X123150000Y-110415000D02*
X124815000Y-108750000D01*
%TO.N,Net-(J6-PadT)*%
X129115000Y-100375000D02*
X129325000Y-100375000D01*
X124815000Y-104675000D02*
X129115000Y-100375000D01*
%TO.N,Net-(U1-Q3)*%
X147000000Y-108750000D02*
X153060000Y-108750000D01*
X153060000Y-108750000D02*
X157135000Y-104675000D01*
X129615000Y-140660000D02*
X132600000Y-137675000D01*
X129615000Y-141225000D02*
X129615000Y-140660000D01*
%TO.N,Net-(J7-PadT)*%
X150925000Y-100725000D02*
X150925000Y-100350000D01*
X146975000Y-104675000D02*
X150925000Y-100725000D01*
%TO.N,Net-(U1-Q4)*%
X134695000Y-136820000D02*
X131780000Y-133905000D01*
X130860000Y-133950000D02*
X131780000Y-133030000D01*
X131780000Y-133905000D02*
X131780000Y-133030000D01*
X124775000Y-133950000D02*
X130860000Y-133950000D01*
X134695000Y-141225000D02*
X134695000Y-136820000D01*
X131780000Y-133030000D02*
X134910000Y-129900000D01*
%TO.N,Net-(J8-PadT)*%
X124750000Y-129900000D02*
X128850000Y-125800000D01*
X128850000Y-125800000D02*
X129325000Y-125800000D01*
%TO.N,Net-(U1-Q5)*%
X137235000Y-139740000D02*
X142975000Y-134000000D01*
X153135000Y-129900000D02*
X147075000Y-129900000D01*
X137235000Y-141225000D02*
X137235000Y-139740000D01*
X147075000Y-129900000D02*
X142975000Y-134000000D01*
X142975000Y-134025000D02*
X142975000Y-134000000D01*
%TO.N,Net-(J9-PadT)*%
X147050000Y-125825000D02*
X150925000Y-125825000D01*
X142975000Y-129900000D02*
X147050000Y-125825000D01*
%TO.N,+12V*%
X160675000Y-139095000D02*
X158135000Y-139095000D01*
%TO.N,-12V*%
X160675000Y-149255000D02*
X158135000Y-149255000D01*
%TO.N,+5V*%
X148397500Y-146312500D02*
X144960000Y-149750000D01*
X150160000Y-144550000D02*
X149222500Y-145487500D01*
X158135000Y-136555000D02*
X156430000Y-136555000D01*
X150160000Y-142825000D02*
X150160000Y-144550000D01*
X160675000Y-136555000D02*
X158135000Y-136555000D01*
X149222500Y-145487500D02*
X148650000Y-146060000D01*
X156430000Y-136555000D02*
X150160000Y-142825000D01*
X140680000Y-149750000D02*
X139775000Y-148845000D01*
X149222500Y-145487500D02*
X148397500Y-146312500D01*
X144960000Y-149750000D02*
X140680000Y-149750000D01*
%TO.N,unconnected-(J10-Pin_13-Pad13)*%
X160675000Y-134015000D02*
X158135000Y-134015000D01*
%TO.N,unconnected-(J10-Pin_15-Pad15)*%
X160675000Y-131475000D02*
X158135000Y-131475000D01*
%TD*%
M02*
